<?xml version="1.0" encoding="utf-8"?>
<!-- Generator: Adobe Illustrator 16.0.0, SVG Export Plug-In . SVG Version: 6.00 Build 0)  -->
<!DOCTYPE svg PUBLIC "-//W3C//DTD SVG 1.1//EN" "http://www.w3.org/Graphics/SVG/1.1/DTD/svg11.dtd">
<svg version="1.1" id="Layer_1" xmlns="http://www.w3.org/2000/svg" xmlns:xlink="http://www.w3.org/1999/xlink" x="0px" y="0px"
	 width="491px" height="680px" viewBox="0 0 491 680" enable-background="new 0 0 491 680" xml:space="preserve">
<path display="none" fill-rule="evenodd" clip-rule="evenodd" fill="#FF9966" d="M87.359,469.297
	c-3.283-4.541-6.602-9.057-9.842-13.629c-7.01-9.893-14.027-19.781-20.952-29.734c-8.216-11.807-16.637-23.49-24.349-35.621
	c-2.966-4.666-4.224-10.416-6.266-15.67c-5.242-13.484-10.827-26.871-11.965-41.539c-0.304-3.918-0.621-7.834-0.932-11.752
	c0.478-0.199,0.955-0.4,1.433-0.602c2.196,2.967,4.366,5.953,6.594,8.896c4.804,6.35,9.752,12.593,14.433,19.033
	c6.904,9.498,12.736,19.953,20.651,28.492c9.832,10.607,11.291,24.164,15.711,36.643c5.995,16.926,10.976,34.213,16.348,51.357
	c0.361,1.156,0.355,2.428,0.52,3.646C88.281,468.979,87.82,469.139,87.359,469.297z"/>
<path display="none" fill-rule="evenodd" clip-rule="evenodd" fill="#FF9966" d="M275.799,409.193
	c-1.795-9.701-4.867-19.365-5.145-29.107c-0.809-28.432-0.383-56.896-0.699-85.345c-0.105-9.43,5.166-16.186,10.602-22.682
	c6.256-7.479,6.5-7.096,12.418,1.021c1.749,2.4,2.04,3.756,0.078,6.375c-4.862,6.484-9.305,13.309-13.535,20.229
	c-1.102,1.803-1.104,4.457-1.11,6.721c-0.083,32.283-0.079,64.566-0.096,96.849c-0.001,1.908,0,3.818,0,5.729
	C277.475,409.053,276.637,409.123,275.799,409.193z"/>
<path display="none" fill-rule="evenodd" clip-rule="evenodd" fill="#FF9966" d="M122.318,249.502
	c-7.753,0-15.506,0.055-23.258-0.014c-13.064-0.117-26.133-0.201-39.191-0.576c-2.382-0.07-4.726-1.465-7.087-2.246
	c2.04-1.275,3.928-3.027,6.148-3.736c7.41-2.369,14.905-4.5,22.444-6.42c2.311-0.588,5.051-0.814,7.283-0.154
	c9.67,2.859,19.234,6.08,28.812,9.246c1.805,0.598,3.493,1.547,5.235,2.334C122.576,248.458,122.447,248.979,122.318,249.502z"/>
<path display="none" fill-rule="evenodd" clip-rule="evenodd" fill="#FF9966" d="M62.127,254.833c17.873,0,35.422,0,52.972,0
	c0.086,0.279,0.172,0.558,0.258,0.837c-1.786,0.625-3.529,1.574-5.367,1.82c-8.138,1.092-12.506,6.638-16.146,13.175
	c-1.527,2.743-3.416,4.659-6.758,2.359c-8.016-5.516-16.045-11.011-24.046-16.548C62.694,256.237,62.576,255.667,62.127,254.833z"/>
<path display="none" fill-rule="evenodd" clip-rule="evenodd" fill="#FF9966" d="M118.4,286.765c-5.521,0-11.078,0.392-16.549-0.128
	c-4.17-0.396-6.679-6.855-4.101-10.25c3.394-4.467,7.038-8.802,11.037-12.722c1.699-1.666,4.571-2.136,7.778-3.525
	c-0.926,9.209-2.9,17.471,2.537,24.924C118.869,285.63,118.635,286.198,118.4,286.765z"/>
<path display="none" fill-rule="evenodd" clip-rule="evenodd" fill="#FF9966" d="M169.946,294.861
	c-1.712,0.764-3.383,1.64-5.142,2.272c-6.722,2.42-13.438,4.863-20.231,7.069c-1.977,0.642-4.417,1.217-6.272,0.636
	c-9.926-3.106-19.734-6.59-29.626-10.929c2.608-0.185,5.263-0.769,7.815-0.478c7.541,0.858,15.051,2.009,22.556,3.154
	c3.633,0.555,6.757,0.551,10.401-1.379c6.285-3.328,13.389-1.759,20.161-1.946C169.721,293.794,169.834,294.328,169.946,294.861z"/>
<path display="none" fill-rule="evenodd" clip-rule="evenodd" fill="#FF9966" d="M163.833,274.292
	c6.18,4.434,12.444,8.928,18.708,13.421c-0.137,0.417-0.274,0.833-0.412,1.25c-7.742,0-15.484,0-24.021,0
	C160.18,283.651,161.96,279.089,163.833,274.292z"/>
<path display="none" fill-rule="evenodd" clip-rule="evenodd" fill="#FF9966" d="M245.784,649.834
	c-3.907,3.155-7.991,5.617-10.97,9.042c-5.44,6.26-12.381,5.488-19.316,5.203c-0.943-0.038-2.36-1.09-2.671-1.982
	c-2.717-7.803-5.323-15.65-7.706-23.56c-0.359-1.191,0.271-3.003,1.02-4.151c4.055-6.221,8.207-12.382,12.528-18.418
	c0.974-1.36,2.604-2.588,4.187-3.12c6.901-2.319,13.869-4.459,20.88-6.423c1.627-0.457,3.629-0.337,5.267,0.156
	c4.153,1.247,8.104,3.264,12.307,4.236c8.254,1.913,13.806,6.761,17.503,14.191c1.178,2.368,2.601,4.721,4.366,6.669
	c3.559,3.923,3.688,7.933,1.841,12.701c-2.071,5.342-3.613,10.899-5.153,16.43c-0.705,2.535-1.857,3.457-4.607,3.666
	c-7.188,0.547-13.434-0.744-18.747-6.118C253.387,655.196,249.528,652.762,245.784,649.834z"/>
<path display="none" fill-rule="evenodd" clip-rule="evenodd" fill="#FF9966" d="M25.385,479.172
	c2.631,0.854,5.282,1.648,7.89,2.568c18.671,6.59,37.291,13.332,56.034,19.713c4.099,1.395,6.107,3.582,7.387,7.67
	c10.428,33.352,21.089,66.629,31.667,99.934c0.441,1.391,0.763,2.818,0.405,4.748c-3.562-3.982-7.155-7.939-10.682-11.955
	c-23.062-26.264-46.187-52.473-69.08-78.883c-3.433-3.961-5.968-8.766-8.551-13.385c-5.427-9.705-10.609-19.549-15.891-29.336
	C24.838,479.889,25.111,479.531,25.385,479.172z"/>
<path display="none" fill-rule="evenodd" clip-rule="evenodd" fill="#FF9966" d="M205.035,667.438
	c-8.135,1.729-17.201-3.311-19.506-10.449c-2.505-7.762-5.236-15.465-7.311-23.34c-0.614-2.328-0.134-5.693,1.203-7.66
	c7.295-10.74,14.917-21.262,22.691-31.662c1.151-1.541,3.71-2.883,5.615-2.877c25.646,0.055,51.295,0.281,76.938,0.77
	c2.162,0.043,5.022,1.75,6.301,3.566c7.275,10.348,14.289,20.889,21.078,31.562c1.145,1.797,1.521,4.779,0.946,6.852
	c-2.177,7.852-5.313,15.449-7.297,23.34c-2.435,9.686-8.927,12.453-18.796,10.102c2.227-7.281,3.981-14.715,6.794-21.727
	c2.685-6.691,1.171-11.641-2.183-17.922c-8.048-15.066-19.492-24.248-36.137-28.287c-6.422-1.559-12.029-2.752-18.188-0.066
	c-2.727,1.188-5.664,2.168-8.598,2.566c-10.836,1.469-17.914,7.654-22.801,17.059c-1.602,3.082-3.525,6.129-5.869,8.668
	c-4.686,5.072-4.844,10.242-2.226,16.377c2.474,5.797,4.114,11.953,6.058,17.971C204.293,663.957,204.611,665.707,205.035,667.438z"
	/>
<path display="none" fill-rule="evenodd" clip-rule="evenodd" fill="#FF9966" d="M18.342,371.977
	c0,13.096-0.306,26.201,0.105,39.285c0.28,8.947,0.804,18.018,2.602,26.748c1.801,8.75,1.966,17.635,3.6,26.373
	c0.982,5.252,2.851,8.564,8.367,10.303c17.929,5.652,35.681,11.863,53.534,17.758c2.776,0.916,5.729,1.299,9.597,2.148
	c-1.436-2.316-2.472-4.213-3.717-5.963c-19.879-27.93-39.641-55.943-59.774-83.689c-5.768-7.949-7.616-17.254-11.019-26.039
	c-0.891-2.299-1.518-4.701-2.266-7.057C19.028,371.889,18.685,371.932,18.342,371.977z"/>
<path display="none" fill-rule="evenodd" clip-rule="evenodd" fill="#FF9966" d="M160.74,516.875
	c-4.439-6.229-8.485-11.85-12.475-17.512c-5.177-7.352-10.248-14.777-15.498-22.074c-1.543-2.146-1.99-3.762-0.224-6.152
	c16.628-22.498,33.131-45.09,49.69-67.639c0.652-0.891,1.514-1.625,2.83-3.014c1.002,2.898,2.465,5.182,2.463,7.463
	c-0.014,9.117,1.275,18.725-1.108,27.262c-7.384,26.443-16.227,52.48-24.512,78.672C161.675,514.615,161.35,515.322,160.74,516.875z
	"/>
<path display="none" fill-rule="evenodd" clip-rule="evenodd" fill="#FF9966" d="M208.609,250.688
	c-15.316-5.223-29.627-10.104-43.939-14.982c-20.164-6.873-40.135-14.416-60.574-20.342c-10.658-3.092-21.99-4.408-32.082,4.125
	c-7.699,6.512-16.48,11.74-24.78,17.539c0.077,0.6,0.153,1.201,0.23,1.801c1.703,0.064,3.528,0.564,5.09,0.127
	c9.934-2.793,19.77-5.934,29.731-8.619c2.393-0.646,5.336-0.633,7.68,0.133c34.646,11.324,69.248,22.791,103.818,34.35
	c3.166,1.059,5.193,0.973,6.988-2.207C202.955,258.745,205.637,255.157,208.609,250.688z"/>
<path display="none" fill-rule="evenodd" clip-rule="evenodd" fill="#FF9966" d="M151.938,527.053
	c-9.248,6.457-17.252,12.047-25.537,17.834c7.99,11.135,15.521,21.908,23.391,32.43c2.335,3.121,2.699,5.514-0.209,8.123
	c-8.369,7.508-9.699,15.961-4.804,26.203c2.817,5.895,3.969,12.586,5.341,19.301c-4.52-2.605-9.604-4.277-11.389-9.896
	c-11.288-35.549-22.595-71.094-33.882-106.645c-0.295-0.928-0.437-1.906-0.944-4.182
	C120.056,515.879,135.396,521.256,151.938,527.053z"/>
<path display="none" fill-rule="evenodd" clip-rule="evenodd" fill="#FF9966" d="M218.455,563.055
	c-4.617,1.619-9.215,3.295-13.854,4.844c-13.405,4.477-26.876,8.766-40.213,13.438c-3.581,1.254-5.66,0.867-7.878-2.359
	c-6.402-9.316-13.041-18.479-19.803-27.541c-2.102-2.818-1.887-4.475,1.02-6.387c6.113-4.021,12.156-8.16,18.061-12.48
	c2.418-1.77,4.301-1.693,6.699-0.08c12.268,8.254,24.719,16.238,36.871,24.654c4.562,3.158,9.066,5.361,14.726,4.686
	c1.369-0.164,2.802,0.205,4.206,0.33C218.344,562.457,218.4,562.756,218.455,563.055z"/>
<path display="none" fill-rule="evenodd" clip-rule="evenodd" fill="#FF9966" d="M171.324,513.951
	c7.725-10.99,15.43-21.998,23.183-32.969c7.487-10.598,14.918-21.238,22.609-31.686c2.054-2.789,2.412-5.107,0.88-8.154
	c-1.766-3.512-3.145-7.217-3.842-11.662c5.072,3.832,10.231,7.557,15.133,11.596c0.881,0.725,0.955,2.74,0.966,4.164
	c0.122,15.973,0.103,31.947,0.261,47.922c0.034,3.502-1.059,5.281-4.711,6.291c-17.926,4.955-35.762,10.242-53.629,15.41
	C171.891,514.561,171.607,514.256,171.324,513.951z"/>
<path display="none" fill-rule="evenodd" clip-rule="evenodd" fill="#FF9966" d="M281.753,440.646
	c2.83-6.271,5.172-11.463,7.515-16.654c-0.292-0.281-0.585-0.562-0.878-0.844c-1.409,0.938-2.864,1.812-4.221,2.82
	c-10.693,7.947-21.434,15.834-32.001,23.945c-2.458,1.887-4.026,1.818-6.434-0.051c-10.654-8.271-21.47-16.338-32.238-24.463
	c-1.551-1.17-3.164-2.26-4.748-3.385c-0.372,0.234-0.744,0.471-1.116,0.707c2.372,5.621,4.743,11.242,7.607,18.033
	c-5.938-1.764-11.439-2.266-15.442-4.979c-2.705-1.832-4.235-6.68-4.624-10.354c-0.644-6.08-0.155-12.318,0.308-18.457
	c0.162-2.139,1.363-4.381,2.613-6.221c2.609-3.84,5.566-7.443,8.329-11.076c8.069,2.879,11.047,5.906,9.973,13.66
	c-1.835,13.242,2.24,22.557,14.275,28.893c5.677,2.988,10.374,7.793,15.779,11.377c1.339,0.889,4.25,1.025,5.508,0.158
	c8.906-6.145,17.641-12.549,26.237-19.121c1.319-1.01,2.198-3.273,2.331-5.029c0.375-4.975,0.794-10.049,0.21-14.967
	c-0.843-7.098,2.091-11.383,9.114-14.207c4.594,6.328,12.324,11.041,11.217,21.051c-0.707,6.387-0.675,12.859-1.47,19.23
	c-0.501,4.014-3.373,6.162-7.446,6.941C288.975,438.264,285.904,439.428,281.753,440.646z"/>
<path display="none" fill-rule="evenodd" clip-rule="evenodd" fill="#FF9966" d="M318.44,586.926
	c-48.545-0.535-97.089-1.07-145.633-1.605c-0.076-0.348-0.153-0.693-0.229-1.041c1.783-0.66,3.55-1.369,5.352-1.973
	c14.844-4.973,30.039-9.111,44.418-15.186c8.859-3.744,17.457-2.713,26.241-2.854c7.968-0.129,15.552,0.008,23.447,3.811
	c13.146,6.328,27.362,10.43,41.121,15.486c1.845,0.678,3.652,1.457,5.477,2.188C318.569,586.145,318.505,586.535,318.44,586.926z"/>
<path display="none" fill-rule="evenodd" clip-rule="evenodd" fill="#FF9966" d="M214.439,302.03
	c0,17.705,1.056,34.256-0.395,50.583c-0.877,9.875-5.096,19.623-8.844,29.018c-2.613,6.553-6.973,12.408-10.551,18.574
	c-0.512-0.191-1.023-0.383-1.535-0.574c-0.564-1.311-1.25-2.584-1.673-3.939c-4.118-13.176-8.29-26.34-12.173-39.586
	c-0.574-1.959-0.496-4.867,0.585-6.434c10.485-15.199,21.245-30.208,31.952-45.253C212.244,303.805,212.939,303.374,214.439,302.03z
	"/>
<path display="none" fill-rule="evenodd" clip-rule="evenodd" fill="#FF9966" d="M214.783,260.612
	c-3.366,5.023-6.452,9.154-8.925,13.623c-0.686,1.238-0.063,3.812,0.835,5.209c4.048,6.295,8.624,12.256,12.554,18.619
	c1.549,2.51,2.672,5.748,2.693,8.662c0.242,34.617,0.237,69.236,0.313,103.855c0.003,1.57,0.167,3.141,0.256,4.711
	c0.556,0.109,1.112,0.221,1.667,0.332c2.739-10.287,7.473-20.504,7.844-30.875c1.144-31.918,0.633-63.896,0.694-95.851
	c0.003-1.588-0.231-3.475-1.089-4.713C226.341,276.54,220.845,269.043,214.783,260.612z"/>
<path display="none" fill-rule="evenodd" clip-rule="evenodd" fill="#FF9966" d="M177.951,656.875
	c-5.811-4.363-11.711-8.617-17.364-13.174c-1.284-1.035-1.96-3.051-2.497-4.748c-3.055-9.666-5.898-19.398-9.004-29.047
	c-0.971-3.012-0.031-5.066,1.416-7.756c5.183-9.629,12.593-13.289,23.522-11.799c7.156,0.975,14.554,0.184,23.118,0.184
	c-1.63,2.592-2.549,4.234-3.637,5.754c-6.676,9.326-13.213,18.76-20.182,27.863c-2.582,3.373-2.773,6.277-1.434,10.076
	c2.533,7.182,4.635,14.516,6.916,21.787C178.521,656.303,178.236,656.588,177.951,656.875z"/>
<path display="none" fill-rule="evenodd" clip-rule="evenodd" fill="#FFAD74" d="M232.553,524.314
	c4.603,2.344,8.947,4.289,13.139,6.779c3.024,1.797,5.761,2.074,8.852,0.205c3.558-2.156,7.326-3.572,11.588-5.586
	c1.221,5.926,2.723,11.492,3.443,17.266c0.58,4.645-5.859,13.729-9.125,13.684c-7.299-0.1-14.598-0.318-21.896-0.307
	c-2.237,0.004-3.602-1.195-5.141-3.707c-4.342-7.084-5.633-14.346-2.232-22.881C231.782,528.256,232.029,526.445,232.553,524.314z"
	/>
<path display="none" fill-rule="evenodd" clip-rule="evenodd" fill="#FF9966" d="M73.992,407.221
	c0.896,1.072,1.874,2.088,2.675,3.229c13.954,19.863,27.827,39.783,41.89,59.568c1.906,2.682,1.777,4.432-0.147,6.932
	c-5.257,6.824-10.249,13.855-16.226,22.004c-9.93-31.215-19.483-61.248-29.037-91.283C73.428,407.52,73.71,407.371,73.992,407.221z"
	/>
<path display="none" fill-rule="evenodd" clip-rule="evenodd" fill="#FF9966" d="M236.767,500.098
	c3.207-14.004,6.44-28.121,9.457-41.291c2.388,0,4.21,0,6.968,0c2.792,13.008,5.856,27.285,8.898,41.457
	C254.553,508.455,245.935,508.422,236.767,500.098z"/>
<path display="none" fill-rule="evenodd" clip-rule="evenodd" fill="#FF9966" d="M190.826,436.469
	c3.797,2.223,6.936,4.477,10.4,5.975c3.621,1.564,7.559,2.402,12.281,3.838c-14.961,21.158-29.555,41.795-44.146,62.434
	c-0.381-0.164-0.762-0.328-1.143-0.49C175.861,483.969,183.503,459.713,190.826,436.469z"/>
<path display="none" fill-rule="evenodd" clip-rule="evenodd" fill="#FF7530" d="M225.053,556.318
	c-6.513,0.764-11.514,0.768-16.529-2.785c-11.812-8.363-24.045-16.137-36.094-24.168c-0.635-0.422-1.146-1.027-2.4-2.172
	c10.115,0,19.357,0.309,28.565-0.131c4.661-0.223,9.358-1.473,13.849-2.873c3.115-0.973,5.895-2.443,9.144,0.631
	c-1.306,4.023-2.411,8.369-4.13,12.455c-1.607,3.826-1.231,6.914,1.406,10.092C220.965,549.898,222.64,552.785,225.053,556.318z"/>
<path display="none" fill-rule="evenodd" clip-rule="evenodd" fill="#FF9966" d="M121.863,274.965
	c-0.311-8.407,4.733-16.98,12.088-17.494c5.033-0.352,10.375,2.369,15.42,4.166c2.102,0.749,3.805,2.643,5.658,4.056
	c5.768,4.391,6.047,10.947,3.197,17.542c-3.182,7.362-9.978,8.166-15.71,10.727c-1.972,0.879-5.292-1.505-8.058-2.111
	C126.74,290.159,122.203,284.168,121.863,274.965z M148.846,274.307c0.002-4.396-3.576-7.883-7.949-7.751
	c-4.007,0.121-7.645,3.742-7.682,7.646c-0.041,4.314,3.432,7.897,7.795,8.043C145.176,282.384,148.846,278.667,148.846,274.307z"/>
<path display="none" fill-rule="evenodd" clip-rule="evenodd" fill="#FF9966" d="M126.461,478.115
	c9.811,13.926,19.116,27.137,28.422,40.348c-0.236,0.363-0.475,0.729-0.711,1.092c-15.18-5.344-30.359-10.686-46.25-16.279
	C114.236,494.705,120.078,486.777,126.461,478.115z"/>
<path display="none" fill-rule="evenodd" clip-rule="evenodd" fill="#FF954A" d="M262.33,506.355
	c4.883,13.895,4.374,13.889-4.572,19.537c-6.861,4.33-12.404,0.801-18.285-2.42c-7.674-4.203-6.67-1.67-4.309-12.807
	c0.298-1.41,0.713-2.766,1.251-4.822c3.413,1.764,6.747,3.246,9.941,5.211c2.597,1.596,4.919,1.67,7.508-0.115
	C256.518,509.111,259.379,507.922,262.33,506.355z"/>
<path display="none" fill-rule="evenodd" clip-rule="evenodd" fill="#A84100" d="M174.594,518.324
	c16.133-4.643,32.266-9.285,49.895-14.359c-1.605,4.865-2.801,8.488-4.225,12.801c-5.52-3.312-9.705-0.145-14.127,1.945
	c-1.032,0.488-2.19,0.99-3.294,1c-9.364,0.08-18.729,0.045-28.093,0.045C174.697,519.279,174.646,518.803,174.594,518.324z"/>
<path display="none" fill-rule="evenodd" clip-rule="evenodd" fill="#FF9966" d="M271.996,422.77
	c-6.939,5.078-13.844,10.203-20.865,15.162c-0.689,0.486-2.389,0.367-3.121-0.16c-7.382-5.33-14.66-10.807-21.967-16.24
	c0.191-0.402,0.384-0.805,0.576-1.207c5.545,1.918,11.212,3.549,16.596,5.844c4.588,1.957,8.811,2.02,13.41,0.227
	c4.768-1.859,9.727-3.229,14.604-4.812C271.484,421.977,271.74,422.373,271.996,422.77z"/>
<path display="none" fill-rule="evenodd" clip-rule="evenodd" fill="#FF9966" d="M216.701,359.707c0,9.51,0,19.021,0,28.643
	c-7.984-2.678-9.017-4.549-6.697-11.703c1.865-5.75,3.748-11.494,5.623-17.24C215.984,359.506,216.344,359.605,216.701,359.707z"/>
<path display="none" fill-rule="evenodd" clip-rule="evenodd" fill="#FF9966" d="M280.92,359.707c0,9.51,0,19.021,0,28.643
	c7.984-2.678,9.017-4.549,6.697-11.703c-1.865-5.75-3.748-11.494-5.623-17.24C281.637,359.506,281.277,359.605,280.92,359.707z"/>
<path display="none" fill-rule="evenodd" clip-rule="evenodd" fill="#FF9966" d="M254.917,672.639c-7.074,0-12.802,0-19.796,0
	c3.169-4.92,5.944-9.23,9.286-14.418C247.904,663.018,251.031,667.309,254.917,672.639z"/>
<path display="none" fill-rule="evenodd" clip-rule="evenodd" fill="#FF9966" d="M265.186,670.387
	c-8.555,1.814-8.815-4.992-12.269-7.861c0.267-0.34,0.533-0.678,0.8-1.018C257.205,664.209,260.693,666.908,265.186,670.387z"/>
<path display="none" fill-rule="evenodd" clip-rule="evenodd" fill="#FF9966" d="M236.12,665.621
	c-2.894,2.984-3.108,9.463-11.12,7.146c3.895-3.055,7.13-5.592,10.365-8.129C235.617,664.967,235.868,665.295,236.12,665.621z"/>
<path display="none" fill-rule="evenodd" clip-rule="evenodd" fill="#FF6032" d="M119.977,39.156
	c5.357,1.751,10.15,3.343,14.959,4.884c22.292,7.146,44.584,14.293,66.889,21.398c4.287,1.365,6.189,3.125,4.371,8.331
	c-5.963,17.085-11.432,34.347-16.848,51.617c-4.271,13.62-8.107,27.376-12.285,41.026c-2.359,7.706-4.848,15.386-7.729,22.904
	c-0.44,1.147-3.591,2.27-5.036,1.85c-7.812-2.267-15.495-4.99-23.201-7.616c-15.382-5.24-30.715-10.625-46.148-15.707
	c-3.621-1.192-6.008-2.796-7.217-6.646c-6.125-19.485-12.41-38.922-18.789-58.325c-2.07-6.294-4.729-12.393-6.81-18.683
	c-0.452-1.366-0.165-3.946,0.771-4.648c7.147-5.361,14.546-10.388,21.853-15.536c4.4-3.099,8.774-6.234,13.167-9.345
	c2.142-1.517,4.317-2.986,6.445-4.522c3.059-2.209,6.061-4.496,9.138-6.679C115.609,41.967,117.799,40.597,119.977,39.156z"/>
<path fill-rule="evenodd" clip-rule="evenodd" fill="#B25900" d="M177.217,192.337c1.877-7.073,3.289-12.659,4.845-18.197
	c3.067-10.908,6.195-21.795,9.335-32.679c3.723-12.905,7.479-25.798,11.229-38.692c2.408-8.283,4.903-16.537,7.216-24.851
	c1.13-4.064,2.677-6.067,7-4.31c7.814,3.175,15.76,5.997,23.75,8.596c6.354,2.067,12.389,0.034,18.457-2.333
	c6.307-2.458,12.871-4.097,19.291-6.209c3.312-1.09,4.648,0.86,5.37,3.88c2.175,9.112,4.007,18.34,6.542,27.327
	c2.906,10.305,6.717,20.3,9.605,30.61c4.807,17.164,9.188,34.474,13.76,51.718c0.405,1.53,0.907,3.029,1.545,5.139
	C269.351,192.337,223.84,192.337,177.217,192.337z"/>
<path display="none" fill-rule="evenodd" clip-rule="evenodd" fill="#C03B00" d="M308.047,202.338
	c-3.655,7.148-6.89,13.681-10.309,20.057c-1.262,2.354-2.979,4.314-4.434,6.513c-0.334,0.503-0.477,1.226-0.656,1.87
	c-0.324,1.152-0.387,2.543-0.949,3.451c-5.426,8.777-10.942,17.465-16.41,26.201c-1.26,2.012-2.529,4.032-3.623,6.188
	c-1.375,2.708-2.234,5.957-3.922,8.262c-3.256,4.449-3.424,9.601-3.402,15.138c0.094,26.699-0.1,53.403,0.197,80.098
	c0.068,6.234,1.388,12.523,2.601,18.639c1.452,7.324,3.407,14.49,5.3,22.367c-6.657,2.676-12.809,5.17-18.977,7.6
	c-0.685,0.271-1.541,0.5-2.174,0.225c-6.699-2.926-13.368-5.955-20.617-9.215c2.491-9.268,4.905-17.918,7.109-26.654
	c0.622-2.461,0.876-5.166,0.883-7.762c0.076-29.338,0.182-58.678-0.043-88.015c-0.03-3.931-1.234-8.332-2.941-11.659
	c-4.012-7.817-8.73-15.05-13.03-22.64c-8.614-15.205-17.206-30.432-25.659-45.779c-2.475-4.494-2.027-5.545,2.324-5.588
	c13.713-0.138,27.427-0.003,41.141,0.007c13.479,0.011,26.959-0.031,40.438,0.001c8.102,0.02,16.203,0.127,24.305,0.229
	C306.007,201.881,306.816,202.129,308.047,202.338z"/>
<path display="none" fill-rule="evenodd" clip-rule="evenodd" fill="#F15600" d="M372.924,34.457
	c-16.991,5.589-33.986,11.164-50.972,16.771c-16.906,5.58-33.744,11.376-50.729,16.706c-7.434,2.333-15.111,3.977-22.771,5.443
	c-2.623,0.502-5.673-0.041-8.286-0.868c-17.084-5.41-34.115-10.987-51.137-16.593c-17.157-5.65-34.267-11.443-51.43-17.073
	c-4.848-1.59-9.812-2.826-16.197-4.645c5.229-4.281,9.381-7.943,13.807-11.236c5.296-3.94,10.69-7.788,16.316-11.228
	c2.562-1.567,5.779-2.908,8.703-2.914c58.639-0.125,117.278-0.13,175.916,0.2c3.96,0.022,8.254,2.326,11.772,4.551
	c4.871,3.079,9.16,7.08,13.68,10.709c0.751,0.604,1.324,1.446,2.117,1.973c3.304,2.197,6.659,4.315,9.996,6.462
	C373.448,33.296,373.186,33.876,372.924,34.457z"/>
<path display="none" fill-rule="evenodd" clip-rule="evenodd" fill="#FF9966" d="M32.9,233.939c0-7.072,0.008-14.146-0.001-21.218
	c-0.048-35.146-0.016-70.294-0.24-105.439c-0.035-5.476,1.568-9.073,6.63-11.587c3.939-1.957,7.393-4.906,11.013-7.483
	c2.331-1.66,3.946-1.483,4.816,1.484c1.065,3.634,2.091,7.283,3.29,10.873c3.282,9.83,6.701,19.613,9.963,29.449
	c4.014,12.104,7.848,24.267,11.91,36.353c1.871,5.563-2.389,8.759-4.799,12.376c-5.22,7.834-10.976,15.326-16.756,22.769
	c-7.067,9.098-14.434,17.963-21.545,27.026c-1.256,1.602-1.899,3.684-2.825,5.543C33.87,234.037,33.385,233.988,32.9,233.939z"/>
<polygon display="none" fill-rule="evenodd" clip-rule="evenodd" fill="#FF9966" points="197.541,238.955 172.916,199.974 
	88.535,175.974 47.234,225.559 92.535,200.641 "/>
<polyline display="none" fill-rule="evenodd" clip-rule="evenodd" fill="#FF9966" points="56.701,280.141 55.832,278.532 
	42.201,253.295 42.201,234.084 20.201,257.44 9.701,305.141 57.189,367.641 37.201,294.153 "/>
<path display="none" fill-rule="evenodd" clip-rule="evenodd" fill="#FD7E00" d="M406.633,470.379
	c3.282-4.541,6.602-9.059,9.84-13.629c7.01-9.895,14.027-19.783,20.953-29.734c8.216-11.809,16.637-23.492,24.35-35.623
	c2.966-4.664,4.223-10.414,6.266-15.668c5.242-13.486,10.826-26.873,11.965-41.541c0.304-3.918,0.62-7.834,0.932-11.75
	c-0.479-0.201-0.955-0.402-1.434-0.602c-2.195,2.967-4.365,5.953-6.594,8.896c-4.804,6.348-9.752,12.593-14.432,19.031
	c-6.904,9.498-12.736,19.953-20.651,28.494c-9.831,10.607-11.292,24.164-15.711,36.641c-5.995,16.928-10.976,34.213-16.347,51.359
	c-0.363,1.156-0.355,2.428-0.521,3.646C405.71,470.059,406.171,470.219,406.633,470.379z"/>
<path display="none" fill-rule="evenodd" clip-rule="evenodd" fill="#9C6800" d="M371.673,250.583
	c7.753,0,15.506,0.057,23.258-0.012c13.065-0.117,26.132-0.201,39.19-0.578c2.383-0.068,4.727-1.463,7.088-2.246
	c-2.04-1.273-3.928-3.025-6.148-3.736c-7.41-2.367-14.904-4.5-22.443-6.418c-2.311-0.588-5.052-0.816-7.283-0.156
	c-9.67,2.861-19.234,6.08-28.812,9.248c-1.805,0.596-3.493,1.545-5.234,2.332C371.416,249.54,371.545,250.061,371.673,250.583z"/>
<path display="none" fill-rule="evenodd" clip-rule="evenodd" fill="#FF7527" d="M431.863,255.914c-17.872,0-35.422,0-52.971,0
	c-0.087,0.279-0.174,0.558-0.26,0.837c1.787,0.625,3.53,1.574,5.368,1.82c8.138,1.092,12.506,6.638,16.146,13.175
	c1.527,2.743,3.416,4.659,6.76,2.359c8.016-5.516,16.045-11.011,24.045-16.548C431.297,257.318,431.414,256.749,431.863,255.914z"/>
<path display="none" fill-rule="evenodd" clip-rule="evenodd" fill="#832000" d="M375.592,287.846c5.52,0,11.077,0.392,16.549-0.128
	c4.169-0.396,6.678-6.855,4.1-10.25c-3.393-4.467-7.038-8.802-11.037-12.722c-1.699-1.666-4.57-2.136-7.779-3.525
	c0.926,9.209,2.901,17.471-2.535,24.924C375.123,286.711,375.357,287.279,375.592,287.846z"/>
<path display="none" fill-rule="evenodd" clip-rule="evenodd" fill="#FF9966" d="M324.045,295.942
	c1.711,0.764,3.383,1.64,5.141,2.272c6.723,2.42,13.439,4.863,20.232,7.069c1.977,0.642,4.417,1.217,6.273,0.636
	c9.926-3.106,19.732-6.59,29.625-10.929c-2.608-0.185-5.262-0.769-7.816-0.478c-7.541,0.858-15.05,2.009-22.555,3.154
	c-3.633,0.555-6.756,0.551-10.4-1.379c-6.286-3.328-13.391-1.759-20.162-1.946C324.271,294.875,324.158,295.409,324.045,295.942z"/>
<path display="none" fill-rule="evenodd" clip-rule="evenodd" fill="#702500" d="M330.158,275.373
	c-6.18,4.434-12.443,8.928-18.707,13.421c0.137,0.417,0.273,0.833,0.41,1.25c7.742,0,15.484,0,24.023,0
	C333.812,284.732,332.031,280.17,330.158,275.373z"/>
<path display="none" fill-rule="evenodd" clip-rule="evenodd" fill="#FF9966" d="M468.606,480.254
	c-2.631,0.852-5.282,1.648-7.89,2.568c-18.672,6.59-37.291,13.332-56.033,19.711c-4.1,1.396-6.109,3.582-7.388,7.672
	c-10.428,33.352-21.089,66.629-31.667,99.934c-0.441,1.389-0.764,2.816-0.406,4.748c3.562-3.984,7.156-7.941,10.682-11.957
	c23.062-26.264,46.188-52.473,69.08-78.883c3.434-3.959,5.969-8.764,8.551-13.383c5.428-9.707,10.609-19.549,15.892-29.336
	C469.153,480.969,468.88,480.611,468.606,480.254z"/>
<path display="none" fill-rule="evenodd" clip-rule="evenodd" fill="#D02200" d="M475.649,373.057
	c0,13.098,0.306,26.203-0.105,39.285c-0.28,8.947-0.804,18.018-2.602,26.748c-1.801,8.75-1.966,17.637-3.6,26.373
	c-0.982,5.252-2.851,8.564-8.367,10.305c-17.929,5.652-35.681,11.863-53.534,17.756c-2.776,0.916-5.729,1.301-9.597,2.148
	c1.436-2.314,2.472-4.213,3.717-5.961c19.879-27.93,39.641-55.945,59.774-83.689c5.768-7.949,7.616-17.254,11.019-26.039
	c0.891-2.301,1.518-4.703,2.266-7.059C474.963,372.969,475.307,373.014,475.649,373.057z"/>
<path display="none" fill-rule="evenodd" clip-rule="evenodd" fill="#AF3000" d="M336.251,517.955
	c4.438-6.227,8.485-11.85,12.474-17.512c5.178-7.35,10.248-14.775,15.498-22.072c1.545-2.146,1.991-3.762,0.225-6.152
	c-16.629-22.498-33.131-45.09-49.689-67.641c-0.653-0.889-1.516-1.625-2.831-3.014c-1.003,2.898-2.466,5.182-2.462,7.463
	c0.012,9.119-1.275,18.727,1.107,27.262c7.383,26.445,16.227,52.48,24.512,78.674C335.316,515.697,335.643,516.402,336.251,517.955z
	"/>
<path display="none" fill-rule="evenodd" clip-rule="evenodd" fill="#702C00" d="M285.383,251.768
	c15.316-5.221,29.627-10.102,43.938-14.98c20.164-6.873,40.135-14.418,60.574-20.344c10.66-3.09,21.992-4.406,32.084,4.127
	c7.697,6.51,16.479,11.74,24.779,17.539c-0.078,0.6-0.154,1.199-0.23,1.799c-1.703,0.066-3.529,0.566-5.09,0.127
	c-9.934-2.791-19.771-5.932-29.732-8.619c-2.393-0.645-5.334-0.631-7.678,0.135c-34.648,11.324-69.248,22.789-103.818,34.348
	c-3.166,1.059-5.193,0.973-6.988-2.205C291.037,259.825,288.355,256.239,285.383,251.768z"/>
<path display="none" fill-rule="evenodd" clip-rule="evenodd" fill="#FF9966" d="M342.053,528.133
	c9.248,6.459,17.252,12.049,25.538,17.834c-7.99,11.137-15.521,21.91-23.392,32.43c-2.334,3.121-2.699,5.514,0.211,8.125
	c8.367,7.506,9.699,15.959,4.803,26.203c-2.817,5.895-3.969,12.586-5.341,19.299c4.521-2.604,9.604-4.275,11.389-9.895
	c11.288-35.551,22.595-71.094,33.882-106.645c0.295-0.93,0.436-1.906,0.943-4.184C373.936,516.961,358.595,522.336,342.053,528.133z
	"/>
<path display="none" fill-rule="evenodd" clip-rule="evenodd" fill="#FF9966" d="M275.535,564.137
	c4.617,1.617,9.215,3.293,13.855,4.842c13.406,4.477,26.875,8.768,40.213,13.438c3.58,1.254,5.66,0.869,7.877-2.357
	c6.403-9.318,13.042-18.48,19.803-27.543c2.103-2.816,1.889-4.475-1.02-6.387c-6.113-4.02-12.155-8.16-18.06-12.479
	c-2.418-1.77-4.302-1.693-6.699-0.08c-12.268,8.252-24.719,16.236-36.872,24.652c-4.561,3.158-9.066,5.363-14.725,4.686
	c-1.369-0.164-2.802,0.207-4.205,0.33C275.646,563.537,275.592,563.836,275.535,564.137z"/>
<path display="none" fill-rule="evenodd" clip-rule="evenodd" fill="#FF9966" d="M324.668,516.033
	c-7.727-10.992-15.431-21.998-23.184-32.971c-7.487-10.598-14.918-21.236-22.609-31.684c-2.054-2.789-2.412-5.109-0.88-8.156
	c1.767-3.51,3.145-7.217,3.842-11.66c-5.071,3.832-10.231,7.557-15.133,11.594c-0.881,0.727-0.955,2.742-0.966,4.164
	c-0.121,15.975-0.104,31.949-0.26,47.922c-0.035,3.504,1.057,5.281,4.71,6.291c17.927,4.957,35.762,10.242,53.63,15.412
	C324.102,516.641,324.385,516.338,324.668,516.033z"/>
<path display="none" fill-rule="evenodd" clip-rule="evenodd" fill="#FF9966" d="M284.553,303.112
	c0,17.703-1.057,34.254,0.394,50.583c0.877,9.875,5.097,19.623,8.843,29.018c2.613,6.551,6.973,12.406,10.553,18.572
	c0.512-0.189,1.023-0.381,1.535-0.572c0.563-1.312,1.248-2.584,1.672-3.939c4.118-13.178,8.289-26.34,12.173-39.588
	c0.573-1.957,0.497-4.865-0.585-6.434c-10.485-15.197-21.244-30.207-31.951-45.251C286.748,304.885,286.051,304.456,284.553,303.112
	z"/>
<path display="none" fill-rule="evenodd" clip-rule="evenodd" fill="#FF9966" d="M316.039,657.955
	c5.811-4.363,11.711-8.615,17.365-13.174c1.283-1.035,1.96-3.051,2.496-4.748c3.056-9.666,5.898-19.398,9.006-29.047
	c0.969-3.012,0.031-5.064-1.416-7.754c-5.184-9.629-12.594-13.291-23.523-11.801c-7.156,0.977-14.554,0.186-23.119,0.186
	c1.631,2.592,2.549,4.232,3.638,5.754c6.675,9.326,13.212,18.76,20.181,27.861c2.583,3.375,2.774,6.279,1.435,10.076
	c-2.534,7.182-4.636,14.518-6.917,21.789C315.469,657.383,315.754,657.67,316.039,657.955z"/>
<path display="none" fill-rule="evenodd" clip-rule="evenodd" fill="#FF9966" d="M420,408.301c-0.896,1.074-1.875,2.09-2.676,3.229
	c-13.953,19.863-27.828,39.783-41.891,59.57c-1.904,2.68-1.776,4.432,0.148,6.93c5.257,6.826,10.248,13.855,16.225,22.004
	c9.93-31.213,19.484-61.248,29.038-91.281C420.562,408.602,420.281,408.451,420,408.301z"/>
<path display="none" fill-rule="evenodd" clip-rule="evenodd" fill="#FF9966" d="M306.166,438.549
	c-3.798,2.225-6.936,4.479-10.401,5.977c-3.622,1.564-7.558,2.4-12.28,3.836c14.961,21.158,29.553,41.797,44.146,62.434
	c0.381-0.162,0.761-0.326,1.141-0.49C321.131,486.049,313.488,461.793,306.166,438.549z"/>
<path display="none" fill-rule="evenodd" clip-rule="evenodd" fill="#FF9466" d="M268.938,557.398
	c6.513,0.766,11.513,0.768,16.529-2.783c11.812-8.365,24.044-16.137,36.093-24.168c0.635-0.424,1.148-1.029,2.4-2.174
	c-10.113,0-19.357,0.311-28.564-0.129c-4.661-0.223-9.359-1.473-13.848-2.875c-3.117-0.973-5.895-2.443-9.145,0.633
	c1.306,4.023,2.412,8.367,4.129,12.455c1.608,3.824,1.232,6.912-1.404,10.09C273.027,550.98,271.352,553.865,268.938,557.398z"/>
<path display="none" fill-rule="evenodd" clip-rule="evenodd" fill="#392400" d="M359.533,292.931
	c-2.768,0.606-6.086,2.989-8.059,2.11c-5.732-2.56-12.528-3.363-15.71-10.726c-2.85-6.595-2.571-13.151,3.196-17.542
	c1.855-1.413,3.559-3.307,5.66-4.056c5.044-1.797,10.387-4.518,15.42-4.166c7.354,0.514,12.398,9.087,12.087,17.494
	C371.787,285.25,367.252,291.24,359.533,292.931z M352.98,283.326c4.363-0.146,7.836-3.729,7.796-8.043
	c-0.036-3.903-3.675-7.524-7.682-7.646c-4.374-0.132-7.95,3.355-7.95,7.751C345.146,279.748,348.816,283.465,352.98,283.326z"/>
<path display="none" fill-rule="evenodd" clip-rule="evenodd" fill="#FF9966" d="M367.529,479.195
	c-9.809,13.926-19.115,27.139-28.421,40.35c0.237,0.363,0.474,0.727,0.711,1.09c15.18-5.342,30.358-10.686,46.251-16.279
	C379.756,495.787,373.913,487.859,367.529,479.195z"/>
<path display="none" fill-rule="evenodd" clip-rule="evenodd" fill="#FFA332" d="M319.398,519.406
	c-16.134-4.643-32.268-9.287-49.896-14.361c1.606,4.867,2.803,8.49,4.226,12.803c5.521-3.312,9.705-0.146,14.128,1.945
	c1.031,0.486,2.189,0.99,3.293,1c9.363,0.078,18.729,0.045,28.093,0.045C319.293,520.361,319.346,519.883,319.398,519.406z"/>
<path display="none" fill-rule="evenodd" clip-rule="evenodd" fill="#E16A00" d="M374.016,40.237
	c-5.357,1.751-10.15,3.343-14.96,4.884c-22.292,7.146-44.583,14.293-66.888,21.398c-4.287,1.365-6.189,3.125-4.373,8.331
	c5.965,17.085,11.433,34.347,16.849,51.617c4.271,13.62,8.106,27.376,12.286,41.026c2.358,7.706,4.848,15.386,7.729,22.904
	c0.439,1.147,3.59,2.27,5.036,1.85c7.813-2.267,15.495-4.99,23.202-7.616c15.381-5.24,30.714-10.625,46.147-15.707
	c3.622-1.192,6.007-2.796,7.218-6.646c6.124-19.485,12.409-38.922,18.789-58.325c2.068-6.294,4.728-12.393,6.809-18.683
	c0.452-1.366,0.164-3.946-0.771-4.648c-7.146-5.361-14.545-10.388-21.854-15.536c-4.399-3.099-8.773-6.234-13.166-9.345
	c-2.143-1.517-4.317-2.986-6.445-4.522c-3.059-2.209-6.061-4.496-9.138-6.679C378.382,43.048,376.191,41.678,374.016,40.237z"/>
<path display="none" fill-rule="evenodd" clip-rule="evenodd" fill="#FF9966" d="M461.091,235.02c0-7.072-0.009-14.146,0.001-21.218
	c0.049-35.146,0.016-70.294,0.24-105.439c0.035-5.476-1.568-9.073-6.63-11.587c-3.939-1.957-7.394-4.906-11.013-7.483
	c-2.332-1.66-3.947-1.483-4.816,1.484c-1.064,3.634-2.092,7.283-3.29,10.873c-3.282,9.83-6.702,19.613-9.964,29.449
	c-4.013,12.104-7.847,24.267-11.91,36.353c-1.869,5.563,2.389,8.759,4.799,12.376c5.221,7.834,10.977,15.326,16.758,22.769
	c7.066,9.098,14.434,17.963,21.545,27.026c1.256,1.602,1.899,3.684,2.825,5.543C460.121,235.118,460.605,235.069,461.091,235.02z"/>
<polygon display="none" fill-rule="evenodd" clip-rule="evenodd" fill="#9C2F00" points="296.45,240.036 321.075,201.055 
	405.457,177.055 446.758,226.641 401.457,201.721 "/>
<polyline display="none" fill-rule="evenodd" clip-rule="evenodd" fill="#FF9966" points="437.29,281.221 438.159,279.612 
	451.79,254.375 451.79,235.166 473.79,258.522 484.29,306.221 436.802,368.721 456.79,295.235 "/>
<path display="none" fill-rule="evenodd" clip-rule="evenodd" fill="#FF9966" d="M190.699,312.694
	c-14.371,10.334-28.724,20.695-43.097,31.027c-3.737,2.686-7.474,5.383-11.352,7.854c-0.647,0.412-2.016-0.307-3.052-0.504
	c0.23-0.904,0.205-2.025,0.746-2.67c1.056-1.258,2.334-2.385,3.687-3.326c5.035-3.507,10.202-6.826,15.202-10.382
	c11.334-8.064,22.607-16.213,33.885-24.355c3.635-2.625,7.205-5.334,11.985-8.881c-6.343-0.666-10.961-1.15-15.579-1.635
	c0.014-0.738,0.027-1.477,0.039-2.215c1.973-0.336,3.955-1.004,5.912-0.938c3.969,0.133,5.266-1.695,4.125-5.201
	c-0.967-2.971-2.057-6.016-3.736-8.611c-1.771-2.74-4.01-5.582-8.141-4.176c-0.652,0.648-1.303,1.297-1.954,1.947
	c2.142,2.643,4.284,5.287,6.562,8.098c-0.533,0.615-0.976,1.332-1.6,1.812c-7.568,5.838-14.953,11.941-22.81,17.363
	c-7.628,5.264-14.864,11.861-25.544,9.779c-4.539-0.887-9.387-0.232-13.904-1.184c-3.764-0.791-7.654-2.328-10.779-4.539
	c-8.211-5.807-16.09-12.092-23.973-18.348c-1.805-1.434-3.09-3.52-5.182-5.969c2.154-0.361,3.247-0.477,4.303-0.74
	c1.355-0.34,3.681-0.59,3.816-1.248c0.299-1.434-0.119-3.396-0.998-4.59c-0.939-1.275-2.809-1.828-4.164-2.842
	c-6.451-4.816-12.84-9.715-19.303-14.514c-2.886-2.145-5.764-4.365-8.91-6.062c-1.307-0.703-3.305-0.129-4.989-0.135
	c0.238,1.467,0.373,2.963,0.754,4.393c0.206,0.77,0.78,1.469,1.275,2.133c7.05,9.463,14.126,18.906,21.171,28.373
	c1.92,2.578,3.546,5.238,0.462,9.023c-3.097-4.516-6.066-8.609-8.771-12.871c-1.906-3-3.932-3.816-6.93-1.533
	c-3.412,2.6-6.86,5.162-10.405,7.572c-2.972,2.021-4.17,4.174-2.844,7.971c4.808,13.766,9.454,27.594,13.843,41.5
	c2.8,8.869,4.665,18.043,7.632,26.85c3.269,9.705,4.911,20.168,12.034,28.283c1.6,1.82,2.848,3.949,4.272,5.924
	c3.583,4.969,7.072,10.01,10.845,14.83c0.152,0.195,0.352,0.367,0.571,0.527h60.482c0.146-0.141,0.285-0.283,0.399-0.436
	c6.825-9.012,13.435-18.195,19.803-27.537c1.119-1.643,1.497-4.496,0.96-6.443c-2.831-10.266-6.214-20.377-9.05-30.641
	c-0.641-2.32-0.709-5.52,0.421-7.467c3.04-5.236,6.859-10.023,10.387-14.976c4.938-6.934,9.893-13.857,14.841-20.785
	c-0.314-0.293-0.63-0.588-0.944-0.881C192.301,311.774,191.445,312.159,190.699,312.694z"/>
<path display="none" fill-rule="evenodd" clip-rule="evenodd" fill="#E14A00" d="M302.576,314.218
	c14.372,10.618,28.725,21.265,43.098,31.879c3.736,2.76,7.474,5.531,11.352,8.07c0.646,0.422,2.016-0.316,3.051-0.518
	c-0.23-0.93-0.205-2.082-0.746-2.744c-1.055-1.291-2.334-2.449-3.686-3.418c-5.035-3.604-10.203-7.013-15.202-10.667
	c-11.335-8.285-22.608-16.659-33.886-25.025c-3.634-2.697-7.205-5.48-11.984-9.125c6.343-0.684,10.961-1.182,15.578-1.68
	c-0.014-0.758-0.026-1.517-0.039-2.275c-1.972-0.346-3.954-1.031-5.912-0.963c-3.968,0.137-5.265-1.742-4.124-5.345
	c0.967-3.054,2.057-6.183,3.735-8.849c1.772-2.814,4.01-5.734,8.142-4.29c0.651,0.666,1.303,1.333,1.954,1.999
	c-2.143,2.717-4.285,5.434-6.562,8.322c0.533,0.631,0.976,1.369,1.599,1.862c7.568,5.997,14.954,12.269,22.811,17.84
	c7.628,5.409,14.863,12.188,25.543,10.048c4.54-0.91,9.387-0.238,13.904-1.215c3.764-0.812,7.655-2.393,10.78-4.664
	c8.211-5.966,16.09-12.424,23.972-18.854c1.805-1.472,3.09-3.615,5.182-6.131c-2.154-0.373-3.246-0.49-4.302-0.762
	c-1.356-0.349-3.681-0.606-3.817-1.281c-0.298-1.474,0.119-3.492,0.998-4.717c0.94-1.311,2.809-1.879,4.165-2.92
	c6.45-4.949,12.839-9.982,19.302-14.914c2.887-2.203,5.764-4.485,8.91-6.229c1.307-0.723,3.305-0.133,4.988-0.139
	c-0.237,1.508-0.373,3.044-0.754,4.514c-0.205,0.791-0.779,1.508-1.275,2.191c-7.05,9.723-14.125,19.426-21.17,29.152
	c-1.92,2.65-3.546,5.383-0.463,9.273c3.098-4.641,6.066-8.846,8.772-13.225c1.905-3.084,3.932-3.924,6.93-1.577
	c3.412,2.671,6.86,5.304,10.405,7.782c2.972,2.076,4.17,4.288,2.844,8.188c-4.809,14.146-9.453,28.354-13.844,42.641
	c-2.799,9.113-4.664,18.539-7.631,27.588c-3.27,9.973-4.912,20.725-12.035,29.062c-1.6,1.871-2.848,4.057-4.271,6.086
	c-3.583,5.105-7.072,10.285-10.845,15.238c-0.152,0.201-0.353,0.377-0.571,0.541h-60.482c-0.146-0.145-0.285-0.291-0.4-0.447
	c-6.824-9.26-13.434-18.695-19.802-28.293c-1.12-1.688-1.497-4.621-0.96-6.621c2.831-10.549,6.213-20.938,9.049-31.484
	c0.641-2.383,0.709-5.67-0.42-7.672c-3.04-5.381-6.859-10.298-10.387-15.388c-4.939-7.125-9.893-14.238-14.841-21.356
	c0.314-0.302,0.63-0.604,0.944-0.905C300.976,313.272,301.83,313.667,302.576,314.218z"/>
<path display="none" fill-rule="evenodd" clip-rule="evenodd" fill="#FF9966" d="M344.129,429.281
	c-0.204,0.707-0.018,1.57,0.643,2.488c7.619,10.578,15.523,20.953,23.931,32.209c8.306-11.805,16.052-22.814,24.413-34.697H344.129z
	"/>
<path display="none" fill-rule="evenodd" clip-rule="evenodd" fill="#FF9966" d="M101.462,424.973
	c-0.204,0.797-0.017,1.768,0.644,2.797c7.619,11.893,15.523,23.555,23.93,36.209c8.307-13.271,16.053-25.646,24.414-39.006H101.462z
	"/>
</svg>
