<?xml version="1.0" encoding="utf-8"?>
<!-- Generator: Adobe Illustrator 16.0.0, SVG Export Plug-In . SVG Version: 6.00 Build 0)  -->
<!DOCTYPE svg PUBLIC "-//W3C//DTD SVG 1.1//EN" "http://www.w3.org/Graphics/SVG/1.1/DTD/svg11.dtd">
<svg version="1.1" id="Layer_1" xmlns="http://www.w3.org/2000/svg" xmlns:xlink="http://www.w3.org/1999/xlink" x="0px" y="0px"
	 width="100px" height="100px" viewBox="0 0 100 100" enable-background="new 0 0 100 100" xml:space="preserve">
<g>
	<g>
		<path fill-rule="evenodd" clip-rule="evenodd" fill="#AA2626" d="M56.859,1.036c-1.469,14.173-2.76,28.367-4.513,42.504
			c-0.515,4.144,0.426,4.549,4.249,4.004C71.033,45.483,85.527,43.815,100,42c0,5,0,10,0,15c-14.536-1.66-29.078-3.27-43.604-5.02
			c-3.349-0.404-4.125,0.398-3.65,3.924c1.926,14.326,3.463,28.706,5.143,43.066c-4.195,1.072-8.458,0.317-12.688,0.447
			c-0.977,0.029-1.478-0.535-1.319-1.562c1.429-14.054,2.728-28.123,4.379-42.151c0.403-3.424-0.459-3.859-3.551-3.444
			c-14.491,1.944-29.01,3.689-43.519,5.506c-1.088-4.846-1.078-9.691-0.007-14.538c14.061,1.535,28.135,2.959,42.174,4.675
			c4.073,0.498,5.09-0.623,4.551-4.645c-1.836-13.687-3.373-27.412-5.024-41.123c-0.156-1.025,0.349-1.585,1.322-1.554
			C48.425,0.717,52.676-0.051,56.859,1.036z"/>
		<path fill-rule="evenodd" clip-rule="evenodd" fill="#BB5151" d="M56.859,1.036c-4.648,0.502-9.474-1.275-13.974,1.099
			C42.59,1.423,42.295,0.712,42,0c5,0,10,0,15,0C56.953,0.346,56.906,0.69,56.859,1.036z"/>
		<path fill-rule="evenodd" clip-rule="evenodd" fill="#BB5151" d="M43.882,97.855c4.508,2.396,9.35,0.597,14.007,1.115
			C57.926,99.313,57.963,99.657,58,100c-5,0-10,0-15,0C43.294,99.285,43.588,98.57,43.882,97.855z"/>
		<path fill-rule="evenodd" clip-rule="evenodd" fill="#D79B9B" d="M1.185,43.228c0.002,4.846,0.004,9.692,0.007,14.538
			C0.794,57.844,0.397,57.922,0,58c0-5,0-10,0-15C0.395,43.076,0.79,43.151,1.185,43.228z"/>
	</g>
</g>
</svg>
