<?xml version="1.0" encoding="utf-8"?>
<!-- Generator: Adobe Illustrator 16.0.0, SVG Export Plug-In . SVG Version: 6.00 Build 0)  -->
<!DOCTYPE svg PUBLIC "-//W3C//DTD SVG 1.1//EN" "http://www.w3.org/Graphics/SVG/1.1/DTD/svg11.dtd">
<svg version="1.1" id="Layer_1" xmlns="http://www.w3.org/2000/svg" xmlns:xlink="http://www.w3.org/1999/xlink" x="0px" y="0px"
	 width="97.061px" height="70.547px" viewBox="0 0 97.061 70.547" enable-background="new 0 0 97.061 70.547" xml:space="preserve">
<g>
	<g>
		<path fill-rule="evenodd" clip-rule="evenodd" fill="#AB2525" d="M84.11,36.439c3.308,5.124,6.453,10.329,3.125,15.979
			c-3.484,5.917-10.062,6.688-15.959,5.729c-5.194-0.846-7.271,0.73-9.697,5.003c-5.141,9.053-12.969,9.886-21.501,2.006
			c-3.803-3.512-6.726-3.826-11.22-2.109c-4.773,1.823-9.854,2.882-15.15,1.456c-7.63-2.053-11.62-7.462-10.365-15.158
			c0.405-2.485,0.156-4.209-1.362-6.348c-4.071-5.739-1.624-12.845,5.116-15.64c2.425-1.006,2.958-1.873,1.042-4.169
			c-3.925-4.703-3.033-8.728,2.294-11.828c0.844-0.49,1.735-0.731,2.398-1.616c6.046-8.064,12.792-9.636,21.445-4.759
			c2.282,1.286,3.496,1.561,5.682-0.519c6.427-6.111,14.431-5.901,20.845,0.331c1.285,1.249,1.929,1.082,3.301,0.609
			c7.179-2.47,12.024-1.103,16.528,5.067c1.5,2.055,3.059,3.143,5.487,3.573c7.735,1.374,10.51,3.708,10.888,8.837
			c0.479,6.501-2.293,10.07-9.626,12.412C86.442,35.597,85.516,35.947,84.11,36.439z"/>
		<path fill-rule="evenodd" clip-rule="evenodd" fill="#FEFEFE" d="M60.227,11.294c9.561-6.461,12.791-5.933,19.543,3.464
			c2.025,2.819,5.103,1.72,7.664,2.371c5.953,1.513,8.091,4.797,6.049,10.152c-0.871,2.281-2.3,3.881-4.859,4.527
			c-3.501,0.884-6.92,2.092-11.003,3.354c3.659,3.006,6.694,5.887,7.613,10.331c0.889,4.3-0.48,7.192-4.63,8.603
			c-4.675,1.589-9.485,2.123-14.164,0.281c-2.626-1.034-3.935-0.549-4.611,2.146c-0.238,0.949-0.793,1.826-1.252,2.711
			c-4.891,9.42-10.906,11.151-18.375,3.709c-4.83-4.812-8.67-5.442-14.382-2.706c-3.56,1.705-7.649,2.324-11.705,1.747
			c-7.584-1.08-11.014-5.811-9.657-13.363c0.469-2.609,0.867-4.57-1.625-6.979c-4.064-3.93-1.447-10.8,4.233-11.419
			c4.272-0.467,2.581-4.351,4.402-6.263c1.642-1.724-1.666-1.516-2.601-2.294c-3.019-2.517-2.923-5.684,0.763-7.479
			c2.02-0.983,3.307-2.131,4.423-4.176c3.117-5.707,12.503-6.525,18.449-1.346c2.673,2.329,4.062,2.511,5.798-0.493
			c0.322-0.558,0.898-0.978,1.387-1.429C48.688,0.267,57.368,2.398,60.227,11.294z"/>
	</g>
</g>
</svg>
