<?xml version="1.0" encoding="utf-8"?>
<!-- Generator: Adobe Illustrator 16.0.0, SVG Export Plug-In . SVG Version: 6.00 Build 0)  -->
<!DOCTYPE svg PUBLIC "-//W3C//DTD SVG 1.1//EN" "http://www.w3.org/Graphics/SVG/1.1/DTD/svg11.dtd">
<svg version="1.1" id="Layer_1" xmlns="http://www.w3.org/2000/svg" xmlns:xlink="http://www.w3.org/1999/xlink" x="0px" y="0px"
	 width="248px" height="248px" viewBox="0 0 248 248" enable-background="new 0 0 248 248" xml:space="preserve">
<g>
	<g>
		<path fill-rule="evenodd" clip-rule="evenodd" fill="#AA2626" d="M89.297,79.268c9.872,0,19.743,0.043,29.613-0.021
			c4.347-0.027,7.153,0.871,4.874,6.121c-0.5,1.15-0.414,2.573-0.513,3.876c-0.269,3.561-0.988,5.291-5.515,3.844
			c-12.986-4.149-26.175-7.667-39.311-11.337c-1.487-0.416-2.761-0.363-2.794,2.161c-0.179,13.615-0.534,27.229-1.046,40.836
			c-0.12,3.186-0.371,6.068-5.657,4.434c-9.963-3.081-9.761-2.512-6.545-12.445c3.526-10.888,6.357-22,9.43-33.033
			c0.591-2.121-0.179-2.937-2.614-2.98c-13.619-0.247-27.234-0.691-40.85-1.117c-3.083-0.097-5.391-0.964-3.64-4.809
			c0.08-0.173,0.206-0.334,0.247-0.516c2.325-10.392,2.218-10.064,12.396-6.739c10.863,3.548,21.949,6.415,32.954,9.522
			c1.945,0.55,2.539-0.298,2.584-2.383c0.286-13.213,0.714-26.423,1.175-39.631c0.129-3.679,0.021-7.833,5.914-4.957
			c1.095,0.534,2.693-0.075,3.959,0.243c3.077,0.774,5.516,0.879,3.732,6.052c-4.403,12.768-7.434,26.007-11.062,39.045
			c-0.529,1.903-0.329,2.819,1.993,2.712c3.554-0.165,7.122-0.044,10.684-0.044C89.303,78.492,89.3,78.879,89.297,79.268z"/>
	</g>
</g>
<g>
	<path fill-rule="evenodd" clip-rule="evenodd" fill="#E4E2D0" d="M75.825,235.292c-0.365-0.018-0.73-0.035-1.095-0.053
		c-6.479-2.139-12.17-5.807-17.972-9.26c-4.583-2.794-7.915-7.129-12.392-10.055c-4.298-4.27-8.629-8.509-12.348-13.316
		c-5.657-7.376-10.809-15.069-14.801-23.495c-2.337-4.883-4.335-9.903-6.217-14.975c-0.518-2.177-1.511-4.296-0.833-6.62
		c1.766-2.662,3.885-2.592,6.383-0.978c4.586,2.964,4.847,2.836,6.866-2.768c-1.816,0.161-3.9,0.55-4.461-1.708
		c-0.862-3.464-3.327-5.602-5.81-7.865c-2.817-2.569-2.387-4.505,1.018-5.911c5.797-2.395,7.075-1.804,9.809,3.889
		c2.289,4.765,6.844,6.944,11.268,9.428c-1.917-13.577,0.747-17.455,9.821-14.523c2.256,7.969,4.531,15.931,6.757,23.908
		c2.012,7.21,4.535,14.275,8.165,20.813c8.088,14.568,19.228,26.127,34.379,33.506c7.925,3.423,15.787,7.006,24.203,9.137
		c11.857,1.552,23.697,2.726,35.412-0.892c7.555-1.216,14.764-3.36,21.037-7.967c15.512-9.398,23.457-23.98,28.01-40.889
		c1.554-5.23,2.073-10.644,2.877-16.008c0.314-1.016,0.813-1.92,1.596-2.651c3.135-0.867,6.431-1.033,9.266-3.116
		c1.788-1.312,3.942-0.257,5.532,1.013c2.573,2.056,5.005,2.85,8.173,1.036c2.357-1.349,4.842-0.807,6.779,1.319
		c1.15,4.042-1.146,7.43-2.316,10.942c-1.779,5.336-4.168,10.465-6.479,15.601c-2.405,4.693-5.404,8.991-8.756,13.054
		c-3.596,6.445-9.55,10.736-14.529,15.928c-15.478,13.571-32.989,23.648-53.049,28.26c-21.272,4.891-42.733,4.661-63.967-1.105
		C84.011,237.846,79.633,237.533,75.825,235.292z"/>
	<path fill-rule="evenodd" clip-rule="evenodd" fill="#AB2C2C" d="M75.825,235.292c10.296,1.201,19.974,5.137,30.413,6.119
		c23.103,2.175,45.526,0.383,66.667-9.632c11.671-5.529,22.735-12.279,32.114-21.4c1.307-0.894,1.994-0.669,1.869,1.031
		c-5.537,6.883-13.082,11.176-20.496,15.535c-11.617,6.832-23.725,12.91-37.072,15.256c-16.225,2.851-32.651,3.756-49.012,0.655
		c-6.657-1.262-13.231-2.957-19.841-4.467C78.534,237.949,76.569,237.528,75.825,235.292z"/>
	<path fill-rule="evenodd" clip-rule="evenodd" fill="#AB2F2F" d="M227.676,183.052c3.001-8.939,7.514-17.354,9.278-26.724
		c-0.506-1.448-0.579-2.931-0.241-4.413c5.623-24.68,3.211-49.017-3.112-73.189c0.138-1.688-0.493-3.728,1.956-4.382
		c4.945,12.573,6.568,25.745,7.715,39.115c1.363,15.913-0.527,31.455-4.653,46.657c-2.299,8.47-4.947,17.115-10.817,24.138
		c-0.266-0.242-0.373-0.501-0.321-0.777C227.532,183.194,227.598,183.052,227.676,183.052z"/>
	<path fill-rule="evenodd" clip-rule="evenodd" fill="#AC2E2E" d="M47.782,33.245c13.685-11.883,28.987-20.597,47.002-24
		c0.31,0.447,0.349,0.917,0.123,1.411c-3.254,3.014-7.457,4.262-11.46,5.625C72.95,19.854,64.034,26.116,54.983,32.2
		c-1.888,1.27-3.553,3.078-6.167,2.725C48.064,34.615,47.474,34.205,47.782,33.245z"/>
	<path fill-rule="evenodd" clip-rule="evenodd" fill="#AB3534" d="M109.859,5.494c9.616-2.475,19.355-4.077,29.309-3.293
		c10.994,0.865,22.072,1.35,32.598,5.203c0.1,1.155-0.732,1.519-1.58,1.873c-1.631,0.48-3.322,0.495-4.913,0.049
		c-9.177-2.569-18.702-2.201-28.032-3.445c-7.221-0.963-14.116,1.455-21.203,1.861C113.9,7.214,111.066,8.574,109.859,5.494z"/>
	<path fill-rule="evenodd" clip-rule="evenodd" fill="#AC3636" d="M235.557,74.344c-1.167,1.145-0.582,2.638-0.793,3.974
		c-3.219-1.022-2.786-4.336-4.122-6.542c-5.086-11.977-10.479-23.781-18.758-33.999c-1.024-1.265-2.329-2.376-2.565-4.141
		c0.093-0.804,0.37-1.417,1.35-1.303C223.096,43.889,229.367,59.092,235.557,74.344z"/>
	<path fill-rule="evenodd" clip-rule="evenodd" fill="#AE4B4A" d="M5.698,144.462c-3.46-13.161-3.687-26.333-0.129-39.517
		c0.942,0.224,1.548,0.823,1.908,1.699c0.278,8.263-1.065,16.498-0.286,24.793c0.352,3.743,1.767,7.503,0.437,11.331
		C7.253,143.64,6.629,144.227,5.698,144.462z"/>
	<path fill-rule="evenodd" clip-rule="evenodd" fill="#AF4342" d="M47.782,33.245c0.392,0.375,0.783,0.751,1.175,1.127
		c-0.115,3.494-2.993,5.167-5.177,6.932c-5.502,4.444-10.004,9.718-14.298,15.254c-1.405,1.811-2.902,3.701-5.378,4.25
		c-0.496-0.025-0.931-0.202-1.305-0.527C29.655,49.908,38.074,40.981,47.782,33.245z"/>
	<path fill-rule="evenodd" clip-rule="evenodd" fill="#AD3D3D" d="M170.467,8.476c0.434-0.357,0.866-0.715,1.299-1.072
		c9.273,2.447,17.312,7.393,25.283,12.479c0.417,0.926-0.091,1.432-0.83,1.833c-2.314,0.448-4.113-0.891-5.978-1.843
		c-5.983-3.055-11.47-7.054-17.859-9.346C171.457,10.195,170.629,9.603,170.467,8.476z"/>
	<path fill-rule="evenodd" clip-rule="evenodd" fill="#AB3939" d="M6.679,106.259c-0.37-0.438-0.74-0.876-1.11-1.313
		c-0.118-8.773,2.398-16.889,6.175-24.688c0.559-0.332,1.045-0.249,1.463,0.249c0.821,1.381,0.683,2.843,0.277,4.286
		c-1.771,6.286-4.569,12.308-4.707,19.014C8.754,104.966,7.952,105.93,6.679,106.259z"/>
	<path fill-rule="evenodd" clip-rule="evenodd" fill="#B46463" d="M18.058,178.95c4.268,8.187,9.175,15.971,14.659,23.395
		c-0.183,0.447-0.489,0.775-0.937,0.967c-6.213-6.885-10.91-14.759-15.016-23.018C17.167,179.818,17.291,179.075,18.058,178.95z"/>
	<path fill-rule="evenodd" clip-rule="evenodd" fill="#AD3D3D" d="M5.698,144.462c0.342-0.39,0.685-0.779,1.027-1.17
		c3.442,4.103,4.109,8.964,3.851,14.078c0.434,2.264,0.868,4.527,1.303,6.792c0.434,1.075,0.844,2.139-1.02,2.098
		C6.914,159.521,7.126,151.797,5.698,144.462z"/>
	<path fill-rule="evenodd" clip-rule="evenodd" fill="#AF4140" d="M13.132,80.369c-0.462-0.037-0.925-0.074-1.388-0.11
		c2.428-7.355,6.264-13.931,11.055-19.979c0.479,0.051,0.959,0.101,1.438,0.15c0.659,1.777-0.312,3.223-1.039,4.667
		c-2.364,4.703-5.857,8.773-7.719,13.773C15.135,79.796,14.273,80.431,13.132,80.369z"/>
	<path fill-rule="evenodd" clip-rule="evenodd" fill="#AD3E3E" d="M57.051,225.078c5.893,3.388,11.786,6.774,17.679,10.162
		c-7.303-0.88-13.455-4.211-18.964-8.909C55.597,225.3,55.889,224.742,57.051,225.078z"/>
	<path fill-rule="evenodd" clip-rule="evenodd" fill="#B25857" d="M195.811,21.274c0.413-0.464,0.825-0.928,1.238-1.392
		c4.584,4.101,10.003,7.29,13.619,12.451c-0.291,0.319-0.582,0.639-0.873,0.958C203.836,30.796,199.072,26.91,195.811,21.274z"/>
	<path fill-rule="evenodd" clip-rule="evenodd" fill="#B15756" d="M206.889,211.411c-0.332-0.871-1.055-1.033-1.869-1.031
		c5.05-4.615,10.397-8.958,13.787-15.09c0.972,1.181,0.396,2.389,0.062,3.593C215.277,203.442,211.538,207.862,206.889,211.411z"/>
	<path fill-rule="evenodd" clip-rule="evenodd" fill="#AF3D3D" d="M218.869,198.882c-0.021-1.197-0.041-2.396-0.062-3.593
		c2.793-4.197,6.604-7.657,8.869-12.237c0.041,0.4,0.083,0.802,0.125,1.202C226.72,190.289,222.637,194.489,218.869,198.882z"/>
	<path fill-rule="evenodd" clip-rule="evenodd" fill="#AC3535" d="M31.779,203.311c0.312-0.322,0.625-0.645,0.937-0.967
		c4.031,4.304,8.062,8.607,12.093,12.912c0.147,1.008-0.106,1.603-1.284,1.243C38.891,212.743,34.724,208.572,31.779,203.311z"/>
	<path fill-rule="evenodd" clip-rule="evenodd" fill="#AC3E3E" d="M109.859,5.494c1.848,1.437,4.033,0.446,6.026,0.839
		c0.018,0.968-0.56,1.669-1.386,1.769c-6.037,0.729-11.937,2.314-18.003,2.827c-0.676,0.057-1.258-0.305-1.722-0.811
		c-0.012-0.292-0.009-0.583,0.011-0.873C99.356,6.172,104.828,6.719,109.859,5.494z"/>
	<path fill-rule="evenodd" clip-rule="evenodd" fill="#B34E4D" d="M10.858,166.26c0.851-0.451,0.905-1.289,1.019-2.098
		c2.06,4.929,4.12,9.858,6.18,14.788c-0.431,0.447-0.862,0.895-1.293,1.343C14.207,175.863,12.133,171.23,10.858,166.26z"/>
	<path fill-rule="evenodd" clip-rule="evenodd" fill="#B26160" d="M43.525,216.5c0.428-0.415,0.856-0.829,1.284-1.243
		c4.081,3.273,8.161,6.548,12.242,9.821c-0.428,0.418-0.856,0.835-1.285,1.253C50.935,223.988,48.122,219.133,43.525,216.5z"/>
	<path fill-rule="evenodd" clip-rule="evenodd" fill="#D8D5BF" d="M94.773,10.118c7.037-1.262,14.074-2.523,21.112-3.785
		c18.375-3.875,36.492-1.194,54.583,2.144c9.068,3.036,16.819,8.684,25.343,12.798c4.662,4.006,9.323,8.012,13.984,12.018
		c9.803,11.203,16.442,24.225,21.83,37.967c-5.213,3.002-10.576,3.362-16.147,1.036c-6.411-2.678-7.311-7.627-2.303-12.719
		c0.894-0.909,2.457-1.055,3.219-3.632c-8.226,5.435-15.88,10.57-25.567,6.918c-2.919-0.612-3.794-3.537-5.84-5.144
		c-5.178-7.385-11.154-14.085-18.474-19.343c-10.329-7.42-21.673-12.79-34.29-15.161c-14.117-3.366-27.97-2.475-41.522,2.659
		c-7.974,3.021-15.386,7.043-21.808,12.757c-7.775,6.917-12.966,15.691-16.504,25.197c-5.049,13.563-8.387,27.624-8.204,42.287
		c0.288,7.584-0.594,15.189,0.554,22.744c0.003,2.812,2.015,5.638-0.035,8.44c-8.819-1.246-11.281,3.361-8.626,11.457
		c0.529,1.614,2.787,3.407,1,4.902c-2.126,1.779-2.735-1.523-4.239-2.124c-3.323-1.328-6.007-3.497-8.359-6.111
		c-0.767-0.853-1.531-1.799-1.968-2.84c-1.827-4.355-4.858-5.406-9.109-2.964c-1.893,1.088-1.556,2.253-0.006,3.443
		c2.988,2.297,5.662,4.417,6.766,8.677c1.07,4.132,2.938-0.9,4.848-0.647c0.526,2.545-0.61,5.009-1.592,6.99
		c-1.396,2.816-4.437,3.255-6.506,0.592c-1.971-2.537-3.815-2.836-6.335-1.305c-1.284-4.692-2.567-9.385-3.851-14.077
		c-0.275-9.396-2.239-18.731-0.995-28.187c0.387-2.939,0.637-5.897,0.95-8.847c0.869-8.95,4.279-17.267,6.452-25.892
		c3.702-6.646,7.403-13.292,11.105-19.938c7.63-9.266,16.094-17.74,24.721-26.059c6.258-4.003,12.559-7.941,18.765-12.024
		C76.101,16.835,85.973,14.67,94.773,10.118z"/>
	<path fill-rule="evenodd" clip-rule="evenodd" fill="#AA2323" d="M44.703,137.299c-0.32-2.648-0.639-5.297-0.959-7.945
		c-0.614-4.047-0.888-8.09,0.136-12.115c2.702,0.213,3.04,2.436,3.027,4.276c-0.041,5.885,1.301,11.521,2.875,17.484
		c0.249-1.878,0.208-3.693,1.454-5.022c1.537-1.638,1.817-3.449,0.861-5.499c-1.326-2.842-0.163-4.817,2.354-6.188
		c2.162-1.176,2.809-3.053,2.974-5.366c0.557-7.788,1.272-15.558,1.061-23.389c-0.109-4.021-0.452-7.889-1.846-11.733
		c-2.018-5.565-0.334-10.699,3.642-14.647c3.933-3.904,8.958-3.834,13.992-1.894c5.328,2.054,7.627,6.117,7.83,11.604
		c0.117,3.172,0.161,6.328-1.595,9.189c-1.112,1.811-0.908,3.777-0.729,5.806c0.728,8.271,2.078,16.478,2.551,25.408
		c4.116-3.775,8.027-7.21,13.368-8.263c1.719-0.339,1.598-1.818,1.19-3.234c-0.513-1.777-1.403-3.358-2.267-4.976
		c-0.904-1.693-1.339-3.465,0.637-4.847c1.963-0.374,2.515,1.436,3.652,2.341c3.771,3.288,4.092,8.194,5.622,12.475
		c1.817,5.081,3.898,6.394,8.967,4.598c1.432-0.507,2.522-1.567,3.854-2.229c0.757-0.261,1.369-0.052,1.848,0.576
		c0.948,1.592-0.485,3.534,0.752,5.089c0.831,1.4,1.163,2.971,1.583,4.517c0.096,0.476,0.119,0.952,0.087,1.435
		c-0.191,1.025-0.634,1.823-1.786,1.977c-0.689-0.078-1.368-0.341-1.645-0.96c-1.917-4.28-4.887-5.711-9.591-4.476
		c-3.273,0.86-6.654-0.344-7.95-3.626c-1.748-4.428-4.494-3.45-7.562-2.252c-5.137,2.007-5.232,3.144-4.077,8.506
		c0.748,3.471-0.201,7.243,0.094,10.95c0.491,6.18,2.641,9.718,8.397,11.668c2.456,0.833,4.732,2.21,5.72,4.504
		c1.848,4.293,5.227,6.165,9.413,7.172c1.275,0.322,1.55,2.02,2.966,2.117c1.245-0.669,2.261-2.006,3.946-1.322
		c0.646,0.453,0.947,1.097,1.068,1.853c-0.66,4.128,0.241,8.513-2.049,12.368c-0.673,0.84-1.482,1.413-2.624,1.307
		c-2.041-2.126-1.348-4.468-0.688-6.549c-1.514,3.134-3.146,6.552-3.019,10.49c-1.081,2.116-0.878,4.642-2.118,6.708
		c-3.143,0.174-1.402-2.596-2.298-3.553c0.145,1.786,0.994,3.847-0.286,5.801c-2.475,4.691-4.408,9.568-5.103,14.873
		c-0.022,0.485-0.119,0.951-0.277,1.408c-2.379,3.737-3.121,8.125-4.818,12.137c-1.03,1.092-2.166,1.255-3.417,0.39
		c-18.594-8.719-31.118-23.043-38.64-41.947C50.517,162.32,46.744,150.055,44.703,137.299z"/>
	<path fill-rule="evenodd" clip-rule="evenodd" fill="#DEDCC8" d="M190.645,62.58c0.454-0.763,1.162-1.479,1.996-1.098
		c7.799,3.562,13.76-0.007,19.368-4.912c1.079-0.944,2.237-1.357,3.626-1.286c1.297,0.065,3-0.306,3.42,1.278
		c0.379,1.432-1.268,1.93-2.256,2.15c-4.041,0.898-4.16,4.764-5.712,7.448c-1.028,1.778,0.442,2.954,2.07,3.829
		c5.399,2.904,10.881,3.478,16.604,1.002c0.49-0.212,1.236,0.164,1.863,0.267c1.046,2.354,2.093,4.706,3.139,7.06
		c7.152,25.823,9.51,51.781,2.19,78.011c-2.71-0.761-5.276-1.655-7.88,0.715c-2.213,2.014-4.331,0.502-6.129-1.139
		c-2.59-2.363-5.131-3.764-8.025-0.366c-2.033,2.388-4.634,0.74-6.996,0.751c-1.378-1.109-1.338-2.632-1.232-4.176
		c1.374-5.469,0.466-11.041,0.713-16.561c-0.16-3.354,0.513-6.758-0.616-10.053c-1.139-3.471-1.521-7.036-1.351-10.67
		c0.036-1.585-0.047-3.158-0.561-4.682c-2.506-14.224-5.742-28.213-12.578-41.123C191.262,67.068,189.543,65.146,190.645,62.58z"/>
	<path fill-rule="evenodd" clip-rule="evenodd" fill="#AA2525" d="M203.869,175.407c-4.406,17.014-12.098,31.778-28.029,40.892
		c-0.865,0.505-1.232-0.061-1.56-0.72c-0.2-1.99-0.056-4.062-1.353-5.801c-0.678-0.991-1.528-1.878-1.83-3.092
		c-0.148-0.778-0.117-1.551,0.019-2.326c0.44-5.635,0.717-11.262-0.237-16.87c-0.563-4.762-1.222-9.51-2.253-14.196
		c-0.12-0.507-0.204-1.021-0.277-1.536c-0.122-3.297-3.547-5.894-2.041-9.543c0.631-0.935,1.472-1.479,2.638-1.412
		c1.878,0.565,2.339,2.276,2.84,3.809c1.033,3.153,3.427,4.161,6.391,4.703c2.388,0.438,3.187-0.238,3.394-2.716
		c0.647-7.745,8.623-13.149,16.281-11.253c4.13,1.022,6.849,6.127,5.585,10.75c-0.474,1.73-1.648,3.328-0.459,5.179
		C203.432,172.617,204.865,173.753,203.869,175.407z"/>
	<path fill-rule="evenodd" clip-rule="evenodd" fill="#AA3636" d="M93.921,216.24c1.149-0.027,2.355,0.089,3.015-1.185
		c0.304-0.131,0.634-0.335,0.937-0.284c3.928,0.656,6.093-0.622,5.625-4.966c-0.048-0.448,0.302-0.929,0.484-1.393
		c0.848-2.16,0.369-4.41,0.463-6.622c0.047-3.345,0.047-6.697,2.182-9.561c2.909,0.254,2.154,2.619,2.515,4.342
		c-0.048,6.353-0.106,12.713-0.458,19.055c1.125,2.33,2.722,4.026,5.341,4.803c2.12,0.629,2.672-0.458,3.014-2.104
		c0.373-1.125,0.701-2.271,1.553-3.155c0.45-0.21,0.907-0.211,1.369-0.036c1.464,1.588,1.672,3.457,1.264,5.338
		c-0.273,0.764,1.009,0.024,0.348,0.114c0.308-3.589,4.309-5.757,3.71-9.686c-0.43-1.806-2.312-3.053-1.986-5.154
		c0.993-2.279,2.832-2.957,5.152-2.727c1.656,1.081,1.557,2.832,1.725,4.484c0.527,6.182-1.952,11.69-3.872,17.33
		c-2.782,1.663-5.697,0.991-8.604,0.492C109.423,223.208,101.576,219.977,93.921,216.24z"/>
	<path fill-rule="evenodd" clip-rule="evenodd" fill="#AA4444" d="M117.696,225.326c2.716-0.64,5.817,1.157,8.247-1.303
		c3.814-0.869,7.59-1.434,11.588-1.059c4.52,0.425,8.957-1.147,13.442-1.714c2.272-0.286,4.103-0.631,5.921,0.873
		c0.607,1.87-1.704,1.29-2.01,2.396c-9.08,3.651-18.549,3.454-27.941,2.188C123.887,226.293,120.576,227.006,117.696,225.326z"/>
	<path fill-rule="evenodd" clip-rule="evenodd" fill="#AA4242" d="M154.885,224.519c0.639-0.719,1.277-1.438,1.917-2.156
		c0.574-1.282,1.755-1.953,2.784-2.782c1.873-1.384,4.404,0.043,6.246-1.48c2.289-1.133,3.248-3.131,3.877-5.487
		c0.498-1.865,0.461-4.017,2.25-5.361c0.613,0.683,1.227,1.365,1.84,2.048c0.438,1.877-0.566,3.969,0.846,5.701
		c0.398,0.433,0.797,0.865,1.195,1.298C169.727,221.261,162.559,223.534,154.885,224.519z"/>
	<path fill-rule="evenodd" clip-rule="evenodd" fill="#AB5B5B" d="M203.869,175.407c0.096-1.577-1.676-2.01-2.027-3.312
		c0.822-5.304,1.994-10.56,1.764-15.992c-0.055-1.273,0.348-2.66,1.988-3.02c1.505,1.542,1.852,3.361,1.292,5.397
		C206.93,164.309,205.773,169.924,203.869,175.407z"/>
	<path fill-rule="evenodd" clip-rule="evenodd" fill="#AC4F4F" d="M206.886,158.48c-0.357-1.721-0.715-3.441-1.072-5.161
		c-0.511-0.448-1.026-0.986-1.063-1.641c-0.489-8.406-1.709-16.837,0.715-25.16c3.172-0.376,2.225,2.156,2.258,3.562
		c0.174,7.394,0.048,14.791,0.056,22.187c0.048,1.341,0.097,2.682,0.146,4.022C207.578,157.02,207.232,157.75,206.886,158.48z"/>
	<path fill-rule="evenodd" clip-rule="evenodd" fill="#AB2D2D" d="M42.784,105.285c1.034-22.825,5.396-44.918,20.689-62.633
		c13.941-16.149,32.658-23.275,54.134-22.374c5.101,0.214,10.376-0.583,15.183,1.995c0.105,2.058-1.57,1.883-2.812,2.261
		c-6.966,1.027-13.805-1.278-20.886-0.438c-7.29,0.865-13.908,3.222-20.433,6.152c-12.902,5.794-24.105,13.825-30.46,26.815
		c-5.046,10.315-8.701,21.229-10.104,32.776c-0.539,4.438-0.699,8.979-2.395,13.224C45.003,104.163,44.573,105.622,42.784,105.285z"
		/>
	<path fill-rule="evenodd" clip-rule="evenodd" fill="#AB3C3C" d="M190.645,62.58c7.043,13.086,11.824,26.967,14.549,41.562
		c0.363,1.949,0.486,3.943,0.72,5.917c0.499,1.134,0.536,2.114-0.866,2.617c-2.552-0.298-2.246-2.484-2.695-4.138
		c-2.738-10.065-4.908-20.292-8.51-30.112c-1.891-5.154-4.215-10.083-7.642-14.435c-1.13-1.435-2.136-2.969-2.196-4.907
		c0.221-1.103,0.374-2.278,1.995-1.926C187.547,58.965,189.096,60.773,190.645,62.58z"/>
	<path fill-rule="evenodd" clip-rule="evenodd" fill="#AC4948" d="M185.999,57.158c-0.952,0.4-1.161,1.219-1.202,2.133
		c-1.506,0.368-2.084-0.814-2.689-1.739c-11.463-17.523-28.73-26.182-48.122-31.653c-1.611-0.455-3.872-0.031-4.376-2.514
		c1.096-0.269,2.408,0.086,3.18-1.111c9.532,1.186,17.936,5.428,26.238,9.851C170.205,38.078,178.951,46.719,185.999,57.158z"/>
	<path fill-rule="evenodd" clip-rule="evenodd" fill="#B04140" d="M42.784,105.285c0.646-0.671,1.292-1.343,1.939-2.014
		c2.531,4.654,2.424,9.324,0.083,14.007c-2.117,3.87-0.401,8.078-1.062,12.076C41.987,121.388,42.925,113.315,42.784,105.285z"/>
	<path fill-rule="evenodd" clip-rule="evenodd" fill="#E1DFCC" d="M112.746,159.246c-4.569-0.85-8.677-1.975-10.351-7.343
		c-0.757-2.428-3.449-3.98-6.143-4.682c-5.361-1.397-9.256-7.366-8.176-13.011c0.264-1.38-0.294-2.078-0.822-3.108
		c-1.644-3.21,2.801-7.333-2.106-10.722c-1.314-0.907,11.245-9.067,14.701-7.572c0.926,0.4,1.128,1.092,1.16,1.958
		c0.191,5.209,3.903,6.269,7.643,5.136c6.453-1.956,9.103,1.318,11.039,6.436c2.294,3.161,2.643,6.541,0.983,10.059
		c-1.111,2.354-1.913,4.828-2.98,7.195c-1.663,3.069-2.259,6.417-2.724,9.831C114.686,155.498,114.412,157.66,112.746,159.246z"/>
	<path fill-rule="evenodd" clip-rule="evenodd" fill="#AA3737" d="M116.647,143.037c2.148-5.36,5.199-10.556,3.042-16.699
		c0.945-0.474,1.063-1.396,1.245-2.286c1.818,0.27,1.536,1.771,1.794,2.943c0.191-1.255-0.544-2.349-0.788-3.543
		c-0.162-0.793,0.003-1.616-0.259-2.396c0.497,0.444-0.159-0.148-0.041,0.191c0.264,0.761-0.188,1.572-0.958,2.057
		c-1.55-0.937-0.271-3.219-1.949-4.095c-0.083-2.607,1.211-4.989,1.066-7.674c-0.099-1.845,1.081-3.113,3.241-1.87
		c2.146,1.903,2.612,4.521,2.946,7.167c0.497,3.946,1.013,7.895,2.003,11.746c1.662,6.46,3.746,8.159,10.379,8.386
		c1.766,0.061,3.547,0.849,5.348,0.142c0.277-2.008-1.248-3.466-1.359-5.292c0.004-1.085,0.441-1.963,1.268-2.656
		c1.604-0.355,2.273,0.92,3.176,1.801c1.898,2.035,2.38,4.521,2.283,7.191c-0.907,2.546,1.127,6.128-2.67,7.67
		c-2.175-0.321-2.748-3.024-4.938-3.314c-1.068-0.208-1.839-0.13-2.047,1.259c-0.271,1.819-1.325,2.527-3.093,1.69
		c-0.09-0.09-0.233-0.188-0.321-0.323c-0.083-0.13-0.107-0.297-0.158-0.447c0.061,3.997-3.66,6.753-3.539,10.801
		c0.021,0.769-0.779,1.571-0.66,2.355c1.475,9.73-2.549,19.543,0.632,29.318c0.819,2.52-0.186,5.56-0.63,8.342
		c-0.723,2.306-0.478,4.671-0.463,7.023c-0.305,1.85,0.334,4.158-2.337,4.864c-0.2-1.38,0.32-2.902-0.808-4.101
		c-1.259-4.423-1.016-8.913-0.613-13.408c-0.08-2.104,1.112-4.644-1.99-5.701c-0.549-0.835-0.58-1.75-0.439-2.695
		c0.254-1.127,0.499-2.256,0.486-3.423c-0.034-3.186-0.277-6.34-2.316-8.976c-1.165-1.504-0.389-2.609,0.202-4.054
		c1.685-4.123,0.761-5.214-3.471-4.538c-0.369-0.403-0.738-0.807-1.106-1.21c-0.591-1.829,0.614-3.383,1.393-4.574
		c1.889-2.888,4.523-5.281,1.339-8.945c-0.716-0.824,0.602-1.658,1.225-2.416c1.561-1.895,2.801-3.947,2.355-6.819
		c-3.967,1.753-3.268,7.349-7.697,8.166C116.644,144.381,116.2,143.916,116.647,143.037z"/>
	<path fill-rule="evenodd" clip-rule="evenodd" fill="#E2E0CF" d="M119.911,160.493c1.319-0.945,2.436-2.243,4.656-2.479
		c-0.271,3.008,3.171,6.159-1.022,8.854c-0.385,0.247-0.533,0.861,0.043,1.168c4.367,2.326,2.579,6.498,3.026,9.998
		c-1.241,0.924-0.864,2.127-0.57,3.314c-0.069,0.962-0.139,1.924-0.208,2.886c-1.192,4.32-0.969,8.913-2.793,13.151
		c-0.83,1.932-1.039,4.158-2.039,6.088c-0.236,0.419-0.528,0.801-0.855,1.152c-3.761,1.434-5.13,4.314-5.172,8.172
		c-0.011,1.026-0.385,2.65-1.881,2.388c-1.318-0.231-1.223-1.723-1.256-3.105c-0.494,1.999-1.244,3.599-2.941,4.552
		c-0.474,0.134-0.914,0.059-1.319-0.22c-1.71-3.865,1.047-7.661,0.107-11.627c-0.553-2.331,0.063-4.939,0.153-7.423
		c0.633-1.789,1.075-3.474,0.304-5.465c-0.943-2.438-0.196-4.753,1.671-6.638c0.433-2.396-1.375-5.359,1.791-7.062
		c1.224-0.93,2.296-0.437,3.339,0.347c1.586,1.438,1.139,3.13,0.669,4.879c-0.508,1.886-0.466,3.794,0.134,5.669
		c0.3,0.775,0.605,1.546,1.712,1.824c-1.681-1.158-1.739-2.709-1.33-4.384c1.409-4.331-0.861-9.08,1.519-13.293
		C119.333,169.156,117.437,164.436,119.911,160.493z"/>
	<path fill-rule="evenodd" clip-rule="evenodd" fill="#DCD9C6" d="M117.902,113.319c-2.494,3.479-9.252,5.425-12.823,3.793
		c-1.304-0.596-1.721-1.584-1.535-2.784c0.763-4.933-3.265-8.583-3.522-13.267c-0.034-0.627-1.457-1.177-2.237-1.762
		c-1.697-3.838,1.531-6.609,2.151-9.945c0.283-0.72,0.75-1.25,1.514-1.472c2.079-0.112,1.571,2.195,2.707,3.209
		c1.051-3.554-0.568-5.158-3.555-5.899c-2.174-3.815-1.407-7.878-0.944-11.887c0.197-1.709,0.948-3.153,3.014-3.25
		c2.318,4.508,4.889,8.876,5.614,14.068c0.626,4.487,2.854,8.259,5.534,11.958C117.481,101.132,120.99,106.532,117.902,113.319z"/>
	<path fill-rule="evenodd" clip-rule="evenodd" fill="#D0C8BC" d="M117.877,144.326c1.758-2.901,3.464-5.836,5.305-8.685
		c0.576-0.891,1.21-2.319,2.583-1.783c1.243,0.484,1.071,1.925,1.099,3.077c0.029,1.343-0.23,2.552-1.001,3.757
		c-1.618,2.532-3.442,4.939-1.446,8.378c0.761,1.311,1.117,3.55-1.989,4.558c-1.603,0.521-1.475,4.262-3.622,5.655
		c-1.053,0.865-2.105,1.731-3.157,2.598c-0.417,0.15-1.06,0.511-1.107-0.199C114.135,155.613,114.063,149.589,117.877,144.326z"/>
	<path fill-rule="evenodd" clip-rule="evenodd" fill="#AA3737" d="M117.902,113.319c0.473-6.439-1.229-12.142-5.558-17.043
		c-1.199-1.358-2.466-2.871-3.028-4.54c-2.359-7.015-4.462-14.115-6.659-21.184c2.236-2.416,2.184,0.664,3.159,1.301
		c2.587,3.901,4.565,8.046,5.117,12.768c0.466,3.992,3.023,6.891,5.229,9.984c3.017,4.232,5.69,8.599,4.511,14.18
		c-1.295,1.615,1.059,4.452-1.85,5.523C118.516,113.978,118.209,113.649,117.902,113.319z"/>
	<path fill-rule="evenodd" clip-rule="evenodd" fill="#D1C7BC" d="M104.77,209.233c-0.143,0.3-0.395,0.595-0.412,0.901
		c-0.39,7.042-0.385,7.042-7.423,4.922c1.027-4.175,1.174-8.708,4.826-11.81C105.608,203.813,105.774,206.229,104.77,209.233z"/>
	<path fill-rule="evenodd" clip-rule="evenodd" fill="#DAD4C6" d="M106.89,192.343c-0.391,3.281-0.782,6.563-1.172,9.845
		c-1.3,1.248-2.67,1.095-4.076,0.201c-0.245-5.79,1.784-10.817,5.167-15.39C108.204,188.76,107.977,190.545,106.89,192.343z"/>
	<path fill-rule="evenodd" clip-rule="evenodd" fill="#AB5353" d="M114.624,189.409c-1.858-3.381,1.187-6.754,0.015-10.134
		c-0.079-1.807-2.897-4.294,1.255-5.049c0.585-0.329,1.171-0.657,1.756-0.986c0.14,4.705,0.994,9.457-0.934,14.024
		C115.952,187.914,116.647,189.987,114.624,189.409z"/>
	<path fill-rule="evenodd" clip-rule="evenodd" fill="#D6D1C3" d="M115.894,174.226c-3.071,1.023,0.429,3.68-1.255,5.049
		c-1.011-0.359-2.021-0.719-3.032-1.077c-1.132-3.899-0.515-5.747,4.287-12.631C115.894,168.58,115.894,171.403,115.894,174.226z"/>
	<path fill-rule="evenodd" clip-rule="evenodd" fill="#AA4D4D" d="M117.877,144.326c-1.171,5.798-3.796,11.411-2.229,17.555
		c-0.645,1.454-1.298,1.321-1.762-0.068c-0.3-0.901-0.081-2.006-1.139-2.566c1.188-5.43,0.73-11.256,3.902-16.209
		C117.058,143.466,117.467,143.896,117.877,144.326z"/>
	<path fill-rule="evenodd" clip-rule="evenodd" fill="#AA4E4E" d="M106.89,192.343c-0.027-1.781-0.054-3.562-0.081-5.344
		c1.502-2.386-1.341-5.513,1.443-7.84c1.693,1.767-0.522,4.545,1.564,6.1c-1.629,3.875,0.677,8.394-1.976,12.103
		C107.479,195.698,108.478,193.776,106.89,192.343z"/>
	<path fill-rule="evenodd" clip-rule="evenodd" fill="#AB6565" d="M100.819,89.268c0.108,3.682-3.32,6.295-3.034,10.03
		c-1.538-0.426-0.501-2.57-2.012-3.015c1.882-4.478,3.838-8.939,3.225-13.993C101.557,84.107,100.225,86.939,100.819,89.268z"/>
	<path fill-rule="evenodd" clip-rule="evenodd" fill="#CFC7BA" d="M120.683,123.304c-0.155-2.251-0.238-4.491,1.76-6.567
		c0.56,4.696,1.12,9.393,1.681,14.089c-2.687-1.875-1.801-4.691-3.189-6.773C120.979,123.759,120.895,123.51,120.683,123.304z"/>
	<path fill-rule="evenodd" clip-rule="evenodd" fill="#DED6D6" d="M57.064,153.129c-2.582-2.118-5.717-1.584-5.75-4.846
		c-0.008-0.754,0.495-1.998,1.438-1.572C54.853,147.659,56.628,149.089,57.064,153.129z"/>
	<path fill-rule="evenodd" clip-rule="evenodd" fill="#AA6464" d="M118.823,114.308c1.82-1.826,0.648-4.193,1.134-6.261
		c2-0.555,3.697-0.74,2.758,2.272c-1.636-0.889-2.008-0.093-1.914,1.407c0.171,2.728-0.886,5.125-2.067,7.483
		C116.683,117.538,119.02,115.946,118.823,114.308z"/>
	<path fill-rule="evenodd" clip-rule="evenodd" fill="#AD8E8E" d="M101.642,202.389c1.359-0.066,2.718-0.134,4.076-0.201
		c0.032,2.396,0.726,4.879-0.948,7.045c0.697-2.85-0.94-4.525-3.008-5.986C101.722,202.96,101.683,202.675,101.642,202.389z"/>
	<path fill-rule="evenodd" clip-rule="evenodd" fill="#C2BEB7" d="M85.075,144.419c1.187,0.488,1.655,1.525,1.743,2.679
		c0.085,1.115-0.731,2.047-1.672,2.087c-1.786,0.076-1.158-1.561-1.344-2.542C83.606,145.612,83.777,144.677,85.075,144.419z"/>
	<path fill-rule="evenodd" clip-rule="evenodd" fill="#AA4848" d="M205.752,126.265c-0.016-2.583-0.029-5.165-0.044-7.748
		c-0.187-1.532-1.568-3.354,1.022-4.211c0.053,3.575,0.104,7.15,1.194,10.609c1.005,3.391-0.333,6.957,0.78,10.339
		c0.481,5.715,0.314,11.393-0.927,17.013c-2.094-4.544-0.431-9.351-0.983-13.999C206.32,134.277,207.896,130.108,205.752,126.265z"
		/>
	<path fill-rule="evenodd" clip-rule="evenodd" fill="#AC4F4F" d="M208.705,135.254c-1.86-3.323-0.555-6.887-0.78-10.336
		C209.362,128.273,208.421,131.81,208.705,135.254z"/>
	<path fill-rule="evenodd" clip-rule="evenodd" fill="#AC4F4F" d="M206.73,114.306c-1.439,1.136-0.721,2.797-1.022,4.211
		c-1.215-1.908-0.806-4.095-1.052-6.169c0.986-0.451,1.078-1.394,1.257-2.29C206.738,111.368,206.66,112.851,206.73,114.306z"/>
	<path fill-rule="evenodd" clip-rule="evenodd" fill="#E4E2D2" d="M128.86,207.388c1.322-1.489,0.397-3.441,1.046-5.069
		c0.098-3.591,2.874-4.232,5.445-4.277c2.057-0.036,3.244-0.819,3.979-1.776c-1.35,2.595-4.594,1.537-7.118,2.01
		c-1.794,0.336-2.083-1.605-1.594-3.227c0.669-7.521-1.265-14.957-0.823-22.43c0.17-2.891-1.95-6.586,2.036-8.756
		c0.673-0.365,0.158-1.145-0.497-1.483c-1.287-0.665-1.178-1.841-1.168-3.018c0.027-3.39,0.564-7.669,1.92-9.656
		c1.914-2.807,2.652-4.722,1.689-7.693c-0.085-0.262,0.417-0.939,0.776-1.071c0.763-0.279,1.235,0.312,1.448,0.96
		c0.355,1.087,0.611,2.207,0.91,3.312c1.21,0.647,2.486,1.184,3.482,2.222c1.145-1.976-1.342-4.669,1.449-6.136
		c2.369,0.222,2.964,2.312,4.074,3.86c0.609,0.825,0.836,1.739,0.931,2.772c0.126,1.374-1.685,3.099,0.179,4.028
		c1.805,0.899,3.862,2.13,6.014,0.332c0.777-0.649,1.83-0.762,2.772-0.062c1.372,2.964-1.633,3.385-2.822,4.857
		c-1.228,1.164-3.155,1.613-3.703,3.613c-0.399,0.412,0.731,0.414,0.169,0.055c-0.078-0.05,0.068-0.148,0.219-0.419
		c0.502-0.901,1.047-1.611,2.211-0.967c0.645,0.708,1.276,1.426,1.82,2.211c-0.434-0.873-1.092-1.57-1.819-2.215
		c-0.749-1.17,0.355-1.525,0.929-2.113c1.637-1.146,3.465-0.44,5.213-0.548c1.594,0.552,2.607,1.752,3.482,3.107
		c1.01,1.723,0.713,3.853,1.74,5.576c0.52,1.771-0.566,2.931-1.558,4.131c-0.567,0.659-1.323,1.115-1.907,1.759
		c-1.784,0.651-3.878,0.073-5.501,1.382c-1.834,0.801-2.616,2.453-3.282,4.155c-0.294,0.752-0.451,1.62,0.31,2.262
		c0.265,0.224,0.632,0.16,0.95-0.011c0.739-0.396,1.528-0.806,1.139-1.851c-0.691-1.856-0.879-3.559,1.127-4.758
		c1.742-0.9,3.994,0.112,5.557-1.475c1.25-0.809,2.814-1.729,3.932-0.476c1.625,1.823,3.814,1.256,5.655,2.001
		c1.632,4.762,2.264,9.671,2.161,14.688c0.355,1.772,1.597,4.312-2.174,2.506c0.881,1.364,3.207,1.669,2.66,4.13
		c-0.4,1.808-1.215,2.158-2.758,1.574c-1.303-0.494-2.142-2.132-4.087-1.336c1.593-0.054,2.53,0.645,2.837,2.046
		c0.104,0.474-0.037,1.117,0.342,1.393c3.85,2.796,3.86,2.782,3.248,7.824c0.02,0.64,0.039,1.279,0.059,1.919
		c-0.422,2.07-1.016,4.123-1.227,6.214c-0.317,3.148-1.757,5.14-4.931,5.74c-7.382-0.533-8.011,0.571-8.741-4.585
		c-1.018,2.817,1.815,3.791,2.756,5.681c-0.199,1.864-1.82,1.651-3.015,2.062c-3.139-1.254-6.025,0.692-9.007,0.699
		c-3.271,0.008-6.151,2.194-9.502,1.299c-4.079-1.091-8.266,1.036-12.35-0.338C125.996,218.317,130.27,213.351,128.86,207.388z"/>
	<path fill-rule="evenodd" clip-rule="evenodd" fill="#AD908F" d="M171.9,205.333c0-2.578,0-5.156,0-8.266
		c-1.871,1.009-0.619,4.191-3.593,2.726c-1.813-0.895-2.023-1.066-1.035-2.977c0.772-1.493,0.173-3.298-1.853-0.718
		c-0.328,0.419-0.838-1.606-0.939-2.431c-0.124-0.999,0.7-1.88,1.918-1.68c0.391,0.064,0.75,1,1.029,0.954
		c1.679-0.275,2.729,3.022,4.023,1.343c2.004-2.603-2.245-2.026-2.371-3.446c-0.123-1.401-3.472-1.687-1.332-3.411
		c2.619-2.112,1.646,2.707,3.818,2.142c0.084-0.747,0.175-1.56,0.266-2.372C173.418,193.236,173.437,199.281,171.9,205.333z"/>
	<path fill-rule="evenodd" clip-rule="evenodd" fill="#DAD8CA" d="M160.963,160.542c-1.068-1.091-2.137-2.183-3.205-3.273
		c-0.252-0.454-0.235-0.888,0.094-1.3c0.822-0.607,1.762-0.698,2.74-0.624c1.549,0.462,3.296,0.065,4.736,1.052
		c1.18,1.795,2.839,3.473,1.488,5.905c-0.793,3.482,2.744,5.568,2.83,8.769c-3.199,0.256-5.879-1.618-8.881-2.168
		c0.945-1.169,2.263-2.163,1.883-3.962C161.836,163.57,163.732,161.162,160.963,160.542z"/>
	<path fill-rule="evenodd" clip-rule="evenodd" fill="#AB4F4F" d="M166.816,162.301c0.319-2.301-1.889-3.615-2.211-5.666
		c-0.667-0.862-1.131-1.844-1.657-2.79c-1.558-2.057-1.995-4.384-1.661-6.901c0.312-0.901,0.76-1.697,1.679-2.116
		c2.331,5.354,5.019,10.582,5.812,16.478C168.123,161.637,167.471,161.969,166.816,162.301z"/>
	<path fill-rule="evenodd" clip-rule="evenodd" fill="#AB7474" d="M160.766,168.902c3.482-1.414,6.426-0.622,8.881,2.168
		c0.008,0.479,0.016,0.958,0.024,1.438c-2.153,0.769-4.442,3.251-6.094-0.78c-0.821-2.003-2.585,0.382-3.767-0.483l0.023,0.063
		C159.777,170.364,160.023,169.538,160.766,168.902z"/>
	<path fill-rule="evenodd" clip-rule="evenodd" fill="#CBC1B8" d="M174.645,215c-0.867-0.219-3.096,1.585-2.082-1.429
		c0.472-1.404,0.828-2.847,1.236-4.272C175.393,211.005,176.168,212.833,174.645,215z"/>
	<path fill-rule="evenodd" clip-rule="evenodd" fill="#AD9393" d="M108.584,216.29c-0.002-1.723,2.715-2.154,2.018-4.172
		c-0.45-1.301-1.021-2.959,0.791-3.181c2.224-0.272,0.974,1.9,1.353,2.939c0.255,0.7,0.19,1.518,0.37,3.279
		c1.575-4.754-0.223-10.683,6.588-10.944c1.333,1.247,1.216,2.582,0.25,3.965c-3.218,1.255-3.122,3.048-0.823,5.193
		c0.3,0.674,0.256,1.314-0.186,1.915c-0.381,1.031-0.03,2.306-1.036,3.13C114.021,221.131,111.326,218.609,108.584,216.29z"/>
	<path fill-rule="evenodd" clip-rule="evenodd" fill="#D3CABD" d="M128.688,189.448c-0.791,4.587,0.559,9.271-0.635,13.84
		c-0.928,1.71-3.715,0.735-4.281,2.967c-2.138-0.029-1.87-1.703-2.091-3.045c1.089-6.212,3.294-12.088,4.913-18.258
		C129.262,186.054,127.625,188.245,128.688,189.448z"/>
	<path fill-rule="evenodd" clip-rule="evenodd" fill="#D0C9C0" d="M126.719,210.417c-0.826,2.91-0.443,6.311-3.57,8.272
		c-1.398,0.878-0.746,1.695,0.113,2.762c0.803,0.997-0.014,1.895-1.184,2.001c-0.973,0.089-2.339-0.112-1.617-1.536
		c1.27-2.506-1.245-4.351-0.854-6.632c-0.474-1.023-0.255-1.887,0.595-2.608C122.332,211.808,123.973,209.511,126.719,210.417z"/>
	<path fill-rule="evenodd" clip-rule="evenodd" fill="#C8B9B2" d="M108.584,216.29c0.615-0.12,1.671-0.501,1.777-0.321
		c1.521,2.581,3.257,3.812,6.032,1.548c0.157-0.128,0.995,0.579,1.516,0.898c-0.178,1.426,0.466,4.074-0.733,4.017
		c-2.463-0.117-5.326-0.473-7.244-2.38c-0.967-0.961-2.261-1.991-2.352-3.64C107.915,216.371,108.25,216.33,108.584,216.29z"/>
	<path fill-rule="evenodd" clip-rule="evenodd" fill="#AB7979" d="M126.719,210.417c-2.354,0.084-3.471,3.107-6.089,2.56
		c-1.866-3.227,0.751-6.16,0.606-9.276c0.32-0.533,0.772-0.689,1.353-0.472c0.318,1.039-0.28,2.436,1.183,3.026
		C124.754,207.642,125.736,209.029,126.719,210.417z"/>
	<path fill-rule="evenodd" clip-rule="evenodd" fill="#AA3838" d="M121.782,203.281c0.458,3.332-1.011,6.436-1.153,9.695
		c-0.965,0.493-0.879,1.45-1.022,2.308l-0.332-0.001c0,0-0.332,0.002-0.331,0.002c-0.091-0.705-0.183-1.409-0.275-2.114
		c-1.211-1.671-1.198-3.271,0.275-4.788c1.428-1.177,0.787-2.729,0.759-4.171c0.078-0.296,0.167-0.589,0.269-0.878
		C120.559,202.722,121.161,202.678,121.782,203.281z"/>
	<path fill-rule="evenodd" clip-rule="evenodd" fill="#AC9494" d="M159.816,220.301c-4.391-0.482-3.278-4.6-4.451-7.451
		c3.335,2.375,5.163,7.438,10.436,6.356C164.202,221.731,161.615,218.863,159.816,220.301z"/>
	<path fill-rule="evenodd" clip-rule="evenodd" fill="#DDDBC7" d="M122.715,110.32c0.164-2.073-1.601-1.803-2.758-2.272
		c-0.197-4.592-1.531-8.798-4.596-12.273c-3.474-3.939-6.024-8.275-6.304-13.629c-0.202-3.867-3.041-6.505-4.304-9.864
		c-0.896-1.128,0.117-3.071-1.759-3.836c-1.512-0.616-4.119-0.344-3.466-3.176c0.628-2.723,1.149-5.575,4.078-7.062
		c2.117-1.075,4.361-1.947,6.668-1.812c4.491,0.264,8.488-1.194,12.489-2.844c11.59-3.112,29.025,7.985,28.66,20.854
		c-0.109,3.896,2.182,7.122,4.848,10.072c4.566,5.053,9.092,10.229,9.834,17.484c-0.422,7.134,0.803,14.363-1.279,21.395
		c-0.023,0.663-0.047,1.327-0.07,1.991c-1.802,2.531-3.717,4.951-4.025,8.273c-0.388,4.191-2.294,3.156-4.348,1.062
		c-1.097-1.084-0.04-4.182-3.376-3.313c-0.935,0.243-1.693-1.437-2.208-2.468c-1.604-3.218-4.135-5.094-7.699-5.61
		c-2.334-0.339-4.053-2.034-6.273-3.273c0.213,5.039,5.006,7.114,6.059,11.239c1.73,2.485,2.697,5.227,2.893,8.962
		c-2.506-1.344-4.891-1.785-7.432-1.756c-6.391,0.075-9.4-2.213-11.299-8.279c-1.497-4.782-1.736-9.793-2.57-14.695
		C124.172,113.716,123.318,112.04,122.715,110.32z"/>
	<path fill-rule="evenodd" clip-rule="evenodd" fill="#AB3333" d="M164.956,101.306c-1.19-6.132-4.857-10.788-9.075-15.089
		c-2.973-3.031-4.838-6.528-5.691-10.743c-3.033-14.991-11.98-21.852-27.213-21.103c-1.048,0.359-2.189,0.914-2.14-1.023
		c8.939-5.928,26.683,4.122,30.282,13.606c0.293,0.771,0.685,1.551,0.762,2.354c0.824,8.52,5.809,14.524,11.104,20.856
		c4.018,4.803,5.895,11.414,3.949,18.184c-1.487,0.329-1.518-0.711-1.608-1.706C165.161,104.867,165.656,103.044,164.956,101.306z"
		/>
	<path fill-rule="evenodd" clip-rule="evenodd" fill="#AB4949" d="M120.836,53.348c0.713,0.341,1.427,0.683,2.14,1.023
		c-3.688,1.943-7.452,2.997-11.783,3.093c-5.548,0.122-10.506,2.105-10.907,9.297c4.952-1.304,4.809,2.028,4.466,5.52
		c-1.317,0.173,0.012-2.858-2.094-1.729c-3.92,4.541-3.235,9.398-0.994,14.365c1.086,1.102,0.997,2.249,0.13,3.426
		c-0.325,0.309-0.65,0.617-0.976,0.926c-2.207-1.908,0.08-4.989-1.821-6.978c-0.404-6.036-2.26-12.006-0.382-18.135
		c1.774-5.788,4.596-8.429,10.477-8.9C113.068,54.937,117.014,54.554,120.836,53.348z"/>
	<path fill-rule="evenodd" clip-rule="evenodd" fill="#AB4040" d="M156.917,134.096c0.724,0.633,1.446,1.266,2.364,2.069
		c1.287-4.051-0.021-9.232,5.473-10.818c-2.209,4.594-2.82,9.533-3.031,14.534c-0.072,1.723-0.451,3.625,1.243,4.947
		c-0.169,0.928-0.2,1.922-1.187,2.455c-4.272-0.238-2.601-4.572-4.473-6.467c-0.615-1.771-1.748-3.363-1.857-5.313
		C155.678,134.763,156.156,134.282,156.917,134.096z"/>
	<path fill-rule="evenodd" clip-rule="evenodd" fill="#AB4040" d="M164.956,101.306c2.055,1.955-0.477,5.199,1.978,7.042
		c-0.058,3.768-0.076,7.536-0.193,11.302c-0.047,1.487,0.713,3.507-1.917,3.705C164.867,116.005,164.912,108.656,164.956,101.306z"
		/>
	<path fill-rule="evenodd" clip-rule="evenodd" fill="#AA3131" d="M156.917,134.096c-0.437,0.43-0.874,0.859-1.312,1.289
		c-5.344,1.832-5.129-2.92-6.657-5.601c-1.593-1.41-3.312-1.539-5.147-0.508c-0.017,0.794-0.149,1.534-0.918,1.979
		c-3.824-2.605-5.906-6.493-7.738-10.555c-0.398-0.885-0.984-1.918-0.047-2.725c1.008-0.867,1.868-0.026,2.521,0.672
		c2.252,2.41,5.058,3.406,8.261,4.021c4.345,0.836,5.69,4.897,7.403,8.201c2.373-0.144-0.101-2.11,1.678-2.646
		C155.977,130.009,157.005,131.824,156.917,134.096z"/>
	<path fill-rule="evenodd" clip-rule="evenodd" fill="#AC8080" d="M155.827,152.272c-1.103-0.159-1.954,0.376-2.608,1.137
		c-3.096,3.608-5.506-0.63-8.271-0.792c-0.803-0.047-1.3-1.508-0.236-2.374c1.734-1.41,0.934-3.36,1.205-5.082
		c2.947-1.664,1.078-4.68,1.945-6.927c1.145-1.046,2.196-2.871,3.962-1.916c1.979,1.072,1.824,3.133,1.19,5.077
		c-0.533,0.674-1.862,0.062-2.045,0.971c-0.314,1.578,1.051,1.213,1.955,1.432c4.971,1.201,5.88,3.345,3.551,8.229
		C156.26,152.11,156.043,152.191,155.827,152.272z"/>
	<path fill-rule="evenodd" clip-rule="evenodd" fill="#D3CFC1" d="M152.853,141.437c0.119-3.846-1.317-5.268-4.991-3.203
		c0.236-2.627-0.275-5.016-2.215-6.949c0.183-2.762,2.693-2.156,4.247-2.938c1.488,2.684,0.387,7.47,5.712,7.038
		c1.125,1.438,2.175,2.911,2.342,4.814C156.316,143.257,155.448,143.468,152.853,141.437z"/>
	<path fill-rule="evenodd" clip-rule="evenodd" fill="#AB5E5E" d="M121.782,203.281c-0.604,0.018-1.207,0.035-1.81,0.053
		c0.657-5.79,4.51-10.801,4.146-16.888c-0.023-0.4,1.384-1.238,1.717-2.211c1.065-0.514,2.492-3.529,2.945,0.342
		c0.187,1.598-0.05,3.245-0.094,4.871c-0.408-1.037-0.814-2.075-1.4-3.567c-1.627,6.01-3.162,11.679-4.697,17.348
		C122.321,203.264,122.053,203.282,121.782,203.281z"/>
	<path fill-rule="evenodd" clip-rule="evenodd" fill="#D3D0C5" d="M128.18,155.609c-3.01-5.611-0.92-9.993,0.404-14.376
		c0.114-0.377,1.207-0.829,1.623-0.67c0.943,0.363,0.631,1.351,0.486,2.116C129.936,146.675,129.145,150.667,128.18,155.609z"/>
	<path fill-rule="evenodd" clip-rule="evenodd" fill="#B5AEAE" d="M130.618,195.048c0.292,3.538,2.831,2.273,4.799,2.254
		c3.067-0.03,4.093-1.918,3.794-5.312c2.258,3.497,0.949,6.318-2.449,6.711c-2.79,0.322-5.3,1.026-6.855,3.617
		C130.347,199.916,128.998,197.336,130.618,195.048z"/>
	<path fill-rule="evenodd" clip-rule="evenodd" fill="#AA6161" d="M141.842,141.299c-0.166,0.63-0.468,1.259-0.475,1.89
		c-0.021,1.962,2.334,4.617-0.58,5.646c-1.825,0.645-1.93-3.007-3.877-3.622c0.861-0.082,1.833-0.37,1.523-1.381
		C137.134,139.598,139.904,141.05,141.842,141.299z"/>
	<path fill-rule="evenodd" clip-rule="evenodd" fill="#AA5454" d="M149.894,128.347c-0.478,2.337-3.38,1.165-4.247,2.938
		c-0.615-0.669-1.23-1.339-1.846-2.008C145.312,125.556,147.707,127.642,149.894,128.347z"/>
	<path fill-rule="evenodd" clip-rule="evenodd" fill="#AA7979" d="M126.044,181.348c-0.589-1.562-2.87,0.766-2.957-1.073
		c-0.108-2.283,2.181-1.722,3.527-2.241C126.677,179.182,127.018,180.378,126.044,181.348z"/>
	<path fill-rule="evenodd" clip-rule="evenodd" fill="#AB7474" d="M114.624,189.409c0.698-0.715,1.395-1.43,2.093-2.145
		c0.137,0.752,0.002,2.275,0.561,2.07c1.208-0.442,2.271-1.881,2.439,0.699c0.059,0.906,0.288,2.083-0.874,2.538
		c-1.241,0.485-2.149-0.183-2.846-1.188C115.54,190.726,115.082,190.068,114.624,189.409z"/>
	<path fill-rule="evenodd" clip-rule="evenodd" fill="#AA4040" d="M101.794,88.342c-0.043-1.142-0.086-2.283-0.13-3.426
		c3.452-1.86,3.498,1.271,3.844,2.984c0.366,1.808,1.067,5.047-0.878,5.314C102.281,93.539,101.825,90.577,101.794,88.342z"/>
	<path fill-rule="evenodd" clip-rule="evenodd" fill="#AB7575" d="M154.768,172.258c-0.824,1.485-1.701,3.148-0.391,4.604
		c1.604,1.781-1.309,2.319-0.742,3.686c-1.375,0.12-2.921,0.688-4.084,0.248c-1.538-0.582-0.027-2.008-0.002-3.039
		c0.082-3.259,1.547-5.509,5.24-5.449L154.768,172.258z"/>
	<path fill-rule="evenodd" clip-rule="evenodd" fill="#AE9696" d="M136.17,150.291c2.407,0.074,2.43,1.376,2.549,2.749
		c0.147,1.718-0.902,2.545-2.24,2.574c-1.346,0.03-2.65-0.95-2.477-2.427C134.166,151.799,134.887,150.379,136.17,150.291z"/>
	<path fill-rule="evenodd" clip-rule="evenodd" fill="#AE9090" d="M142.543,185.195c-0.631,1.706-1.607,3.61,0.925,4.516
		c1.997,0.714,1.476,2.102,0.768,2.995c-0.884,1.114-1.615-0.222-2.37-0.739c-2.719-1.864-2.867-4.107-1.078-6.681
		C141.344,184.696,141.93,184.681,142.543,185.195z"/>
	<path fill-rule="evenodd" clip-rule="evenodd" fill="#AE9292" d="M156.223,206.892c3.477-3.086,6.328-0.097,8.989-0.996
		c0.515-0.174,0.706,0.989,0.413,1.594c-0.365,0.751-0.975,1.464-1.911,0.992C161.663,207.452,159.367,207.462,156.223,206.892z"/>
	<path fill-rule="evenodd" clip-rule="evenodd" fill="#AA6262" d="M157.586,156.378c0.059,0.296,0.116,0.593,0.172,0.89
		c-1.568,1.724-3.235-0.008-4.85,0.136l-0.232-0.254c-0.396-2.561,3.1-2.607,3.152-4.878c-0.001,0-0.044,0.05-0.044,0.05
		C160.84,151.695,157.443,154.823,157.586,156.378z"/>
	<path fill-rule="evenodd" clip-rule="evenodd" fill="#AA7878" d="M145.543,172.83c-7.576,0.118-2.689-4.403-5.132-6.606
		C145.169,167.18,142.619,170.959,145.543,172.83z"/>
	<path fill-rule="evenodd" clip-rule="evenodd" fill="#B09E9E" d="M147.209,201.551c2.412,0.918,4.755,1.176,5.484,3.637
		c0.152,0.515-0.621,1.682-0.771,1.421C150.802,204.667,147.983,204.469,147.209,201.551z"/>
	<path fill-rule="evenodd" clip-rule="evenodd" fill="#AA6464" d="M152.908,157.404c-0.382,0.638-0.764,1.276-1.146,1.914
		l0.063-0.069c-0.485,0.395-1.285,0.719-1.392,1.197c-0.254,1.138,0.928,2.688-0.994,3.279c-0.241,0.074-1.031-0.644-0.982-0.773
		c0.533-1.416-1.111-3.396,1.116-4.359c1.047-0.452,2.07-0.958,3.103-1.44C152.676,157.15,152.908,157.404,152.908,157.404z"/>
	<path fill-rule="evenodd" clip-rule="evenodd" fill="#AA6767" d="M160.963,160.542c0.781-0.477,0.5-2.146,1.883-1.852
		c1.042,0.221,0.74,1.303,0.928,2.06c0.399,1.613-0.956,2.741-1.125,4.191C160.622,164.035,161.957,161.842,160.963,160.542z"/>
	<path fill-rule="evenodd" clip-rule="evenodd" fill="#AF9F9F" d="M132.102,208.737c0.986-3.037,3.074-2.795,4.906-2.263
		c0.871,0.253,0.076,1.552-0.23,2.133C135.01,211.958,133.924,206.263,132.102,208.737z"/>
	<path fill-rule="evenodd" clip-rule="evenodd" fill="#AA6363" d="M151.762,159.318c3.725-0.966,2.97,3.038,4.723,4.255
		c-2.498-0.42-5.207-0.617-4.658-4.324C151.825,159.249,151.762,159.318,151.762,159.318z"/>
	<path fill-rule="evenodd" clip-rule="evenodd" fill="#AB7070" d="M142.543,185.195c-0.585,0.03-1.17,0.061-1.756,0.091
		c-0.66-3.247,1.248-4.249,4.58-5.018C144.616,182.524,142.076,183.113,142.543,185.195z"/>
	<path fill-rule="evenodd" clip-rule="evenodd" fill="#AC8C8C" d="M145.424,213.657c-1.237-0.11-1.58-0.998-1.664-2.003
		c-0.065-0.786-0.132-1.761,0.887-1.981c1.185-0.256,1.799,0.519,1.961,1.601C146.762,212.303,146.529,213.216,145.424,213.657z"/>
	<path fill-rule="evenodd" clip-rule="evenodd" fill="#AA6C6C" d="M163.451,202.833c-2.737,0.937-3.436-0.664-4.151-2.09
		c-0.118-0.236,0.341-1.103,0.528-1.101C161.765,199.658,162.282,201.319,163.451,202.833z"/>
	<path fill-rule="evenodd" clip-rule="evenodd" fill="#AC9393" d="M159.811,171.245c-1.229,2.587-3.072,2.122-5.043,1.014
		l0.021,0.05c1.298-2.272,3.117-1.908,5.045-1L159.811,171.245z"/>
	<path fill-rule="evenodd" clip-rule="evenodd" fill="#AA6161" d="M165.512,186.67c-1.938,1.942-3.866,0.392-5.404,0.947
		C161.34,185.411,163.161,186.386,165.512,186.67z"/>
	<path fill-rule="evenodd" clip-rule="evenodd" fill="#AF9B9B" d="M136.906,178.449c1.248-1.356,2.24-2.11,3.586-0.973
		c0.498,0.42,0.998,1.228,0.384,1.58C139.713,179.724,138.445,179.337,136.906,178.449z"/>
	<path fill-rule="evenodd" clip-rule="evenodd" fill="#AA8484" d="M164.797,181.869c0.983-1.754,2.064-2.456,3.642-2.065
		c0.185,0.045,0.394,0.973,0.225,1.303C167.76,182.866,166.447,182.294,164.797,181.869z"/>
	<path fill-rule="evenodd" clip-rule="evenodd" fill="#AA6A6A" d="M158.957,181.435c2.169,0.077,3.146,0.874,3.053,2.619
		c-0.018,0.315-0.77,0.915-1.029,0.841C159.525,184.483,159.319,183.173,158.957,181.435z"/>
	<path fill-rule="evenodd" clip-rule="evenodd" fill="#E3E1CF" d="M157.586,156.378c-1.219-0.227-1.693-0.261-0.398-1.513
		c1.689-1.636,0.359-2.388-1.403-2.544c1.997-5.182,1.056-7.051-3.365-7.353c-1.06-0.073-2.559,0.972-3.141-0.26
		c-0.517-1.094,1.642-2.48,0.071-3.845c1.167,0.189,2.334,0.38,3.502,0.571c1.974,0.718,3.7,0.422,5.096-1.236
		c3.081,1.386,0.998,5.565,3.832,7.084c0.32,2.145,0.482,4.348,2.199,5.979c0.515,1.79,0.018,2.714-1.847,1.729
		c-2.208-1.167-0.39,1.312-1.257,1.269C159.779,156.299,158.684,156.339,157.586,156.378z"/>
	<path fill-rule="evenodd" clip-rule="evenodd" fill="#AB7777" d="M160.875,156.26c-0.714-1.413-1.429-2.827-2.255-4.461
		c2.511-0.769,2.671,1.451,3.688,2.393c1.456,1.349,1.396-0.109,1.671-0.93c1.062,0.965,0.76,2.184,0.627,3.372
		C163.26,157.529,162.064,156.925,160.875,156.26z"/>
	<path fill-rule="evenodd" clip-rule="evenodd" fill="#E1DFD1" d="M118.944,208.382c-0.092,1.597-0.183,3.192-0.274,4.789
		c-0.934,0.295-2.48,1.784-2.614-0.092c-0.138-1.938,0.629-4.216,1.721-5.869C118.485,206.139,118.677,207.79,118.944,208.382z"/>
	<path fill-rule="evenodd" clip-rule="evenodd" fill="#B39997" d="M144.482,124.847c-1.951,2.564-3.146,1.274-4.668-0.637
		C141.77,123.331,143.04,124.128,144.482,124.847z"/>
	<path fill-rule="evenodd" clip-rule="evenodd" fill="#DEDCCB" d="M150.39,147.983c1.222-0.508,1.469,0.299,1.327,1.158
		c-0.2,1.216-0.957,2.08-2.283,2.147c-1.266,0.065-1.837-0.978-1.846-1.882C147.566,147.359,149.642,148.872,150.39,147.983z"/>
</g>
</svg>
