<?xml version="1.0" encoding="utf-8"?>
<!-- Generator: Adobe Illustrator 16.0.0, SVG Export Plug-In . SVG Version: 6.00 Build 0)  -->
<!DOCTYPE svg PUBLIC "-//W3C//DTD SVG 1.1//EN" "http://www.w3.org/Graphics/SVG/1.1/DTD/svg11.dtd">
<svg version="1.1" id="Layer_1" xmlns="http://www.w3.org/2000/svg" xmlns:xlink="http://www.w3.org/1999/xlink" x="0px" y="0px"
	 width="100px" height="100px" viewBox="0 0 100 100" enable-background="new 0 0 100 100" xml:space="preserve">
<polygon fill="#4917AA" points="57.408,35.893 46.854,27.028 55.185,29.044 51.296,22.998 63.517,35.893 61.295,27.431 
	67.206,43.954 "/>
<ellipse fill="#4917AA" cx="51.285" cy="54.432" rx="29.015" ry="22.971"/>
<g>
	<path fill="#FFFFFF" d="M66.251,51.973c-0.55,0-1.129-0.348-1.8-0.75c-0.793-0.476-1.691-1.016-2.605-1.016
		c-0.915,0-1.814,0.54-2.608,1.016c-0.671,0.402-1.25,0.75-1.8,0.75c-0.383,0-0.901-0.169-1.19-0.972
		c-0.196-0.544-0.287-1.351-0.287-2.539c0-6.318,2.585-11.267,5.886-11.267c3.299,0,5.883,4.949,5.883,11.267
		C67.729,50.286,67.55,51.973,66.251,51.973z"/>
	<path fill="#4917AA" d="M61.846,37.695c2.974,0,5.383,4.819,5.383,10.767c0,2.304-0.361,3.01-0.978,3.01
		c-0.974,0-2.583-1.766-4.405-1.766c-1.823,0-3.435,1.766-4.408,1.766c-0.616,0-0.978-0.706-0.978-3.01
		C56.46,42.514,58.869,37.695,61.846,37.695 M61.846,36.695c-3.581,0-6.386,5.169-6.386,11.767c0,1.302,0,4.01,1.978,4.01
		c0.688,0,1.322-0.381,2.057-0.821c0.738-0.442,1.575-0.944,2.352-0.944c0.775,0,1.611,0.502,2.349,0.944
		c0.734,0.44,1.368,0.821,2.057,0.821c1.978,0,1.978-2.708,1.978-4.01C68.229,41.864,65.425,36.695,61.846,36.695L61.846,36.695z"/>
</g>
<polygon fill="#4917AA" points="74.432,39.928 80.653,34.184 76.377,34.999 79.021,30.809 73.25,38.31 73.632,33.293 69.22,45.163 
	"/>
<g>
	<path fill="#FFFFFF" d="M76.294,50.916c-0.43,0-0.855-0.255-1.349-0.551c-0.544-0.327-1.161-0.696-1.766-0.696
		s-1.221,0.37-1.764,0.696c-0.493,0.295-0.918,0.551-1.348,0.551c-0.26,0-0.733-0.102-0.979-0.784
		c-0.145-0.401-0.212-0.987-0.212-1.845c0-4.543,1.89-8.102,4.302-8.102c2.414,0,4.306,3.559,4.306,8.102
		C77.485,49.206,77.485,50.916,76.294,50.916z"/>
	<path fill="#4917AA" d="M73.18,40.686c2.101,0,3.806,3.404,3.806,7.602c0,1.629-0.256,2.128-0.691,2.128
		c-0.689,0-1.827-1.247-3.114-1.247c-1.286,0-2.423,1.247-3.111,1.247c-0.435,0-0.69-0.499-0.69-2.128
		C69.378,44.09,71.08,40.686,73.18,40.686 M73.18,39.686c-2.737,0-4.802,3.698-4.802,8.602c0,0.936,0,3.128,1.69,3.128
		c0.568,0,1.071-0.302,1.604-0.622c0.488-0.293,1.041-0.625,1.507-0.625s1.02,0.332,1.509,0.625c0.533,0.32,1.037,0.622,1.605,0.622
		c1.691,0,1.691-2.192,1.691-3.128C77.985,43.384,75.919,39.686,73.18,39.686L73.18,39.686z"/>
</g>
<ellipse fill="#272130" cx="63.821" cy="45.638" rx="1.713" ry="2.109"/>
<ellipse fill="#272130" cx="73.971" cy="45.638" rx="1.713" ry="2.109"/>
<path fill="#4917AA" stroke="#4917AA" d="M28.315,52.82c-2.104,0.641-7.818-0.862-9.419,0.284c-1.472,1.052,5.077,4.791,4.18,6.165
	c-1.091,1.673-9.47,1.046-9.47,3.02c0,1.78,9.177,3.298,10.074,4.84c0.765,1.315-6.859,2.699-5.57,3.749
	c1.307,1.065,2.853,1.97,4.575,2.67c2.559,1.045,5.51,1.639,8.651,1.639c9.794,0,17.732-5.773,17.732-12.897
	c0-7.122-7.938-12.895-17.732-12.895C28.914,49.394,30.419,52.179,28.315,52.82z"/>
<polygon fill="#4917AA" points="72.787,53.865 86.366,63.478 69.753,62.529 "/>
</svg>
