<svg width="47" height="46" viewBox="0 0 47 46" xmlns="http://www.w3.org/2000/svg"><title>cardiffuni</title><g fill="#D73646"><path d="M20.573 6.49c0-1.207-.9-1.8-2.02-1.8-.253 0-.517.022-.746.044-.057.77-.067 1.67-.067 2.46v1.33c.263 0 .505-.012.77-.012 1.173 0 2.063-.802 2.063-2.02zm-8.999 2.16h1.844l-.877-2.216M27.99 16.6c0-.603-.528-.922-1.088-.922-.12 0-.24.012-.362.012a32.93 32.93 0 0 0-.032 1.405v.428h.24c.603 0 1.24-.198 1.24-.922z"/><path d="M.113.943v21.96h46.8V.942H.114zm37.89 3.218c.57 0 .712.43.712.923v.033c-.647-.296-1.657-.318-2.37-.318-.253 0-.506.01-.76.01-.032.868-.075 1.724-.075 2.592h2.053c.23 0 .45.11.45.362 0 .165-.043.33-.043.494-.57-.24-1.174-.253-1.79-.253-.21 0-.517.033-.68.033 0 .856 0 1.614.02 2.23.022.69.077 1.217.188 1.514h-1.165c-.252 0-.35-.208-.35-.428 0-.67.11-2.35.11-3.524 0-.56.012-3.283-.208-3.668h3.907zm-12.035.033c2.438 0 4.172 1.044 4.172 3.668 0 2.56-1.823 3.91-4.27 3.91h-2.186c-.186 0-.363-.12-.363-.32 0-.438.036-.877.046-1.316a83.09 83.09 0 0 0 .033-2.394c0-.658-.01-1.316-.054-1.964-.045-.89-.11-1.33-.264-1.57.833 0 1.898-.013 2.886-.013zM3.118 8.76c0-2.898 1.956-5.27 4.898-5.27.88 0 1.845.22 2.58.604.243.122.484.34.484.637 0 .385-.35.946-.56 1.274-.032-.35-.385-.812-.637-1.032-.55-.483-1.296-.714-2.03-.714-2.196 0-3.338 1.965-3.338 3.964 0 2.338 1.614 4.347 4.03 4.347.725 0 1.712-.407 2.208-.934l.11.933c-.737.56-1.956.822-2.866.822-2.737.002-4.878-1.81-4.878-4.63zm5.46 9.08c-.046 1.176-.77 1.79-1.923 1.79-1.207 0-1.92-.504-1.92-1.767 0-.318.02-.736.02-1.043 0-.735-.01-1.043-.044-1.515h.616c.142 0 .23.054.23.197 0 .538-.065 1.286-.065 1.922 0 .988.123 1.69 1.286 1.69 1.01 0 1.273-.68 1.273-1.548 0-.362.01-.823.01-1.077 0-.45-.01-.736-.076-1.186h.395c.164 0 .295.044.295.23 0 .375-.065 1.187-.098 2.307zm5.21-1.46c-.01.364-.044.726-.044 1.12 0 .703.013 1.417.034 2.13h-.298c-.965-1.053-1.976-1.987-2.998-2.986 0 .527-.02 1.02-.02 1.55 0 .46.01.91.077 1.36-.166 0-.32.01-.474.01-.143 0-.218-.043-.218-.186 0-.307.043-.45.075-1.01.045-.527.033-1.648.033-2.47 0-.21 0-.418-.012-.616h.298c1.01.988 1.964 1.965 2.997 2.92v-.736c0-.713-.013-1.427-.046-2.14h.44c.13 0 .208.076.208.22.002.187-.042.527-.053.835zm.444-5.708l-.626-1.538h-2.25l-.56 1.36a.988.988 0 0 0-.067.33c0 .044 0 .1.01.133h-.582c-.1 0-.22-.022-.22-.12 0-.1.012-.155.067-.276l2.634-5.587.142-.01c.23 0 .286.13.373.328l2.284 5.227c.054.122.186.35.296.43h-1.12c-.22 0-.307-.09-.384-.275zm1.262 8.893c-.23 0-.34-.132-.34-.35 0-.638.043-.88.043-1.934 0-1.107-.02-1.557-.066-1.974h.517c.263 0 .34.12.34.362 0 .527-.043.725-.043 1.57 0 1.13.022 1.845.066 2.327h-.516zm5.63-4.018c-.626 1.34-1.263 2.657-1.823 4.018h-.56c-.58-1.45-1.24-2.865-1.898-4.27.175 0 .382.01.547.01.262.012.426.055.537.308.143.33.253.62.394.948.277.66.614 1.485.835 1.946.34-.69.78-1.707 1.11-2.52.067-.142.198-.515.143-.68h.595c.088 0 .142.078.142.166a.15.15 0 0 1-.022.075zm-1.026-4.467a30.283 30.283 0 0 1-1.417-2.053c-.295.01-.633.023-.93.023 0 .768.045 1.59.143 2.295.034.197.077.35.143.416-.46 0-.91.013-1.383.013-.143 0-.208-.022-.208-.186 0-.395.1-1.603.1-3.7 0-.758-.022-1.745-.022-2.833 0-.23-.044-.68-.154-.867.9-.012 1.8-.033 2.69-.033 1.372 0 2.787.582 2.787 2.163 0 1.24-.823 2.14-1.965 2.504.923 1.384 2.92 3.995 4.454 4.535-.342.033-.634.066-.976.066-1.31 0-2.435-1.254-3.262-2.34zm4.41 8.166c0 .197-.142.296-.328.296h-1.965c-.2 0-.253-.11-.253-.285 0-.714.032-1.428.032-2.142 0-.516 0-1.032-.032-1.548a.642.642 0 0 0-.088-.242h2.24c.362 0 .362.33.362.582-.373-.154-1.284-.154-1.69-.154-.01.22-.033.44-.033.648v.725c.405 0 .845-.044 1.252-.044.175 0 .318.056.318.253 0 .11-.012.23-.022.34-.395-.12-1.12-.13-1.546-.13v.33c0 .108 0 .888.01.998 0 .144 0 .23.164.23h.296c.374 0 .944-.01 1.285-.175v.32zm4.72.78c-.548 0-.91-.176-1.23-.615-.383-.515-.7-1.01-1.032-1.536h-.448c0 .527.01 1.307.075 1.658-.186 0-.372.01-.558.01-.188 0-.31-.065-.31-.273 0-.2.014-.408.024-.605.01-.417.02-.845.02-1.273 0-.593.01-1.306-.02-1.78a.523.523 0 0 0-.1-.285c.177-.01.342-.01.506-.01.352 0 .69.01 1.032.01.77 0 1.56.264 1.56 1.175 0 .68-.495 1.076-1.067 1.24.595.89 1.506 2.108 1.78 2.284h-.23zm1.732-.395c-.296 0-.64-.077-.902-.22-.163-.076-.23-.207-.23-.383 0-.176.076-.35.11-.516.242.373.758.638 1.22.638.448 0 .767-.286.767-.736 0-.934-1.998-.538-1.998-1.966 0-.8.725-1.196 1.47-1.196.264 0 1.09.077 1.09.44 0 .185-.155.394-.232.526-.208-.307-.528-.516-.922-.516-.363 0-.703.21-.703.594 0 .987 1.988.582 1.988 1.92 0 .934-.815 1.417-1.658 1.417zm.676-8.706c-.21 0-.34-.154-.34-.363 0-.273.02-.57.02-.844.022-.615.035-1.23.035-1.833 0-.824.01-2.13-.142-2.91h1.053c.143 0 .31.088.31.253 0 .33-.036.67-.046 1-.01.614-.032 1.24-.032 1.866 0 .58.01 2.306.153 2.81-.34.012-.67.022-1.01.022zm2.392 8.64c-.22 0-.33-.13-.33-.35 0-.637.045-.878.045-1.933 0-1.107-.023-1.557-.066-1.974h.505c.262 0 .35.12.35.362 0 .527-.044.725-.044 1.57 0 1.13.023 1.845.067 2.327h-.527zm4.734-4.03c0 .177-.055.386-.263.386-.3 0-.704-.055-1.12-.055-.024.373-.012 1.032-.012 1.537 0 .955 0 1.56.066 2.163h-.526c-.21 0-.342-.066-.342-.286 0-.637.045-1.044.045-1.912 0-.504 0-1-.02-1.504-.386 0-1.077.01-1.395.077v-.23c0-.252.23-.384.46-.384h3.107v.21zm4.246.045c-.143.207-.296.416-.45.636-.352.495-.703 1-1.01 1.527 0 .614.012 1.218.066 1.822h-.57c-.143 0-.297-.054-.297-.22 0-.23.043-.636.043-1.042v-.473a33.858 33.858 0 0 0-1.68-2.504h.703c.208 0 .35.055.462.242.34.55.658 1.11 1.01 1.647.1-.143.35-.527.582-.91.252-.407.473-.835.482-.978l.56-.01c.076 0 .153.033.153.12a.231.231 0 0 1-.055.142zm1.33-10.936c-.517-.318-2.207-.318-2.856-.318h-.724a82.347 82.347 0 0 0-.088 3.294h2.338c.275 0 .626.077.626.417 0 .154-.077.307-.13.45-.595-.252-1.494-.252-2.143-.252-.065 0-.504.033-.69.044 0 1.35.032 2.722.13 4.073.013.197.046.46.122.637H39.77c-.287 0-.45-.154-.45-.44 0-.45.12-2.996.12-4.5 0-1.867-.022-3.48-.177-4.37h4.523c.308 0 .593.153.593.46 0 .164.013.35-.043.504z"/><path d="M24.684 10.815c.032.23.142.307.372.307h.934c1.942 0 2.81-1.395 2.81-3.196 0-2.053-1.34-3.162-3.293-3.162-.274 0-.548.01-.823.055-.045 1.13-.09 2.26-.09 3.39 0 .616.01 1.352.034 1.846.01.23.01.538.056.76zm11.894 20.432c1.13 0 1.493-.724 1.493-1.734 0-.933-.492-1.745-1.492-1.745-.988 0-1.482.834-1.482 1.745 0 .9.494 1.734 1.482 1.734zm-9.658 9.351c.043.22.152.296.372.296h.933c1.944 0 2.822-1.383 2.822-3.195 0-2.055-1.35-3.163-3.304-3.163-.276 0-.55.022-.813.066-.043 1.12-.1 2.25-.1 3.38 0 .616.013 1.35.034 1.845.013.232.023.55.055.77zM11.295 28.653c0-.604-.527-.922-1.086-.922-.12 0-.243.01-.375.01-.01.33-.022 1.088-.022 1.407v.427h.242c.604.01 1.24-.197 1.24-.92zM21 34.45c-.254 0-.517.02-.748.043a36.37 36.37 0 0 0-.066 2.46v1.328c.263 0 .505-.01.768-.01 1.176 0 2.064-.802 2.064-2.02 0-1.208-.9-1.8-2.02-1.8zm-9.864 3.996h1.835l-.878-2.218M7.03 28.61c0-.624-.428-.855-.99-.843l-.428.01V29.6c.088 0 .23.022.34.022.605 0 1.078-.34 1.078-1.01zm32.716 5.84c-.034.757-.067 1.47-.067 2.294 1.35.208 2.284.944 2.437 2.437.648-.45.956-1.26.956-2.216 0-1.625-1.098-2.57-2.68-2.57-.262 0-.396.023-.647.055zm-.824 5.62c-.163 0-.296-.1-.296-.252.045-.89.067-1.78.067-2.67-.1-.01-.21-.01-.32-.01-.253 0-.406.01-.648.044a44.744 44.744 0 0 0-.077 2.745c0 .736.022 1.394.066 2.12.012.153.122.24.308.24h.757c1.45 0 2.152-.943 2.263-2.228-.11.01-.233.01-.34.01h-1.78z"/><path d="M39.67 37.392c0 .592.032 1.25.077 1.91.01.154.11.253.297.253h.746c.087 0 .176-.01.263-.01-.044-1.044-.572-1.79-1.383-2.153z"/><path d="M.112 46h46.8V24.04H.113V46zm44.038-9.09c0 1.524-.802 2.524-2.02 2.94-.1 1.933-1.528 2.966-3.448 2.966h-1.78c-.164 0-.307-.11-.295-.264.043-1 .066-2.01.066-3.008 0-.78-.022-1.515-.088-2.295-.023-.176-.078-.44-.175-.56.746-.013 1.537-.013 2.284-.013 0-.735-.035-1.438-.09-2.163-.01-.176-.076-.44-.175-.56.79-.01 1.602-.01 2.38-.01 1.978 0 3.34.835 3.34 2.965zm-3.59-9.544c.373 0 .44.11.428.32-.012.416-.032.84-.032 1.235 0 .737 0 1.516.01 2.23.593 0 1.57-.01 1.823-.165v.34c0 .122-.133.307-.287.307h-1.965c-.374 0-.406-.153-.396-.32.022-.416.033-.822.033-1.227V28.93c0-.503-.02-1.026-.053-1.564h.438zm-3.982-.038c1.318 0 2.37.824 2.37 2.185 0 1.362-1.052 2.174-2.37 2.174-1.307 0-2.36-.823-2.36-2.174 0-1.438.955-2.185 2.36-2.185zm-2.878 7.71c.385.713.748 1.427 1.175 2.12.176-.276.518-.836.703-1.176.165-.296.34-.604.483-.9a.777.777 0 0 0 .057-.352h.702c.12 0 .175.066.175.143.01.055-.012.12-.055.187-.625.922-1.208 1.767-1.713 2.68 0 .734 0 1.602.077 2.37h-.78c-.24 0-.36-.11-.35-.297.055-.636.045-1.415.045-2.02-.617-1.042-1.188-1.998-1.923-3.052h.857c.306.002.46.133.546.297zm-2.425-7.71c.614 0 .964.1 1.405.286.12.055.197.177.143.374l-.133.372c-.274-.252-.855-.592-1.415-.592-1.033 0-1.593.767-1.593 1.745 0 .977.603 1.702 1.625 1.702.275 0 .66-.033.91-.143 0-.208.012-.417.012-.626 0-.296 0-.758-.056-.922l.472-.01c.242-.012.374.153.362.317-.01.353-.01.66-.01 1v.56c-.517.154-1.242.297-1.757.297-1.372 0-2.438-.724-2.438-2.174 0-1.515 1.044-2.185 2.473-2.185zm1.102 10.305c0 2.558-1.824 3.91-4.26 3.91H25.92c-.187 0-.363-.11-.363-.32 0-.44.035-.867.056-1.306.022-.8.032-1.603.032-2.405 0-.66-.02-1.317-.053-1.965-.045-.89-.11-1.33-.276-1.56.845 0 1.91-.02 2.888-.02 2.438 0 4.173 1.042 4.173 3.666zM24.92 28.5c0-.8.725-1.208 1.46-1.208.276 0 1.1.088 1.1.45 0 .187-.155.395-.232.527-.208-.31-.527-.528-.922-.528-.363 0-.703.22-.703.604 0 .988 1.988.582 1.988 1.922 0 .922-.812 1.405-1.657 1.405-.295 0-.637-.066-.9-.208-.165-.077-.23-.21-.23-.385 0-.175.076-.35.11-.515.242.373.756.626 1.217.626.45 0 .77-.274.77-.724 0-.934-2-.54-2-1.966zm1.86 14.612c-.34.033-.634.066-.975.066-1.31 0-2.433-1.253-3.26-2.338a30.652 30.652 0 0 1-1.417-2.053c-.297.01-.635.022-.932.022 0 .767.043 1.59.143 2.294.032.197.076.35.142.417-.46 0-.91.01-1.383.01-.145 0-.21-.02-.21-.185 0-.395.1-1.603.1-3.7 0-.758-.022-1.745-.022-2.833 0-.23-.044-.68-.154-.867.9-.012 1.8-.033 2.69-.033 1.374 0 2.788.583 2.788 2.163 0 1.24-.823 2.14-1.965 2.504.922 1.38 2.92 3.992 4.453 4.532zm-5.988-15.75c.21 0 .363.055.473.242.33.548.658 1.11.998 1.658.11-.154.353-.538.594-.922.24-.407.473-.824.473-.978l.57-.01c.078 0 .154.033.154.12 0 .056-.032.1-.055.144-.144.208-.31.417-.452.637-.36.494-.703 1-1.01 1.526 0 .613 0 1.24.067 1.843h-.582c-.13 0-.286-.044-.286-.22 0-.23.044-.658.033-1.054v-.483a37.558 37.558 0 0 0-1.67-2.504h.692zm-1.77.015c.32 0 .253.374.253.593-.427-.165-1.36-.154-1.81-.154-.013.165-.022.33-.022.495v.892c.58 0 1.13-.066 1.45-.066.295 0 .24.373.24.57-.34-.098-1.306-.11-1.69-.11v.56c0 .495.033.977.067 1.47h-.53c-.208 0-.328-.087-.328-.307 0-.57.032-.965.032-1.7 0-.308-.012-1.166-.02-1.572-.024-.23-.045-.44-.057-.67h2.415zm-1.605 6.556a.42.42 0 0 1 .417.43v.24c-.186-.077-.504-.186-1.788-.186-.01.22-.022.55-.022.768 0 .264-.01.604-.01.867.45 0 .856-.054 1.207-.054.32 0 .45.088.44.318l-.022.34c-.395-.13-1.02-.153-1.614-.153v1.538c.012.198.032.296.197.296.638 0 1.22 0 1.66-.22v.352c0 .23-.177.34-.396.34H15.4c-.254 0-.31-.142-.298-.384.02-.483.032-.955.032-1.417 0-.79.012-1.712-.01-2.36 0-.153-.01-.592-.12-.714h2.413zm-2.13 6.807h-1.12c-.22 0-.307-.098-.384-.285l-.614-1.526h-2.263l-.56 1.36a.99.99 0 0 0-.066.33c0 .043 0 .098.012.13H9.71c-.1 0-.22-.02-.22-.13 0-.088.01-.154.067-.265l2.635-5.6h.143c.23 0 .295.132.372.33l2.284 5.226c.055.123.188.354.296.43zm-1.04-13.383c.263 0 .35.12.35.362 0 .526-.043.724-.043 1.57 0 1.13.022 1.843.067 2.326h-.526c-.22 0-.33-.132-.33-.35 0-.65.045-.88.045-1.933 0-1.11-.023-1.56-.067-1.976h.504zm-4.784.01c.34 0 .69.012 1.032.012.757 0 1.56.263 1.56 1.174 0 .68-.496 1.076-1.066 1.25.58.89 1.503 2.1 1.778 2.274h-.23c-.55 0-.912-.176-1.23-.615-.385-.505-.702-1.01-1.032-1.538h-.45c0 .527.01 1.307.076 1.658a8.762 8.762 0 0 1-.56.022c-.187 0-.307-.077-.307-.274 0-.208.01-.405.02-.614.013-.418.023-.846.023-1.263 0-.593.012-1.318-.022-1.79a.622.622 0 0 0-.098-.286c.164.002.34-.01.505-.01zm-3.157.026c.756.012 1.514.275 1.514 1.164 0 1-.943 1.416-1.812 1.416-.132 0-.262 0-.395-.01 0 .548.012 1.14.055 1.657H5.14c-.22 0-.307-.154-.307-.352 0-.43.022-.846.022-1.273 0-.603.022-1.23 0-1.844-.01-.33-.033-.67-.098-.767l1.55.01zm1.68 5.882c.878 0 1.843.22 2.59.604.23.12.47.34.47.636 0 .385-.35.945-.558 1.264-.033-.34-.374-.802-.638-1.033-.55-.483-1.295-.714-2.03-.714-2.197 0-3.338 1.977-3.338 3.975 0 2.34 1.614 4.347 4.04 4.347.714 0 1.702-.416 2.196-.933l.11.933c-.735.56-1.954.824-2.865.824-2.734 0-4.875-1.823-4.875-4.634 0-2.9 1.953-5.27 4.897-5.27z"/></g></svg>