<svg width="47" height="47" viewBox="0 0 47 47" xmlns="http://www.w3.org/2000/svg"><title>Mobile</title><g fill="#D73646"><path d="M20.573 6.491c0-1.208-.9-1.801-2.021-1.801-.252 0-.516.022-.745.044a35.07 35.07 0 0 0-.067 2.46v1.329c.263 0 .505-.011.769-.011 1.174 0 2.064-.802 2.064-2.021zm-8.999 2.16h1.844l-.877-2.217zm16.415 7.95c0-.604-.527-.923-1.087-.923-.12 0-.241.012-.362.012a31.362 31.362 0 0 0-.032 1.405v.428h.241c.602 0 1.24-.198 1.24-.922z"/><path d="M.113.943v21.959h46.801V.943H.113zm37.889 3.218c.572 0 .713.428.713.922v.033c-.647-.296-1.657-.318-2.371-.318-.252 0-.505.01-.758.01-.033.868-.076 1.724-.076 2.592h2.053c.231 0 .45.11.45.362 0 .165-.043.33-.043.494-.571-.241-1.174-.253-1.789-.253-.21 0-.518.033-.682.033 0 .856 0 1.614.021 2.229.022.692.077 1.218.188 1.515h-1.165c-.252 0-.351-.208-.351-.428 0-.67.111-2.35.111-3.524 0-.56.012-3.283-.208-3.668h3.907v.001zm-12.034.032c2.438 0 4.172 1.044 4.172 3.668 0 2.558-1.823 3.909-4.27 3.909h-2.186c-.186 0-.363-.121-.363-.319 0-.439.035-.878.045-1.317a83.09 83.09 0 0 0 .033-2.394c0-.658-.01-1.316-.053-1.964-.045-.889-.111-1.329-.264-1.57.833-.001 1.898-.013 2.886-.013zM3.119 8.761c0-2.899 1.955-5.27 4.897-5.27.879 0 1.845.219 2.581.603.242.122.483.341.483.637 0 .384-.351.945-.56 1.273-.032-.351-.385-.812-.637-1.032-.549-.483-1.296-.714-2.03-.714-2.196 0-3.338 1.965-3.338 3.964 0 2.338 1.614 4.347 4.03 4.347.725 0 1.712-.406 2.208-.933l.11.933c-.737.56-1.956.823-2.866.823-2.737.002-4.878-1.809-4.878-4.631zm5.458 9.08c-.045 1.175-.77 1.79-1.922 1.79-1.207 0-1.921-.505-1.921-1.768 0-.318.022-.736.022-1.043 0-.735-.011-1.043-.045-1.515h.615c.142 0 .23.054.23.197 0 .538-.065 1.286-.065 1.922 0 .988.122 1.691 1.285 1.691 1.01 0 1.273-.682 1.273-1.549 0-.362.012-.823.012-1.077 0-.45-.012-.735-.077-1.185h.395c.165 0 .296.044.296.23 0 .375-.065 1.187-.098 2.307zm5.212-1.46c-.011.363-.045.725-.045 1.12 0 .702.013 1.416.034 2.13h-.298c-.965-1.054-1.976-1.988-2.998-2.987 0 .527-.021 1.021-.021 1.549 0 .46.012.911.078 1.36-.165 0-.319.012-.473.012-.143 0-.218-.044-.218-.187 0-.307.043-.45.075-1.01.045-.527.033-1.648.033-2.471 0-.208 0-.417-.012-.615h.298c1.01.988 1.964 1.965 2.997 2.92v-.736c0-.713-.012-1.427-.045-2.141h.44c.131 0 .208.077.208.22.002.188-.042.528-.053.836zm.443-5.709l-.626-1.538h-2.251l-.56 1.361a1 1 0 0 0-.066.33.5.5 0 0 0 .011.132h-.582c-.099 0-.22-.022-.22-.121a.56.56 0 0 1 .067-.275l2.634-5.588.143-.011c.23 0 .286.132.373.329l2.284 5.226c.055.122.187.351.297.429h-1.121c-.218 0-.306-.088-.383-.274zm1.262 8.893c-.231 0-.34-.132-.34-.351 0-.637.043-.878.043-1.933 0-1.108-.021-1.558-.066-1.975h.516c.263 0 .34.12.34.362 0 .527-.043.725-.043 1.57 0 1.131.022 1.845.066 2.327h-.516zm5.629-4.018c-.625 1.34-1.262 2.657-1.822 4.018h-.56c-.582-1.45-1.24-2.865-1.899-4.271.175 0 .382.012.547.012.263.011.427.054.538.307.143.329.253.619.394.948.276.659.613 1.484.834 1.945.341-.69.781-1.707 1.111-2.519.066-.143.197-.516.142-.68h.595c.088 0 .142.077.142.165a.161.161 0 0 1-.022.075zm-1.025-4.467a30.283 30.283 0 0 1-1.417-2.053c-.296.011-.634.023-.931.023 0 .768.045 1.591.143 2.295.034.197.077.351.143.416-.461 0-.911.012-1.383.012-.143 0-.208-.022-.208-.186 0-.395.1-1.603.1-3.7 0-.758-.022-1.745-.022-2.833 0-.23-.044-.68-.154-.867.9-.012 1.8-.033 2.69-.033 1.373 0 2.788.582 2.788 2.163 0 1.241-.823 2.141-1.965 2.504.923 1.383 2.92 3.994 4.454 4.534-.342.033-.634.066-.976.066-1.309-.002-2.435-1.255-3.262-2.341zm4.411 8.166c0 .197-.143.296-.329.296h-1.965c-.199 0-.253-.11-.253-.285 0-.714.032-1.428.032-2.142 0-.516 0-1.032-.032-1.548a.642.642 0 0 0-.088-.242h2.239c.363 0 .363.33.363.582-.373-.154-1.284-.154-1.691-.154-.01.221-.032.44-.032.648v.724c.405 0 .845-.044 1.252-.044.175 0 .318.055.318.252 0 .109-.012.231-.022.341-.396-.121-1.12-.131-1.547-.131v.329c0 .109 0 .889.01.999 0 .143 0 .23.164.23h.296c.374 0 .944-.01 1.285-.176v.321zm4.72.78c-.549 0-.911-.176-1.23-.615a22.814 22.814 0 0 1-1.033-1.537h-.448c0 .527.01 1.307.075 1.658-.186 0-.372.011-.558.011-.188 0-.309-.066-.309-.274 0-.198.013-.407.023-.604.012-.417.022-.845.022-1.273 0-.593.01-1.306-.022-1.779a.529.529 0 0 0-.098-.286c.176-.01.341-.01.505-.01.352 0 .691.01 1.032.01.769 0 1.559.264 1.559 1.175 0 .681-.494 1.076-1.066 1.241.594.889 1.505 2.107 1.779 2.283h-.231zm1.731-.395c-.296 0-.639-.078-.902-.22-.163-.077-.229-.208-.229-.384 0-.176.075-.351.109-.516.242.372.758.637 1.219.637.449 0 .768-.286.768-.736 0-.934-1.998-.538-1.998-1.966 0-.801.725-1.196 1.47-1.196.264 0 1.089.077 1.089.439 0 .186-.154.395-.231.527-.208-.307-.528-.516-.922-.516-.363 0-.703.209-.703.594 0 .987 1.988.582 1.988 1.921-.001.933-.815 1.416-1.658 1.416zm.676-8.707c-.21 0-.341-.154-.341-.363 0-.274.022-.57.022-.845.021-.615.034-1.23.034-1.833 0-.824.01-2.131-.143-2.91h1.053c.142 0 .308.088.308.253 0 .329-.035.669-.045.999-.011.615-.032 1.241-.032 1.867 0 .581.01 2.306.153 2.81-.34.012-.669.022-1.009.022zm2.392 8.641c-.22 0-.33-.132-.33-.351 0-.637.045-.878.045-1.933 0-1.108-.023-1.558-.066-1.975h.505c.262 0 .35.12.35.362 0 .527-.044.725-.044 1.57 0 1.131.023 1.845.067 2.327h-.527zm4.734-4.03c0 .176-.055.385-.263.385-.298 0-.703-.055-1.12-.055-.023.373-.011 1.032-.011 1.537 0 .955 0 1.559.066 2.163h-.526c-.21 0-.342-.066-.342-.286 0-.636.045-1.043.045-1.911 0-.504 0-.999-.022-1.504-.385 0-1.076.01-1.394.077v-.231c0-.252.23-.384.46-.384h3.107v.209zm4.246.044c-.143.208-.296.417-.45.637-.352.495-.703.999-1.01 1.527 0 .614.012 1.218.066 1.822h-.57c-.143 0-.297-.054-.297-.219 0-.231.043-.637.043-1.043v-.473a33.948 33.948 0 0 0-1.679-2.504h.702c.208 0 .351.055.462.242.34.549.658 1.109 1.009 1.647.1-.143.351-.527.583-.911.252-.406.473-.834.482-.977l.56-.01c.077 0 .154.033.154.121a.23.23 0 0 1-.055.141zm1.329-10.935c-.516-.318-2.206-.318-2.855-.318h-.724a82.347 82.347 0 0 0-.088 3.294h2.338c.275 0 .626.077.626.417 0 .154-.077.307-.131.45-.594-.252-1.493-.252-2.142-.252-.066 0-.505.033-.691.044 0 1.351.032 2.723.131 4.074.012.197.045.46.121.637H39.77c-.287 0-.451-.154-.451-.439 0-.45.12-2.997.12-4.502 0-1.866-.021-3.48-.176-4.37h4.523c.308 0 .593.154.593.462.001.163.014.349-.042.503z"/><path d="M24.684 10.815c.032.23.142.307.372.307h.934c1.942 0 2.81-1.395 2.81-3.196 0-2.053-1.339-3.162-3.293-3.162-.274 0-.548.011-.823.055a85.373 85.373 0 0 0-.089 3.392c0 .615.01 1.351.033 1.845.011.231.011.538.056.759zm11.894 20.432c1.13 0 1.493-.724 1.493-1.734 0-.933-.493-1.745-1.493-1.745-.988 0-1.482.834-1.482 1.745 0 .901.494 1.734 1.482 1.734zm-9.659 9.351c.044.219.153.296.373.296h.933c1.944 0 2.822-1.383 2.822-3.195 0-2.054-1.351-3.162-3.304-3.162-.276 0-.55.022-.813.066-.043 1.119-.099 2.251-.099 3.381 0 .615.012 1.35.033 1.844.013.232.023.55.055.77zM11.295 28.653c0-.604-.527-.922-1.086-.922-.12 0-.242.01-.374.01-.01.33-.022 1.087-.022 1.406v.427h.242c.604.011 1.24-.197 1.24-.921zm9.704 5.796c-.253 0-.516.022-.747.044a36.323 36.323 0 0 0-.066 2.459v1.329c.263 0 .505-.011.768-.011 1.176 0 2.064-.802 2.064-2.021 0-1.207-.9-1.8-2.019-1.8zm-9.863 3.997h1.835l-.879-2.218zM7.03 28.611c0-.625-.428-.856-.99-.844l-.428.01V29.6c.088 0 .231.022.341.022.604 0 1.077-.341 1.077-1.011zm32.716 5.838c-.034.758-.067 1.471-.067 2.295 1.352.208 2.285.944 2.438 2.437.648-.45.956-1.262.956-2.217 0-1.625-1.098-2.569-2.68-2.569-.262 0-.396.022-.647.054zm-.824 5.622c-.163 0-.296-.1-.296-.253.045-.889.067-1.779.067-2.669-.1-.011-.21-.011-.32-.011-.253 0-.406.011-.648.044a44.744 44.744 0 0 0-.077 2.745c0 .736.022 1.394.066 2.119.012.154.122.242.308.242h.757c1.45 0 2.153-.944 2.264-2.229-.111.012-.233.012-.34.012h-1.781z"/><path d="M39.67 37.392c0 .592.032 1.251.077 1.91.011.154.109.253.297.253h.746c.087 0 .176-.011.263-.011-.044-1.043-.572-1.79-1.383-2.152z"/><path d="M.112 45.999h46.801V24.041H.112v21.958zm44.038-9.09c0 1.525-.802 2.525-2.021 2.942-.099 1.932-1.527 2.965-3.447 2.965h-1.779c-.165 0-.308-.11-.296-.264.043-.999.066-2.009.066-3.008 0-.779-.022-1.515-.088-2.295-.023-.175-.078-.439-.175-.56.746-.012 1.537-.012 2.284-.012 0-.735-.035-1.438-.089-2.163-.011-.176-.077-.439-.176-.56.79-.011 1.603-.011 2.381-.011 1.978.002 3.34.836 3.34 2.966zm-3.59-9.543c.373 0 .439.11.428.319-.012.417-.032.841-.032 1.236 0 .736 0 1.515.01 2.229.593 0 1.571-.011 1.823-.165v.34c0 .122-.132.307-.286.307h-1.965c-.374 0-.406-.153-.396-.319.022-.417.033-.823.033-1.228v-1.154c0-.504-.021-1.027-.053-1.565h.438zm-3.982-.038c1.318 0 2.371.824 2.371 2.185 0 1.362-1.053 2.174-2.371 2.174-1.307 0-2.361-.823-2.361-2.174 0-1.438.956-2.185 2.361-2.185zM33.7 35.037c.385.714.748 1.428 1.175 2.12.176-.275.518-.835.703-1.175.165-.296.341-.604.483-.9a.79.79 0 0 0 .056-.352h.702c.121 0 .176.066.176.143.011.055-.012.12-.055.187-.625.922-1.208 1.767-1.713 2.679 0 .735 0 1.603.077 2.371h-.779c-.241 0-.362-.11-.351-.297.055-.636.045-1.415.045-2.02-.616-1.042-1.187-1.998-1.922-3.052h.857c.306.001.459.132.546.296zm-2.425-7.709c.614 0 .964.1 1.405.286.12.055.197.177.143.374l-.133.372c-.274-.252-.855-.592-1.415-.592-1.033 0-1.593.767-1.593 1.745 0 .977.603 1.702 1.625 1.702.275 0 .659-.033.911-.143 0-.208.011-.417.011-.626 0-.296 0-.758-.055-.922l.472-.011c.242-.011.374.154.362.318-.011.352-.011.659-.011 1v.56c-.516.153-1.241.296-1.756.296-1.373 0-2.439-.724-2.439-2.174.001-1.515 1.044-2.185 2.473-2.185zm1.102 10.305c0 2.558-1.824 3.909-4.26 3.909h-2.196c-.188 0-.364-.11-.364-.318 0-.44.035-.868.056-1.307.022-.801.032-1.603.032-2.405a39.9 39.9 0 0 0-.053-1.965c-.045-.889-.111-1.329-.276-1.559.845 0 1.91-.022 2.888-.022 2.438 0 4.173 1.043 4.173 3.667zM24.921 28.5c0-.801.724-1.208 1.46-1.208.275 0 1.098.088 1.098.45 0 .187-.154.395-.231.527-.208-.309-.527-.527-.922-.527-.363 0-.703.219-.703.604 0 .988 1.988.582 1.988 1.922 0 .922-.813 1.405-1.658 1.405-.295 0-.637-.066-.9-.208-.165-.077-.231-.209-.231-.385 0-.175.077-.351.111-.515.242.373.756.626 1.217.626.451 0 .769-.275.769-.725 0-.934-1.998-.539-1.998-1.966zm1.859 14.612c-.34.033-.634.066-.975.066-1.309 0-2.433-1.253-3.26-2.338a30.77 30.77 0 0 1-1.417-2.053c-.297.011-.635.022-.932.022 0 .768.043 1.592.143 2.295.033.197.077.351.143.417-.46 0-.911.01-1.383.01-.144 0-.21-.021-.21-.186 0-.395.1-1.603.1-3.7 0-.758-.021-1.745-.021-2.833 0-.23-.044-.68-.154-.867.9-.012 1.801-.033 2.69-.033 1.374 0 2.788.583 2.788 2.163 0 1.241-.823 2.141-1.965 2.504.922 1.382 2.92 3.993 4.453 4.533zm-5.988-15.75c.21 0 .363.055.473.242.329.548.658 1.109.998 1.658.111-.154.353-.538.594-.922.241-.407.473-.824.473-.978l.571-.01c.077 0 .153.033.153.121 0 .055-.032.098-.055.143-.143.208-.308.417-.451.637-.361.494-.703.999-1.009 1.526 0 .614 0 1.24.066 1.844h-.582c-.131 0-.286-.044-.286-.219 0-.231.044-.659.033-1.055v-.482a37.674 37.674 0 0 0-1.669-2.504h.691v-.001zm-1.77.015c.32 0 .253.374.253.593-.427-.165-1.36-.154-1.811-.154-.012.165-.021.33-.021.495v.891c.581 0 1.131-.066 1.449-.066.296 0 .241.373.241.571-.34-.099-1.306-.11-1.689-.11v.56c0 .494.032.976.066 1.47h-.53c-.208 0-.328-.088-.328-.308 0-.57.032-.964.032-1.7 0-.307-.012-1.165-.021-1.571-.023-.231-.044-.439-.056-.669h2.415v-.002zm-1.605 6.556a.42.42 0 0 1 .417.429v.241c-.186-.077-.504-.186-1.788-.186-.011.219-.022.549-.022.768 0 .264-.011.604-.011.867.451 0 .857-.054 1.208-.054.318 0 .45.088.439.318l-.022.341c-.395-.132-1.021-.154-1.614-.154v1.537c.012.198.032.296.197.296.637 0 1.219 0 1.658-.219v.351c0 .231-.176.341-.395.341h-2.085c-.253 0-.308-.143-.297-.385.021-.483.032-.955.032-1.417 0-.79.012-1.712-.011-2.36 0-.153-.01-.592-.12-.714h2.414zm-2.131 6.807h-1.118c-.22 0-.308-.098-.385-.285l-.614-1.526h-2.262l-.561 1.361c-.042.12-.065.23-.065.329 0 .044 0 .099.011.132H9.71c-.099 0-.219-.022-.219-.132 0-.087.01-.153.066-.264l2.635-5.599h.143c.23 0 .295.131.372.329l2.284 5.226c.054.122.187.353.295.429zm-1.039-13.383c.263 0 .351.12.351.362 0 .527-.044.725-.044 1.57 0 1.131.022 1.844.067 2.327h-.527c-.22 0-.33-.132-.33-.351 0-.648.045-.878.045-1.932 0-1.109-.022-1.559-.066-1.976h.504zm-4.784.011c.34 0 .691.011 1.032.011.757 0 1.559.264 1.559 1.175 0 .681-.495 1.076-1.065 1.251.582.889 1.504 2.098 1.779 2.273h-.231c-.549 0-.911-.176-1.229-.615-.385-.505-.702-1.011-1.032-1.538h-.451c0 .527.01 1.307.077 1.658a8.765 8.765 0 0 1-.561.022c-.186 0-.306-.077-.306-.274 0-.209.01-.406.021-.615.012-.418.022-.846.022-1.263 0-.593.012-1.318-.022-1.79a.638.638 0 0 0-.098-.286c.164.002.34-.009.505-.009zm-3.157.025c.756.012 1.514.275 1.514 1.164 0 .999-.943 1.416-1.812 1.416-.132 0-.262 0-.395-.011 0 .549.012 1.142.055 1.658h-.527c-.22 0-.308-.154-.308-.352 0-.429.022-.846.022-1.273 0-.603.022-1.23 0-1.844-.011-.33-.033-.67-.098-.768l1.549.01zm1.679 5.882c.879 0 1.844.219 2.591.604.23.121.471.34.471.637 0 .385-.35.945-.559 1.264-.033-.341-.374-.802-.638-1.033-.549-.483-1.295-.714-2.031-.714-2.196 0-3.337 1.977-3.337 3.975 0 2.339 1.614 4.347 4.04 4.347.714 0 1.702-.416 2.196-.933l.111.933c-.736.561-1.955.824-2.866.824-2.734 0-4.875-1.822-4.875-4.633 0-2.9 1.953-5.271 4.897-5.271z"/></g></svg>