<svg xmlns="http://www.w3.org/2000/svg" xmlns:xlink="http://www.w3.org/1999/xlink" width="160" height="120" viewBox="0 0 160 120"><defs><path id="a" d="M9 19.2h142v81.5H9z"/><clipPath id="b"><use xlink:href="#a"/></clipPath></defs><path clip-path="url(#b)" fill="#d0d0d0" d="M146.2 33.2c-.3 0-30.7-8.7-65.6-9.4h-.2c-34.8.8-65.6 9.4-65.8 9.4l-3.2 1V85l3.2 1c.3 0 31 8.6 65.8 9.3h.2c35-.8 65.3-9.3 65.6-9.4l3.2-1V34l-3.2-.8z"/><path clip-path="url(#b)" fill-rule="evenodd" fill="#1d1d1b" d="M80.4 28.3c-34.7.8-64.6 9.3-64.6 9.3v44.2s30 8.5 64.6 9.3C115 90.4 145 82 145 82V37.6s-30-8.6-64.6-9.3"/><path clip-path="url(#b)" fill-rule="evenodd" fill="#1d1d1b" d="M54.4 55.5l-11.2.2h-1v27l5.3.8 2.6.4V73h1c.4.8 3.8 11.2 3.8 11.2h.5l3.4.4 4 .3 1 .2-.3-1-1.2-3.4L59 72c3.5-1.6 5.3-4.3 5.3-8 0-.8-.2-3.7-2.5-6-1.7-1.7-4.3-2.6-7.4-2.5m-2 6h1c1 0 2 1 2 2.4s-.5 2.4-2 2.5H50v-5h2.5"/><path clip-path="url(#b)" fill="none" stroke="#1d1d1b" stroke-width=".5" stroke-miterlimit="3.9" d="M54.4 55.5l-11.2.2h-1v27l5.3.8 2.6.4V73h1c.4.8 3.8 11.2 3.8 11.2h.5l3.4.4 4 .3 1 .2-.3-1-1.2-3.4L59 72c3.5-1.6 5.3-4.3 5.3-8 0-.8-.2-3.7-2.5-6-1.7-1.7-4.3-2.6-7.4-2.5m-2 6h1c1 0 2 1 2 2.4s-.5 2.4-2 2.5H50v-5h2.5z"/><path clip-path="url(#b)" fill-rule="evenodd" fill="#1d1d1b" d="M75 68l1.6 6.3h-3c0-1 .7-4 1.4-6.4M78.8 55h-8l-8 29v.8h1l7.2.6V85s1-3.7 1-4.5h6c.3 1.2 1 4 1 4.6l.2.6h8.3l-.2-1c-.3-1.2-7-26.7-7.8-29v-.4h-.7"/><path clip-path="url(#b)" fill="none" stroke="#1d1d1b" stroke-width=".5" stroke-miterlimit="3.9" d="M75 68l1.6 6.3h-3c0-1 .7-4 1.4-6.4zm3.8-13h-8l-8 29v.8h1l7.2.6V85s1-3.7 1-4.5h6c.3 1.2 1 4 1 4.6l.2.6h8.3l-.2-1c-.3-1.2-7-26.7-7.8-29v-.4h-.7"/><path clip-path="url(#b)" fill-rule="evenodd" fill="#1d1d1b" d="M98.3 85l5.3-.4 2-.2V70.6l6.3 13h.4l7-1.2V55.6h-6.9v13.8c-.7-1.5-.8-1.3-6.4-13.8h-7.8V85"/><path clip-path="url(#b)" fill="none" stroke="#1d1d1b" stroke-width=".5" stroke-miterlimit="3.9" d="M98.3 85l5.3-.4 2-.2V70.6l6.3 13h.4l7-1.2V55.6h-6.9v13.8c-.7-1.5-.8-1.3-6.4-13.8h-7.8V85"/><path clip-path="url(#b)" fill-rule="evenodd" fill="#1d1d1b" d="M87.4 56v29.6h.7l4.3-.2 3-.2V55.4h-7.9"/><path clip-path="url(#b)" fill="none" stroke="#1d1d1b" stroke-width=".5" stroke-miterlimit="3.9" d="M87.4 56v29.6h.7l4.3-.2 3-.2V55.4h-7.9v.6"/><path clip-path="url(#b)" fill-rule="evenodd" fill="#1d1d1b" d="M27.7 70c1 .2 3.3.3 3.3.3 1 0 1.5 1 1.5 2 0 1.2-.5 2-1.5 1.8l-3.3-.4V70M32 56H20v22.2l10.3 2.2c3.2.5 6.4.6 8.8-1.7 1.5-1.5 2.2-3.4 2.2-5.4 0-2.6-1.3-4.8-3.4-6 1-.7 2.7-2.2 2.7-5 0-1.8-.8-3.4-2-4.5-1.4-1.4-3.6-2-6.4-2M30 61.4h.8c1 0 1.4 1 1.4 1.6 0 .7-.2 1.7-1.3 1.7h-3v-3.2h2"/><path clip-path="url(#b)" fill="none" stroke="#1d1d1b" stroke-width=".5" stroke-miterlimit="3.9" d="M27.7 70c1 .2 3.3.3 3.3.3 1 0 1.5 1 1.5 2 0 1.2-.5 2-1.5 1.8l-3.3-.4V70M32 56H20v22.2l10.3 2.2c3.2.5 6.4.6 8.8-1.7 1.5-1.5 2.2-3.4 2.2-5.4 0-2.6-1.3-4.8-3.4-6 1-.7 2.7-2.2 2.7-5 0-1.8-.8-3.4-2-4.5-1.4-1.4-3.6-2-6.4-2M30 61.4h.8c1 0 1.4 1 1.4 1.6 0 .7-.2 1.7-1.3 1.7h-3v-3.2h2z"/><path clip-path="url(#b)" fill-rule="evenodd" fill="#1d1d1b" d="M121.7 63.5c0 3.7 2 6 5.8 7l2.3.3c2.2.3 3.7.4 3.7 1.7 0 .2-.2 2-3 2-3 0-4.8-3.4-5-3.6l-5.4 5s2.8 5 10.4 5c8 0 11-5 11.2-8.8 0-3.6-2.2-6.2-6.4-7-.7-.3-1.4-.4-2.2-.5h-.3c-2.4-.3-2.7-1-2.7-1.6 0-.3.5-1 2-1 2 0 3.3.8 5 2h.2l.2-.2 3.3-4.4.3-.5-.5-.5c-1.6-1.2-4.7-2.7-8.7-2.8-6.3-.3-10 3.5-10 7.8"/><path clip-path="url(#b)" fill="none" stroke="#1d1d1b" stroke-width=".5" stroke-miterlimit="3.9" d="M121.7 63.5c0 3.7 2 6 5.8 7l2.3.3c2.2.3 3.7.4 3.7 1.7 0 .2-.2 2-3 2-3 0-4.8-3.4-5-3.6l-5.4 5s2.8 5 10.4 5c8 0 11-5 11.2-8.8 0-3.6-2.2-6.2-6.4-7-.7-.3-1.4-.4-2.2-.5h-.3c-2.4-.3-2.7-1-2.7-1.6 0-.3.5-1 2-1 2 0 3.3.8 5 2h.2l.2-.2 3.3-4.4.3-.5-.5-.5c-1.6-1.2-4.7-2.7-8.7-2.8-6.3-.3-10 3.5-10 7.8"/><path clip-path="url(#b)" fill-rule="evenodd" fill="#d0d0d0" d="M71 55.8h7.3L86 85h-6.7L78 80h-7l-1.2 5c-2 0-5.8-.4-6.7-.4.8-2.3 8-28.8 8-28.8m6 19c-.2-1.4-2.3-9.3-2.4-9.7L72 75h5m10.8-19.2h6.6v28.7l-6.6.3v-29M113 72V56h5.6v26l-6.4 1c-.6-1.2-7-14.8-7.4-15.4V84c-2.3 0-3.6.2-6 .4V56h6.5l7.7 16m-50-8c0-2.8-1.4-8-9.2-8l-11.3.2v26l6.4 1V72.4H51c.2 1 3 9.4 3.7 11.4l7 .5-4.5-13C61 70.3 63 68 63 64m-10 3h-3.8v-6h4c1.4 0 2.8 1.3 2.8 3 0 2.2-1.6 3-3 3m-17 .2c1-.4 3.3-1.7 3.3-5 0-3-1.8-6-7.5-5.8l-11.4.2V78l9.6 2c.8.2 1.8.2 2.6.2 6 0 7.4-4.2 7.4-7 0-3-1.6-5.2-4-6m-5.3 7.4l-4-.6v-4.4l4 .3c1.3 0 2.2 1 2.2 2.4 0 1.5-1 2.4-2.3 2.2m-4-13.6H30c1.2 0 2.3.5 2.3 2s-1 2-2.2 2h-3.3v-4zm108.2 4.5c3.6.8 5.8 3.3 5.7 6.7 0 4.2-3.6 8-9.8 8.5-4 .3-8-1-10.2-4.3l4.3-4.2c2 2.8 4.4 3.2 6 3 2.3-.3 3-1.6 3-2.4 0-1.5-1.7-2-3.8-2.2-1 0-1.8-.3-2.8-.5-2.8-1-5.3-2.7-5.2-6.6 0-3.8 3.4-7.5 9.4-7.3 3.8.2 7 1.8 8.3 3-.7.8-2.7 3.8-3.2 4.2-1.5-1-3.2-1.8-5-1.8-2.5 0-3 1-3 1.6 0 1.5 1.6 1.8 4 2 .8 0 1.6.2 2.3.4"/><path clip-path="url(#b)" fill-rule="evenodd" fill="#f7e9b8" d="M84.8 84l-7.2-27.2H72c-1 4-6 21.5-7.4 26.6l4.5.3 1.3-5H79l.2 1 1 4.2h4.6M75 62.3l1.3 5 2.2 8.5h-7.7l.3-1.4 3-12 1-.2M93.3 57h-4.5v27c1.2-.2 3-.2 3-.2h1.5V57zM113 75.2l-1-2.6-4.7-9.7-2.7-6h-5v26.2c1.4 0 4-.3 4-.3V64.3h.7l1.3 2.8 7 14.7 4.8-.8V57h-3.5v18h-1zm-55.8-4.7l-1 .4.4 1 3.4 9.3.7 2-2.3-.3-2.5-.2-2-5.5-1.6-5-.2-.8H48V82h-.8l-3.5-.6v-24L54 57c6.7 0 8 5 8 7 0 3-1.6 5.2-4.8 6.5m-4-10.4H49l-1 .2v8h5.2c1.8 0 4-1.2 4-4.2 0-2-2-4-4-4M34 79c-.7 0-2.4 0-3.8-.2l-6-1.3-2.8-.6V57.5h4l6.3-.2c5.8-.2 6.2 4 6.2 4.7 0 3.3-2 4.4-4.3 5v.5c1.3.5 5 1.5 5 6 0 .5 0 4.7-4.7 5.5m-3.2-10.2l-4-.3h-1v6.4h.8l4 .6c2.5.3 3.7-1.5 3.7-3.2-.2-2-1.6-3.4-3.5-3.6m-.7-2.6c2.3 0 3.5-1.6 3.5-3.2 0-2.2-1.8-3-3.5-3h-4.4v6h1l3.5.2M139.4 72c0-2.8-1.5-5-4.8-5.7l-2-.3c-2.6-.5-5-.7-5-3 0-.7.4-1.4.8-1.8.7-.7 1.8-1 3.3-1 1.7 0 3.4.6 4.8 1.5l2-2.7c-1.5-1-4-2-7-2-5.5-.2-8.2 3-8.2 6.3 0 3 1.3 4.6 4.3 5.4l2.7.5c2.4.4 4.7 1 4.7 3.3 0 1.3-1 3.2-4 3.4-1.5 0-4.3 0-6.2-2.6L122 76c2.2 2.6 5.2 3.4 8.8 3.2 5.2-.2 8.5-3.4 8.6-7.2"/><path clip-path="url(#b)" fill-rule="evenodd" fill="#d0d0d0" d="M39 37.6v7.2h3.7v-1.4h-2v-1.6h1.8v-1.3h-2V39h2.2v-1.4m3.5 4.4c.6.6.7.6.7 1.2 0 .2 0 .5-.6.5-.5 0-.5-.4-.5-.6v-.5H44c0 1 0 1.5.5 2 .4.2 1 .3 1.8.3 1 0 1.5-.2 1.8-.5.3-.3.5-.7.5-1.5 0-1-.3-1.3-1-1.8l-1.4-1c-.3-.2-.3-.3-.3-.7 0-.3 0-.6.5-.6s.5.2.5.6v.5h1.6c0-1.6 0-2.3-2-2.3-1.8 0-2.2.6-2.2 2 0 1 .3 1.3 1 1.8l.8.8zm3.2-3h1.4v5.8h1.8v-6H54v-1.2h-4.6m5.8 4.4H58c1.4 0 1.8-1 1.8-1.8v-.7c0-1-.4-2-2-2h-2.6v4.6zm2.2-3c.5 0 .7.2.7.7v.5c0 .5-.2.8-.5.8H57v-2h.4zm-1.2 5c.2-.4.8-1 1-1.2.5.4 1 1 1.2 1l-1 1.2-1.2-1m42.2-4c.4 0 .6 0 1-.4v5.2h1.6v-7h-1.3c-.3.6-.7.8-1.3.8V40zm8.6 2.4c0-.8 0-1-.8-1.4.8-.3.8-.7.8-1.7 0-.3 0-1-.6-1.4-.4-.4-1-.5-1.4-.5-2 0-2 1.3-2 2 0 1 .2 1.3.7 1.4-.8.2-1 .5-1 1.4 0 1 0 1.4.4 1.8.6.7 1.6.7 2 .7.5 0 1-.2 1.5-.5.5-.4.5-.8.5-1.3v-.8zm-2-3.6c.5 0 .5.3.5.7 0 .8 0 1-.2 1h-.4c-.6 0-.6-.2-.6-.8 0-.6 0-1 .6-1m0 3c.5 0 .5.2.5 1s0 1-.6 1c-.3 0-.5 0-.6-.2v-1c0-.6 0-1 .6-1m8.2.9c0-.8-.2-1-1-1.4.8-.3.8-.7.8-1.7 0-.3 0-1-.6-1.4-.4-.4-1-.5-1.4-.5-2 0-2 1.3-2 2 0 1 .2 1.3.7 1.4-.8.2-1 .5-1 1.4 0 1 0 1.4.4 1.8.4.7 1.4.7 1.7.7.6 0 1-.2 1.6-.5.5-.4.5-.8.5-1.3v-.8zm-2.2-3.6c.5 0 .5.3.5.7 0 .8 0 1-.2 1h-.3c-.5 0-.5-.2-.5-.8 0-.6 0-1 .6-1m0 3c.5 0 .5.2.5 1s0 1-.6 1c-.2 0-.4 0-.5-.2v-1c0-.6 0-1 .6-1m3.5-1.1h1.5v-1c0-.2 0-.6.5-.6s.5.5.5.6v.5c0 .4-.2.6-1 1.4-1.7 1.4-1.7 1.7-1.7 3.4h4.2v-1.4H116c.3-.6.4-.7 1.4-1.6 1-1 1.2-1 1.2-2.3 0-.7 0-1-.4-1.5-.2-.2-.7-.5-1.6-.5-.6 0-1 0-1.4.3-.7.5-.7 1-.7 1.6v1z"/><path clip-path="url(#b)" fill-rule="evenodd" fill="#dc1915" d="M80.7 43.8l.5-.2c.3 0 .7-.3 1-.4l1-.5h-1L84 42c.4-.3 1.5-1 2.5-1s1.7.6 1.8.7l.3.4v.2c-.2 0-.6 0-1.2.4-1 .5-2 1.6-2.2 2.5-.2 1 .5 1 .7 1 .2 0 .6 0 1-.4.2-.3.5-.2.6-.2h.5c.3 0 .4.2.4.2H88v.2h-1 .6l.2.4s.3 0 .3.3v-.1h-.8s-.5-.3-.8-.3c-.3 0-.7 0-1 .4-.4.3-.2.6-.2.7 0 0 0 .3-.2.3H85v.4s-.3 0-.4-.2v-.7l.2-.2s.3 0 .3-.3c0-.2 0-.5-.6-.7-.6-.2-1 0-1 0s-.2 0 0 0c0-.2 0-.4.2-.6 0-.2.3-.4 0-.4H83c-.5 0-.7-.2-.7-.2h.7c.3 0 1-.2 1.3-1 .4-.6.3-.7.3-.7s-.6.6-1.4.8c-.8.2-1.6 0-2 0h-.5m-3.3-14.1s.7 0 1.6 1c1 .7 1 1.7 1 2.3 0 .6.4 1.5.5 1.7-.3 0-1-.7-1.5-1.4-.5-1-.2-1 .3-.5l.6.6s0-.4-.7-1c-.6-.8-1-.8-1-.8s.5-.2.3-.6c0-.8-1.2-1.2-1.2-1.2M72.8 42s.4 0 .6-.6c.2-.6 0-1 0-1s.4.4.7.8l.8 1 .3-.2h.4s-.5-.4-.8-.8c-.3-.4-1-.8-1.4-1l-.8-.3h.6l.7.2h1.5s-.7-.6-2-.7h-2.8l.4.3c.2 0 1.6.4 2 1.4.3.6 0 .8 0 .8"/><path clip-path="url(#b)" fill-rule="evenodd" fill="#dc1915" d="M73 49.8v-.4l.4-.2s0-.3.4-.2c.4 0 .8 0 1-.3.3-.5 0-1-.3-1.5-.3-.3-.3-.7 0-.6h.7c.2-.2.2-.2 0-.4-.3-.5-.2-1 0-.6 0 .3 1 .5 1.5 0 .5-.7.5-1.3.3-1.2-.7.4-2 .3-2.2-.6-.4-1.2.7-1.7 1.5-1.7s1 .6 1 .8c0 0 0 .5-.6.5-.5 0-1-.5-.2-.6h-.2c-.4 0-1 .3-1 .6 0 .4.5.6 1 .6.3 0 1-.5 1.5-1.2.4-.7 1.2-1 1.6-1 .4 0 .7 0 0 .8-.5.4-1.2.8-1.5 1.4l-.3 1s.4-1 1.7-2c1.2-.7 1.8-1.6.6-2-1-.2-2 .5-2 .5s.8-.8 1.8-1.3l1.6-.7s-.8 0-1.7.4l-1.2.5s0-.4-.8-.3c-.7 0-1.4.5-1.4.5s1-1 2.3-1.5l2-.7s-.8 0-2 .3c-1 .3-1.8.8-1.8.8s.2-.4-.3-.5c-.7 0-1.7.3-1.7.3s.8-.6 2.4-1.2c1.3-.4 2.7-.4 2.7-.4H78c-1.2 0-2.5.5-2.5.5s.4-.4-.5-.6c-1.2-.2-2 0-2 0s1.6-.7 3.2-1h3s-1.2-.4-3-.4H75s.2-.7-.8-1h-1.5s1.2-.3 3.3-.3c2 0 2.8.3 2.8.3s-.4-.4-2-.7C75.4 34 75 34 75 34s.8-.2.8-1.2-1.7-2-2.8-2c.5-.2 2.2-.7 4.8 2.3 1.8 2 3.6 3 4.2 3.2.5.3 1 1 1 1.5 0 .8-1 1-.8 1.2 0 0 1.5-.4 1.5-1.4 0-1.4-1.8-1.8-2-2 .2 0 .4 0 .4-.4s-.8-.7-.8-.7.7-.2.6-.6c-.2-.6-1-.7-1-.7s.8 0 1-.5c0-.4-.7-.8-.7-.8s.7 0 1-.2c.3-.3-.2-.7-.2-.7s.5.3.8 0c.3 0 .2-.3 0-.4 0 0 .2-.3.5-.4.4 0 1-.3 1-.4 0 0 .2 0 0 0 0 0 0 .4-.3.6v.2l.6-.2.4-.2s.2 0 0 0c0 0 0 .4-.3.6-.2 0-.2.2-.2.2h1.3c0 .2 0 .4.4.4h.7v.2l-.2.5c0 .2-.2.3-.3.4h-.2c0-.2-1.2-.3-1.6.2-.4.6.3 1 .8.6.5-.3.6-.3 1 0v.3s0-.2-.5-.2c-.4 0-.8.3-1.4.3-.6 0-1.3-.5-1.2-1 0-.6-.4 0-.4.5s.2 1 1 1.3c.8.3 1.6 1 1 .8l-1 .2 1 .3c.5.2.8.6.6.5-.4 0-1.6 0-1.2.2.4 0 1.2.4 1.5.7.2.2 0 .5-.8.2-.5-.2-.7-.4-.8-.6-.2.3.3 1.5 1.7 1.5 1.7 0 1.7-1 1.6-1.3 0-.3.3-.3.3-.3v-.2h.3s0-.2.3-.2c.2 0 .3.2.3.2h-.4v.3l-.4.4c-.2 0 0 .3 0 .3s.5-.5.8-.5h.5l.4.2s-.2 0-.3.2h-.5c-.2 0-.6.3-.8.6v.6c.3.2.4 0 .4.2v.2c.3 0 .3 0 .4-.2 0 .2-.2.5-.4.5h-.3s0 .2-.2 0c0-.4-.3-.5-.7-.5-.4 0-1.4.3-2.2.6l-1 .6c-.3-.7.2-1.2.2-1.2s-.5.2-.6 1.2c0 .8.3 1.3.5 1 .2-.5.5-1 1-1.3.8-.5 2-.8.6.5-1.6 1.5-3.8 1.2-3.5 1.6l1 .3s-.4.2-1.2.5c-.8.4-1.5.4-1.2.5.3 0 1 0 .7.2-.2 0-.6.4-1.3.6-.5 0-1.2.3-1.3.3 0 0-.3 0 0 .3h.7c.2 0 .3 0 .2.2l-.8.5c-.3 0-.8.4-.5.3h1c.4 0 .4.3.3.3l-2 .7c-.6.3-2 1-2 1.8-.2.8.4 1 .7.8.3-.2.3.2.3.2s.3-.2.5 0c.4 0 .3.3.3.3L77 49c-.2 0-.5.5-.8.5-.2 0-.4-.3-1-.3-.7 0-1 .5-1.4.5h-.5c-.3-.2-.3 0-.3 0m12-18.2c.4 0 .5.3.5.3v-.3l.2-.4v.2H85c-.3 0-.3.2-.3.2h.4m1.7.3s.2 0 0 0h-.4.4"/><path clip-path="url(#b)" fill="#d0d0d0" d="M84 42.2c.5-.2 2.3-1.4 3.5-.6-2 0-2 .7-3.6.6"/><path clip-path="url(#b)" fill-rule="evenodd" fill="#d0d0d0" d="M85.3 33c.2 0 .6-.5 1.3-.5 1.2 0 1 1 2 1 .4 0 .6 0 .6-.2 0-.3-.5 0-.5 0s.2-.3.5-.3l1 .3h.3s-.4 0-1 .3c-.2 0-.4.3-.4.4v-.4h-.4c-1 0-1-1-2.3-1l-1 .4"/><path clip-path="url(#b)" fill="#d0d0d0" d="M74.8 40s-.4-.3-.8-.2c-.2 0-.5 0-.5.2h.2c.6-.2 1 0 1 0m-3.9-.4s1 0 1.7.5c1.2.8.4 1.7.4 1.7s0-.6-.4-1.2c-.6-.8-1.8-1-1.8-1M88 42.3c-.4 0-1.4.5-2.2 1.5-.5.6-.5 1-.5 1.4.2-1 1.3-2 2.2-2.6l1-.4H88m-2.7 5.5H85l-.2.2.2-.2h.3c.2 0 .2-.2.2-.3v-.2c0 .2 0 .4-.2.4m2.9-1h-.5s-.5-.3-.8-.3c-.4 0-1 .2-1.3 1 0-.2 0-.3.2-.4.3-.4.7-.5 1-.5l.7.3h.7c.2 0 .2.2.2.2-.2 0-.2-.3-.4-.4m-3.4-.5c-.6-.3-1 0-1 0h1c.4.3.6.5.6.7 0-.2 0-.7-.6-.8m-.6-1.1h-1.2l.7.2h.5v-.2m.8-1.8s-1.2.6-2 .6h-1.4v.2c-.4 0-.6.2-.6.2h2.8l1.3-.8V43m-.7-12.2v-.2c.2 0 .5-.2.5-.4-.2 0-.4 0-.5.2-.2.2 0 .4 0 .4m-.8-.2s0-.2.2-.3l.3-.3-.6.3c-.2 0-.2.3 0 .3m.9 1.7c-.3.6.2.8.2.8s-.3-.3 0-.7c.2-.3.7-.5.7-.5s-.6 0-.8.5m4.1 4.3v.1l.3-.4v-.2c0 .2 0 .3-.3.5m1.6.3h-.4s-.4 0-1 .3c0 0-.3.3-.3.6v-.3c.3-.3.7-.5 1-.5h.4l.2-.2.2.2s0-.2-.3-.2m-1 2.1c-.2 0-.2-.2-.2-.2h-.2s0-.2-.3-.3h-1c-.7 0-1.5.3-2 .5l-1 .4v-.7s-.2.3 0 .7c0 .3 0 .4.2.4l1.3-.7c.7-.2 1.7-.5 2.2-.5.4 0 .6.2.7.4h.7-.4m-13.5 9.8c-.4 0-1 .5-1.2.6h-.7l-.2.3h.5l.6-.2 1.3-.4c.3 0 .8.4 1 .4h.2s.2 0 .3-.2h-.3c-.2 0-.8-.4-1.2-.4m-.6-1.2c0-.6-.6-.7-.7-.8v-.2.3c.4.5.7 1 .5 1.5 0 0 .3-.4.2-.8m0-2v-.2.2c0 .2.3.3.4.5v.2s.3 0 0-.3c0 0-.2 0-.3-.3m2.3.2c-1 .6-1.5 1-1.8 1.7.4-.6 1.4-1.2 1.8-1.5l2-.7c-.3 0-1.2 0-2 .5m.6-1c0 .2.2.2.3.2l.6-.3c0-.2.2-.2.3-.3l-.8.2c-.2-.2-.3 0-.4 0m.6-.8c.2 0 1 0 1.4-.3.5 0 1-.3 1-.4l-1.6.4c-.5 0-.7.2-.8.3m-1.8 0h-1c-1 0-1-.5-1-1v-.6s-.2.3-.2.8c0 .7.6 1.2 1.2 1.2.5 0 1 0 1-.2 0 0 .2-.2 0-.2m2-.7l2.3-1c.8-.4 1-.8.6-1.4 0 1-1.7 1.6-2.8 2.3m.8-3c.5-.5 1.5-1 1.5-1l-1.6.8c-1 .5-1.7 1.3-1.7 1.3s.6-.5 1.4-.4c0-.3 0-.5.3-.8m-.9-1.1l1.7-.7H80l-1.5.6c-1.3.5-2.3 1.4-2.3 1.4s.6-.4 1.4-.5h.4s.2-.5.7-1m-1.2-.8c1.2-.5 2-.6 2.3-.7-.3 0-1.5 0-2.7.5-1.5.6-2.3 1.2-2.3 1.2s1-.4 1.7-.2c.2 0 .4-.4 1-.7m1.7-1.8h-3c-1.5.2-3 1-3 1s.7-.3 2 0c0-.2.6-.5 1.3-.7 1.5-.4 2.7-.3 2.7-.3m-.5-1.3c0-.2-1-.4-2.8-.4-2.2 0-3.4.4-3.4.4H74c.4 0 .6.2.7.3.2 0 .6-.3 1.3-.4 1.2-.4 2.6-.2 2.7 0m2.1 7.8l1-.4 1-.4c-.3 0-.7 0-1 .3-.4 0-.8.3-1 .4"/><path clip-path="url(#b)" fill="#d0d0d0" d="M84 33c-.6-.5-.3-1-.3-1l-.2.4c0 .7.6 1.2 1.2 1.2h.3c-.2 0-.6 0-1-.5M15.4 49.4H146V51H15.4z"/></svg>