<svg width="244" height="244" viewBox="0 0 244 244" xmlns="http://www.w3.org/2000/svg"><title>Mobile</title><defs><linearGradient x1="-96.591%" y1="50.128%" x2="201.628%" y2="50.128%" id="a"><stop stop-color="#BE923E" offset="0%"/><stop stop-color="#BF9441" offset="9.74%"/><stop stop-color="#C39A4A" offset="16.35%"/><stop stop-color="#C9A659" offset="22.04%"/><stop stop-color="#D1B56E" offset="27.17%"/><stop stop-color="#D5BC78" offset="29%"/><stop stop-color="#CDA04F" offset="49%"/><stop stop-color="#D5BC78" offset="58%"/><stop stop-color="#E7D8B5" offset="64%"/><stop stop-color="#E6D7B3" offset="64.15%"/><stop stop-color="#E0CD9C" offset="65.98%"/><stop stop-color="#DBC58C" offset="67.97%"/><stop stop-color="#D8C081" offset="70.2%"/><stop stop-color="#D6BC7A" offset="72.85%"/><stop stop-color="#D5BC78" offset="77%"/><stop stop-color="#C89243" offset="100%"/></linearGradient></defs><g fill="none" fill-rule="evenodd"><path d="M202.6 95.3c.6-11.6 12.1-28.5 21.2-34.9L190.2 24c-2.2 2.5-4.4 4.5-6.6 6.1C171.6 12.3 148.5.3 122 .3s-49.6 12-61.6 29.8c-2.2-1.7-4.4-3.7-6.6-6.1L20.2 60.4c9.3 6.5 21.1 23.8 21.2 35.5v.6h.7v4.1c0 7.1-4.2 23-5.6 40.3v.3c-1.4 13.8-2.7 15.7-1.4 28.1 2.2 20.8 12.5 32.1 36.7 41.6 27.8 11 38.7 19.4 50.1 32.8 11.4-13.4 22.3-21.8 50.1-32.8 24.2-9.6 34.5-20.8 36.7-41.6 1.3-12.4.1-14.3-1.4-28.1v-.4c-1.3-17.2-5.5-33.1-5.5-40.2 0-1.8 0-3.6.1-5.3h.7z" fill="#1D1D1B" fill-rule="nonzero"/><path d="M201.8 100.6c.3-16.2 8.2-32.8 14.1-39.3l-26.4-29.6c-8.3 7.8-15.3 8.4-26.4 8.4H80.9c-11.1 0-18.1-.6-26.4-8.4L28.1 61.3c5.9 6.5 13.8 23.1 14.1 39.3.2 10.3-4.3 24.6-5.6 40.7-1.2 14.9-.8 22.6 1.3 30.5 2.4 9.1 6.4 15.5 12.4 20.8 8.6 7.6 19.2 11.6 35.4 17.8 14.5 5.6 28.9 15.1 36.3 25.6 7.4-10.4 21.8-19.9 36.3-25.6 16.2-6.3 26.7-10.2 35.4-17.8 6-5.3 10-11.6 12.5-20.8 2.1-7.9 2.5-15.5 1.3-30.5-1.4-16.1-5.9-30.4-5.7-40.7z" fill="#BF9A27" fill-rule="nonzero"/><path d="M202.3 100.8c0-15.7.9-28.4 7.6-39.5l-20.8-23.2c-7 5.4-14.1 7.2-25.5 7.2H80.3c-11.4 0-18.5-1.9-25.5-7.2L34 61.3c6.7 11.1 7.4 23.6 7.4 39.3 0 7.2-3.7 23.3-5 40.7-1 13.3 1.4 25.2 5.2 33 7.7 15.9 20.5 21.8 44.2 31.3 16.6 6.6 28 14 36 23.5 8-9.5 19.4-16.9 36-23.5 23.8-9.5 36.2-14.4 44.2-31.3 3.8-7.9 6.1-20.1 5.2-33-1.1-17.4-4.9-33.4-4.9-40.5z" fill="#EE3124" fill-rule="nonzero"/><g fill-rule="nonzero"><path d="M79.2 125.4l-15.4.5s.6.9.9 1.5c.4.6.9 1.6.9 2.9v20.1c0 1.1-.4 1.9-.9 2.8-.4.7-.9 1.6-.9 1.6h11.8s-.7-1.1-1-1.6c-.4-.8-.8-1.4-.8-2.7v-4.7h2.4c3.4 0 6-.7 8.1-2.4 2.3-1.7 3.7-4.3 3.9-7.7.1-2.4-.4-4.8-1.9-6.9-1.6-2.3-3.4-3.4-7.1-3.4zm-5.4 7.3h3.3c1.3 0 2.2.2 2.7.7.3.3.6.7.6 1.9 0 .9-.2 1.6-.7 2-.4.4-1.3.6-2.6.6h-3.3v-5.2zm81-5.2c-2.1-1.2-4.2-1.6-8.2-1.6H133l.9 1.5c.4.6.9 1.5.9 2.9v20.1c0 1-.2 1.6-.8 2.8-.5.8-.9 1.5-.9 1.5h10.8c4.1 0 7.5-.4 10-2 4.6-2.9 6.7-7.1 6.7-12.9 0-6-1.9-10-5.8-12.3zm-4.4 18.9c-.8.6-1.7 1-3.7 1H143v-14.2h3.6c2.1 0 2.9.4 3.7 1 1.4 1 2.1 3.1 2.1 6.1.1 2.9-.6 5-2 6.1zm34.1 0c-1.3.6-2.3.8-3.7.8h-8.2V143h5.6c3.3 0 4.5.5 4.5.5v-7.1h-10.1v-3.8h8.6c1.7 0 2.5.2 3.9.8.9.4 1.4.7 1.4.7l-1.4-8.4h-22.7s.5.7 1 1.6c.4.7.8 1.5.8 2.7v20.1c0 .9-.3 1.6-.8 2.5-.3.5-.6 1.1-1.1 1.8h22l1.5-9-1.3 1zm-69.9-11.9c0-2.6-.9-4.8-2-6.1-1.8-2-3.6-3.1-7.4-3.1l-15.5.6s.5.8.9 1.5c.6 1 .9 1.7.9 2.9v20.1c0 1.2-.3 1.8-.9 2.8-.2.4-.5.9-.9 1.5h11.4c-1.3-2.4-1.5-3.1-1.5-4.4v-6.1h2.8l4.9 10.4h9.6l-6.4-13c2.3-1.1 4.1-3.7 4.1-7.1zm-14.7-1.8h3.7c1.5 0 2.1.3 2.4.6.4.3.6.8.6 1.5s-.2 1.3-.6 1.6c-.4.3-1.1.4-2.4.4h-3.7v-4.1zm29.4-6.8h-11.1s.6.9.9 1.5c.5.8.9 1.6.9 2.9v20c0 1.6-.4 2.1-1.7 4.5h11.4c-1.1-2-1.4-2.8-1.4-4.4v-20.1c0-1.7-.2-2.3 1-4.4zm-10-18c-.4-5.7-.7-12.9-1.2-21-.1-2.3-.1-2.5.8-3.8h-.9c-3.1.1-5.8.1-8.6.3l-.5.1s1.9 2.7 2.1 3.9c.3 3 .5 6.9.6 9.6C109 93.9 101 84 101 84c-2.5.3-8.4.9-10.5 1.2l-1 .2c.9 1.4 1.9 2 2.2 4.4.6 4.2 1.1 8.5 1.6 12.6.3 2.5.8 4.7 1.1 7.2.2 1.2 0 1.8-.6 3.1-.4.7-.8 1.5-.8 1.5 3.5-.5 8.1-1.1 11.5-1.5l-.9-1.2c-.8-1.1-1.2-1.9-1.3-2.9-.3-2.6-.8-6.7-1.1-9.7 2.9 3.6 10.6 13.3 10.6 13.3 3.3-.2 6.5-.3 9.3-.4 0 0-.6-.7-1-1.4-.7-.8-.8-1.4-.8-2.5zm-36.7-19c-2.2-1.4-4.8-2.1-7.4-2.1-1.2 0-2.4.2-3.6.5-3.8 1-7 3.4-8.9 6.9-2 3.5-2.5 7.7-1.4 11.9 1 4.2 3.4 7.6 6.8 9.7 2.2 1.4 4.8 2.1 7.4 2.1 1.2 0 2.4-.2 3.6-.5 3.8-1 7-3.4 8.9-6.9 2-3.5 2.5-7.7 1.4-11.9-1-4.1-3.5-7.6-6.8-9.7zM77 109.1c-3.7.9-6.4-2-7.4-6.1-.9-3.7.2-6.6 3.3-7.4 3-.7 6.5.6 7.9 5.8 1 4.2-.4 6.8-3.8 7.7zm67.1-24.8c-2.2-1.4-3.9-.9-8.2-1.1-4.1-.2-7.6-.3-12.1-.3h-1.5s.8 1.2 1.2 2c.5 1 .6 1.5.6 2.4v.1l-.3 20.4c0 1-.2 1.6-1 3-.5.8-.9 1.4-.9 1.4 4.6 0 8.4.2 10.5.3 4.5.1 7.5-.2 10.7-2 3.5-2 6.2-6 6.7-11.9.5-6.4-1.6-11.8-5.7-14.3zm-11.5 6.3h.9c.6 0 1.3 0 2.1.1 2.1.1 3.2.4 4.1 1.1 1.4 1.1 2.1 3.3 2 6.4-.2 3.1-1 5.2-2.5 6.2-.8.6-1.7.8-3.3.8h-.8c-.9 0-1.5 0-2.2-.1h-.8l.5-14.5z" fill="#1D1D1B"/><path d="M65.2 113.1l-.3-1.7s-.1.1-1.1 1.2c-1.4 1.3-2.1 1.8-3.1 2.1-2.9 1.1-5.3 2.1-8.3 3.3-1.1-2.8-6.6-16.2-6.6-16.2-.8-1.9-1.2-2.8-.5-4.6l-.8.3c-3.2 1.3-7.3 3.1-9.3 3.9l-1.5.8 1.5.9c1.4.8 1.7 1.3 2.1 2.3 1.9 4.4 3.7 8.8 5.6 13.3l2.4 5.6c.4.9.4 1.4.1 3-.2 1.1-.4 1.8-.4 1.8l1.7-.8c6.6-3 12.8-5.3 19.3-7.5l.7-.3c-.1.1-1.1-5.2-1.5-7.4z" fill="#1D1D1B"/><path d="M75.8 123.2H61s.6.9.9 1.5c.4.6.9 1.6.9 2.9v20.1c0 1.1-.4 1.9-.9 2.8-.4.7-.9 1.6-.9 1.6h11.8s-.7-1.1-1-1.6c-.4-.8-.8-1.4-.8-2.7v-4.7h4.7c7.7 0 10.4-5.3 10.4-9.9.1-4.7-2.7-10-10.3-10zm-4.7 7.3h3.3c1.3 0 2.2.2 2.7.7.3.3.6.7.6 1.9 0 .9-.2 1.6-.7 2-.4.4-1.3.6-2.6.6h-3.3v-5.2zm81-5.7c-2.1-1.2-4.2-1.6-8.2-1.6h-13.6l.9 1.5c.4.6.9 1.5.9 2.9v20.1c0 1-.2 1.6-.8 2.8-.5.8-.9 1.5-.9 1.5h13.5c4.1 0 6.2-.4 8.2-1.6 3.9-2.3 6.1-6.8 6.1-12.8-.1-5.9-2.2-10.5-6.1-12.8zm-4.4 18.9c-.8.6-1.7 1-3.7 1h-3.6v-14.2h3.6c2.1 0 2.9.4 3.7 1 1.4 1 2.1 3.1 2.1 6.1 0 3-.7 5-2.1 6.1zm34.6 0c-1.3.6-2.3.8-3.7.8H170v-3.7h5.6c1.6 0 2.5.3 3.2.6l1.2.6v-8.3h-10.1v-3.3h8.3c1.6 0 2.3.2 3.7.8.6.3 1.5.7 1.5.7l-1.5-8.8h-22.2s.5.7 1 1.6c.4.7.8 1.5.8 2.7v20.1c0 .9-.3 1.6-.8 2.5-.3.5-.6 1.1-1.1 1.8h22.5l1.5-9-1.3.9zm-70.1-11.3c0-5.7-3.9-9.2-10.4-9.2H87.1s.5.8.9 1.5c.6 1 .9 1.7.9 2.9v20.1c0 1.2-.3 1.8-.9 2.8-.2.4-.5.9-.9 1.5h11.7c-.4-.8-.8-1.4-1.1-2-.4-.9-.6-1.4-.6-2.3v-6.1h2.8l4.9 10.4h9.2l-5.8-12c2.6-1.5 4-4.2 4-7.6zm-15-1.9h3.7c1.5 0 2.1.3 2.4.6.4.3.6.8.6 1.5s-.2 1.3-.6 1.6c-.4.3-1.1.4-2.4.4h-3.7v-4.1zm30.1-7.3h-11.8s.6.9.9 1.5c.5.8.9 1.6.9 2.9v20c0 1.6-.6 2.8-1.4 4.5h11.4c-1.1-2-1.7-2.8-1.7-4.4v-20.1c0-1.7.5-2.3 1.7-4.4zM116.4 105c-.4-5.7-.7-12.2-1.1-20.3-.1-1.2.1-1.9.8-3.1.4-.6.9-1.4.9-1.4l-1.7.1c-3.1.1-6.1.3-8.9.5l-1.7.1s.6.7 1.1 1.3c.9 1 1.2 1.7 1.3 2.9.2 2.6.4 6.8.6 9.6-2.6-3.1-7.5-9-10.5-12.6l-.3-.4-.5.1c-2.5.3-6.6.9-8.7 1.2l-1.7.3 1.2 1.2c.9.9 1.2 1.5 1.4 2.8.6 4.2 1.1 8.5 1.6 12.6.3 2.5.6 5.1 1 7.7.2 1.2 0 1.8-.6 3.1-.4.8-.8 1.5-.8 1.5l1.7-.3c2.4-.4 5.1-.8 8.3-1.1l1.5-.2-.9-1.2c-.8-1.1-1.2-1.9-1.3-2.9-.3-2.6-.8-7-1.1-10 2.9 3.6 8.2 10.2 10.5 13.1l.3.4h.5c2.5-.2 5.2-.3 7.4-.4l1.6-.1-1-1.4c-.5-1.1-.9-2-.9-3.1zM80.1 87.9c-2.2-1.4-4.8-2.1-7.4-2.1-1.2 0-2.4.2-3.6.5-3.8 1-7 3.4-8.9 6.7-2 3.4-2.5 7.5-1.4 11.6 1 4.1 3.4 7.4 6.8 9.5 2.2 1.4 4.8 2.1 7.4 2.1 1.2 0 2.4-.2 3.6-.5 3.8-1 7-3.4 8.9-6.7 2-3.4 2.5-7.5 1.4-11.6-1.1-4-3.5-7.4-6.8-9.5zm-5.4 20.5c-.5.1-.9.2-1.4.2-3 0-5.6-2.4-6.5-6-1.1-4.2.7-8 4.1-8.9.5-.1.9-.2 1.4-.2 3 0 5.6 2.4 6.5 6 1 4.2-.7 8-4.1 8.9zM142 82.6c-2.2-1.4-4.5-1.9-8.8-2-4.1-.2-7.6-.3-12.1-.3h-1.5s.8 1.2 1.2 2c.5 1 .6 1.5.6 2.4v.1l-.3 20.4c0 1-.3 1.9-1 3.2-.5.9-.6 1.1-.6 1.1h1.4c4.1 0 8.1.1 11.4.3h1.9c2.9 0 4.8-.4 6.6-1.3 4.2-2.1 6.7-6.6 7-12.6.3-6-1.7-10.8-5.8-13.3zm-12 5.2h.9c.6 0 1.3 0 2.1.1 2.1.1 3.2.4 4.1 1.1 1.4 1.1 2.1 3.3 2 6.4-.2 3.1-1 5.2-2.5 6.2-.8.6-1.7.8-3.3.8h-.8c-.9 0-1.5 0-2.2-.1h-.8l.5-14.5z" fill="#EE3124"/><path d="M63.4 118c-.4-2.2-.9-4.4-1.3-6.7l-.3-1.7-1.2 1.2c-1.4 1.3-2.1 1.8-3.1 2.1-2.9 1.1-5.8 2.2-8.7 3.4-1.1-2.8-2.3-5.5-3.4-8.3l-3.2-7.9c-.5-1.1-.5-1.9-.1-3.1.3-1.1.5-1.7.5-1.7L41 96c-3.2 1.3-6.9 2.9-8.8 3.8l-1.5.7 1.5.9c1.4.8 1.7 1.3 2.1 2.3 1.9 4.4 3.7 8.8 5.6 13.3l2.4 5.6c.4.9.5 1.6.2 3.2-.2 1.1-.4 1.7-.4 1.7l1.6-.7c6.6-3 12.7-5.5 19.2-7.7l.7-.3-.2-.8z" fill="#EE3124"/><path d="M76.3 114.8c-3.6.9-7.2.4-10.3-1.5-3.1-1.9-5.4-5.1-6.4-8.9-1-3.8-.5-7.7 1.3-10.9 1.8-3.1 4.8-5.4 8.3-6.3 3.6-.9 7.2-.4 10.3 1.5 3.1 1.9 5.4 5.1 6.4 8.9 1 3.8.5 7.7-1.3 10.9s-4.7 5.4-8.3 6.3zm-5.6-22c-3.9 1-6 5.3-4.8 10 1.2 4.7 5 7.5 8.9 6.5 3.9-1 5.9-5.3 4.8-10-1.1-4.7-5-7.5-8.9-6.5zm43.7-8c-.1-1.3.1-2.1 1-3.5-3 .1-6 .3-8.8.5 1.1 1.3 1.4 2.1 1.5 3.4.3 4.1.8 12.3.8 12.3s-8-9.6-12.2-14.8c-2.4.3-6.5.9-8.7 1.2 1.2 1.2 1.5 2 1.7 3.3.9 6.8 1.7 13.5 2.6 20.3.2 1.3 0 2.1-.7 3.6 2.6-.4 5.5-.8 8.3-1.2-.9-1.1-1.3-2.1-1.5-3.3-.5-4.3-1.5-13.1-1.5-13.1s9.2 11.4 12.5 15.5c2.3-.1 5-.3 7.4-.4-.9-1.4-1.2-2.1-1.2-3.4-.5-6.5-.9-13.6-1.2-20.4zm-71.1 41.1c.3-1.6.3-2.5-.2-3.7-2.7-6.3-5.3-12.6-8-18.9-.5-1.2-1.1-1.8-2.5-2.7 2.4-1.1 5.8-2.6 8.8-3.8-.4 1.6-.3 2.5.1 3.7 2.3 5.6 4.6 11.4 6.9 17 3.2-1.3 6.4-2.6 9.7-3.8 1.1-.4 1.9-1 3.2-2.2.4 2.2.9 4.4 1.3 6.7-6.5 2.2-12.5 4.6-19.3 7.7z" fill="#BF9A27"/><path d="M44 124.9c.1-1.1 0-1.9-.4-2.9-2.7-6.3-5.3-12.6-8-18.9-.4-1-.9-1.7-1.8-2.4 2.2-1 4.7-2.1 6.7-2.9-.2 1.1 0 1.9.4 3 2.4 5.8 4.8 11.7 7.2 17.5 3.4-1.4 6.8-2.7 10.3-4 1-.4 1.7-.8 2.6-1.6.3 1.7.7 3.4 1 5.1-6.1 2.1-12 4.4-18 7.1z" fill="#FFF"/><path d="M37.8 103.1c-.3-.6-.6-1.2-.9-1.6 1-.4 1-.5 1.9-.8l.6-1.2c-1.1.5-2.4 1-3.7 1.6.4.5.7 1 .9 1.6 0 0 6.5 15.4 8 18.9.3.6.4 1.1.5 1.7.2-.5.5-.9.7-1.3-1.5-3.4-8-18.9-8-18.9zm20.9 12.2c-3.4 1.3-6.9 2.7-10.2 4l-.8.3-.6 1.2 2.5-1c3.2-1.3 6.7-2.7 10-3.9l.7-1.3c-.6.3-1.1.5-1.6.7z" fill="#DAC389"/><path d="M69.4 87.7c-7 1.8-11.2 8.8-9.3 16.5 2 7.7 9 11.8 16 10 7-1.8 11.2-8.8 9.3-16.5-1.9-7.6-9-11.7-16-10zm5.6 22.1c-4.1 1-8.3-1.8-9.6-6.9-1.3-5.1 1.1-9.6 5.2-10.7 4.1-1 8.3 1.8 9.6 6.9 1.3 5.1-1.1 9.6-5.2 10.7z" fill="#FFF"/><g fill="#DAC389"><path d="M78.6 93.9c1.2 1.3 2.1 3 2.6 5 1.4 5.6-1.1 10.7-6 12-.6.2-1.3.2-2 .2-2.1 0-4.1-.8-5.7-2.3 1.9 2.7 4.9 3.7 8.2 2.8 4.9-1.3 7.8-6.3 6.2-12.3-.5-2.3-1.8-4.1-3.3-5.4z"/><path d="M62 104.4c-1.7-6.8 1.7-13.2 8.4-14.8 2.3-.6 6.9-.6 10.9 2.7-2.2-2.4-5.2-3.8-8.6-3.8-1 0-2 .1-3 .4-6.6 1.7-10.3 8.2-8.5 15.2.7 2.6 2 4.8 3.8 6.5-1.5-1.7-2.5-3.9-3-6.2z"/></g><path d="M178.4 93c-1.4-2.2-3.3-4-5.7-5.2-1.1-.5-2.2-.9-3.5-1.2-3.9-.8-7.8 0-11 2.2-3.3 2.2-5.6 5.8-6.6 10-.9 4.2-.3 8.3 1.8 11.7 1.4 2.2 3.3 4 5.7 5.2 1.1.5 2.2.9 3.5 1.2 3.9.8 7.8 0 11-2.2 3.3-2.2 5.6-5.8 6.6-10 .9-4.1.3-8.3-1.8-11.7zm-14 15.6c-3.7-.8-4.8-4.7-3.9-8.8.9-3.7 3.2-5.8 6.3-5.1 3 .7 5.6 3.4 4.4 8.7-.9 4.2-3.3 5.9-6.8 5.2z" fill="#1D1D1B"/><path d="M176.6 91c-1.4-2.2-3.4-4-5.7-5.2-1.1-.5-2.3-.9-3.5-1.2-3.8-.8-7.7-.1-11 2-3.3 2.2-5.5 5.6-6.4 9.7-.9 4.1-.2 8.2 1.9 11.5 1.4 2.2 3.4 4 5.7 5.1 1.1.5 2.2.9 3.5 1.2 3.8.8 7.7.1 11-2 3.3-2.2 5.5-5.6 6.4-9.7.9-4 .2-8-1.9-11.4zm-13.9 15.9c-.5-.1-.9-.2-1.3-.5-2.7-1.3-3.9-4.6-3.1-8.3.9-4.2 4.2-6.9 7.6-6.1.5.1.9.2 1.3.5 2.7 1.3 3.9 4.6 3.1 8.3-.9 4.2-4.2 6.9-7.6 6.1z" fill="#EE3124"/><path d="M161.3 113.4c-3.6-.8-6.6-2.9-8.6-6s-2.6-7-1.7-10.8c.8-3.9 3-7.1 6-9.2 3-2 6.7-2.7 10.3-1.9 3.6.8 6.7 2.9 8.6 6 2 3.1 2.6 7 1.7 10.8-.8 3.9-3 7.1-6.1 9.2-3 2-6.6 2.7-10.2 1.9zm4.8-22.2c-3.9-.8-7.7 2.1-8.7 6.8-1 4.7 1.2 8.9 5.1 9.8 3.9.8 7.7-2.1 8.7-6.8 1-4.8-1.2-9-5.1-9.8z" fill="#BF9A27"/><path d="M167.2 86.1c-7-1.5-14 2.9-15.6 10.6-1.7 7.8 2.8 14.6 9.9 16.1 7 1.5 14-2.8 15.6-10.6 1.6-7.8-2.9-14.6-9.9-16.1zm-4.8 22.2c-4.1-.9-6.7-5.3-5.6-10.5 1.1-5.2 5.3-8.1 9.4-7.3 4.1.9 6.7 5.3 5.6 10.5-1.2 5.2-5.3 8.2-9.4 7.3z" fill="#FFF"/><g fill="#DAC389"><path d="M162.6 110.1c4.9 1 9.6-2.5 10.8-8.2.8-3.9.1-7.7-2.7-9.8 2 2.3 2.8 5.6 2.1 9.2-1.2 5.6-5.8 9.1-10.7 8.1-.6-.1-1.3-.4-1.9-.7-.7-.3-1.3-.8-1.8-1.2 1 1.2 2.2 2.2 4.2 2.6z"/><path d="M153.3 97.5c1.3-5.8 5.6-9.7 10.8-9.8 3.2-.1 6.3.9 9 3-.9-1-2.1-1.9-3.4-2.5-.9-.4-1.9-.8-2.8-1-6.7-1.4-12.9 2.8-14.4 9.8-1 4.6.4 9.1 3.5 12-2.4-2.7-3.4-8-2.7-11.5z"/></g><path d="M109.6 108.4c2.1-.2 4.1-.2 6.1-.3-.5-.9-.7-1.7-.8-2.8-.4-6.6-.8-13.7-1.2-20.5-.1-1.1.1-1.9.6-2.9-2.3.1-4.5.2-6.7.3.6.9.9 1.7 1 2.8.3 4.7.9 14.3.9 14.3S101 89 96.2 83.2c-1.9.2-5.3.7-7.2 1 .7.9 1 1.7 1.1 2.8 1.4 10.2 1.3 10.3 2.6 20.3.1 1.1.1 1.9-.3 3l6.3-.9c-.6-.9-.9-1.7-1-2.8-.6-4.9-1.8-15.3-1.8-15.3s10.3 12.8 13.7 17.1z" fill="#FFF"/><path d="M110.6 85.8c0-.7-.1-1.3-.3-1.8.5 0 1-.1 1.5-.1l1-.9c-1.2 0-2.3.1-3.5.2.2.5.3 1.1.3 1.8.3 4.7.9 14.3.9 14.3l.2 3.3 1.1 2.7-.3-5.2c.1 0-.6-9.6-.9-14.3zm-14.8-1.4c-1.4.2-3.4.5-5 .7.2.5.4 1.1.5 1.8.9 6.7 1.2 9 1.6 12.7.2 1.9.5 4.2.9 7.5.1.7.1 1.2 0 1.8l1-1.1c-.4-3.4-.7-5.7-.9-7.5-.5-3.8-.7-6-1.6-12.7-.1-.7-.2-1.3-.5-1.8 1.4-.2 2.3-.3 3.6-.5l.4-.9z" fill="#DAC389"/><path d="M120.8 108.6c.9-1.3 1.2-2.4 1.2-3.4l.3-20.5c0-1-.2-1.8-.7-2.6-.2-.3-.3-.6-.5-.9 4.1 0 7.8 0 12 .3 4.2.2 6.4.7 8.4 1.9 3.8 2.4 5.7 6.8 5.3 12.5-.4 5.7-2.7 9.9-6.6 11.8-2 1-4.1 1.3-8.1 1.2-3.8-.2-7.4-.4-11.3-.3zm11.7-5.4c2.2.1 3.4-.2 4.5-.9 1.7-1.2 2.7-3.5 2.9-6.9.2-3.4-.6-5.8-2.3-7.1-1.1-.9-2.3-1.2-4.6-1.3-1.6-.1-2.3-.1-3.9-.1-.2 5.4-.3 10.8-.5 16.2 1.6.1 2.4.1 3.9.1z" fill="#BF9A27"/><path d="M140.6 95.5c-.2 3.5-1.2 6-3.2 7.3-1.4.9-2.8 1.1-4.9 1-1.9-.1-4.4-.1-4.4-.1.2-5.8.3-11.6.5-17.4 0 0 2.6 0 4.5.1 2.2.1 3.7.4 5 1.4 1.9 1.6 2.6 4.2 2.5 7.7zm-18 9.6c0 1.1-.2 1.9-.8 2.9 2.3 0 7.8.1 10.4.3 3.9.1 5.9-.1 7.8-1.1 3.7-1.9 5.9-5.9 6.2-11.3.3-5.4-1.3-9.7-5.1-12-1.9-1.2-3.9-1.7-8.1-1.8-2.1-.1-7.7-.3-11-.3.6 1 .7 1.8.7 2.9.1 6.8 0 13.6-.1 20.4z" fill="#FFF"/><g fill="#DAC389"><path d="M140.7 84.7c-1.8-1.1-3.7-1.5-7.6-1.7-1.7-.1-6-.2-9.3-.3.1.6.2 1.2.2 1.8l-.3 20.5c0 .7-.1 1.2-.2 1.8l1.1-.9.3-20.5c0-.7-.1-1.3-.2-1.8 3.3 0 7.6.2 9.3.3 3.9.1 5.8.6 7.6 1.7.5.3 1 .7 1.4 1-.7-.7-1.5-1.3-2.3-1.9z"/><path d="M138.7 104.3c2.2-1.5 3.5-4.3 3.8-8.2.2-3.8-.7-6.2-2.6-7.9 1.3 1.7 2 4.2 1.8 7.4-.2 3.9-1.4 6.7-3.6 8.1-1.3.9-2.6 1.2-4.7 1.2h-.9c-1.2 0-4.1-.1-5.3-.2l-1 .9s5.5.1 7.2.2c2.1 0 3.7-.5 5.3-1.5z"/></g><path d="M62.6 151.1c.5-1 1.1-1.9 1.1-3.5v-20.1c0-1.7-.8-2.8-1.1-3.5h13.2c7 0 9.5 4.6 9.5 9 0 4.3-2.5 9-9.5 9h-5.5v5.6c0 1.7.6 2.5 1.1 3.5h-8.8zm11.8-14.6c1.6 0 2.6-.2 3.2-.8.6-.5 1-1.4 1-2.7 0-1.2-.3-2-.9-2.6-.7-.6-1.7-.9-3.3-.9h-4.2v7h4.2z" fill="#BF9A27"/><path d="M75.8 124.7H63.6c.5.9.7 1.7.7 2.8v20.1c0 1.1-.2 1.9-.7 2.8h6.8c-.5-.9-.7-1.7-.7-2.8v-6.2h6.1c2.9 0 5.2-.9 6.7-2.5 1.4-1.5 2.1-3.5 2.1-5.9 0-2.4-.7-4.4-2.1-5.9-1.5-1.6-3.9-2.4-6.7-2.4zm-6.2 4.3h4.8c1.8 0 2.9.4 3.7 1 .7.6 1.1 1.6 1.1 3s-.4 2.4-1.1 3.1c-.7.7-1.8.9-3.7.9h-4.8v-8z" fill="#FFF"/><g fill="#DAC389"><path d="M79.4 137.6c1-1 1.7-2.4 1.7-3.9 0-1.7-.6-2.8-1.4-3.6-.1-.1-.2-.2-.3-.2.6.8.9 1.9.9 3.2 0 1.7-.5 3-1.5 3.9-.9.8-2.3 1.2-4.4 1.2h-5.9l-.9.9h7.1c1.9 0 3.6-.4 4.7-1.5z"/><path d="M82.1 128.2c-.1-.1-.2-.2-.3-.4-1.3-1.4-3.4-2.2-6-2.2H65.2c.1.6.2 1.1.2 1.8v20.1c0 .7-.1 1.2-.2 1.8l1.1-.9v-20.1c0-.7-.1-1.2-.2-1.8h10.6c2.2.1 4 .7 5.4 1.7z"/></g><path d="M88.7 151.1c.6-1.1 1.1-1.7 1.1-3.5v-20.1c0-1.7-.8-2.9-1.1-3.5h13.2c6 0 9.5 3 9.5 8.3 0 3.4-1.5 6-4.3 7.3l5.6 11.4h-7.2l-4.9-10.4h-4.2v7c0 1.8.6 2.4 1.1 3.5h-8.8zm12.1-15.7c1.5 0 2.3-.2 2.9-.6.6-.5.9-1.3.9-2.3 0-.8-.3-1.6-.9-2.1-.6-.5-1.4-.8-2.9-.8h-4.6v5.8h4.6z" fill="#BF9A27"/><path d="M110.7 132.4c0-2.4-.7-4.2-2.1-5.6-1.5-1.4-3.8-2.1-6.8-2.1H89.6c.5.9.7 1.7.7 2.8v20.1c0 1.1-.2 1.9-.7 2.8h6.8c-.5-.9-.7-1.7-.7-2.8V140h5.2l4.9 10.4h5.9l-5.5-11.2c3-1 4.5-3.4 4.5-6.8zm-15-3.4h5c1.6 0 2.7.3 3.4.9.7.6 1.1 1.5 1.1 2.6s-.4 2.1-1 2.6c-.7.6-1.8.9-3.6.9h-5v-7h.1z" fill="#FFF"/><g fill="#DAC389"><path d="M108.4 128.2c-.2-.2-.3-.4-.5-.6-1.3-1.2-3.3-1.9-6-1.9H91.3c.1.6.2 1.1.2 1.8v20.1c0 .7-.1 1.2-.2 1.8l1.1-.9v-20.1c0-.7-.1-1.2-.2-1.8h10.6c2.4 0 4.3.6 5.6 1.6z"/><path d="M107.1 133c0-1.5-.6-2.5-1.4-3.1l-.1-.1c.5.7.8 1.6.8 2.7 0 1.4-.5 2.7-1.4 3.4-.9.8-2.2 1.1-4.2 1.1h-5.9l-1 .9h7c1.9 0 3.5-.3 4.7-1.4.9-.8 1.5-2.1 1.5-3.5zm-4.1 6.9l-1.4-.8 4.9 10.3.5-.8z"/></g><path d="M124.7 127.5c0-1.7.6-2.5 1.1-3.5H117c.4.7 1.1 1.7 1.1 3.5v20.1c0 1.5-.6 2.4-1.1 3.5h8.8c-.6-1-1.1-1.9-1.1-3.5v-20.1z" fill="#BF9A27"/><path d="M124.8 124.7h-6.7c.5.9.7 1.7.7 2.8v20.1c0 1.1-.2 1.9-.7 2.8h6.8c-.5-.9-.7-1.7-.7-2.8v-20.1c-.1-1.1.1-1.9.6-2.8z" fill="#FFF"/><path d="M123.2 125.7h-3.6c.1.6.2 1.1.2 1.8v20.1c0 .7-.1 1.2-.2 1.8l1.1-.9v-20.1c0-.7-.1-1.2-.2-1.8h1.5l1.2-.9z" fill="#DAC389"/><path d="M151.6 125.6c-1.9-1.1-3.9-1.5-7.8-1.5h-12c.4.6 1.1 1.7 1.1 3.5v20.1c0 1.5-.6 2.4-1.1 3.5h12c3.9 0 5.9-.4 7.8-1.5 3.6-2.1 5.6-6.4 5.6-12 0-5.7-2-10-5.6-12.1zm-3.4 18.8c-1 .8-2.2 1.1-4.3 1.1h-4.5v-16h4.5c2.1 0 3.2.4 4.3 1.2 1.6 1.2 2.4 3.5 2.4 6.8.1 3.4-.7 5.6-2.4 6.9z" fill="#BF9A27"/><path d="M151.3 126.1c-1.8-1.1-3.7-1.4-7.5-1.4h-11c.5.9.7 1.7.7 2.8v20.1c0 1.1-.2 1.9-.7 2.8h11c3.8 0 5.7-.4 7.5-1.4 1.7-1 3.1-2.5 4-4.5.9-1.9 1.3-4.3 1.3-7s-.5-5-1.3-7c-.9-1.8-2.2-3.4-4-4.4zm-2.7 18.7c-1.3 1-2.7 1.3-4.6 1.3h-5.1V129h5.1c1.9 0 3.3.3 4.6 1.3 1.8 1.3 2.7 3.8 2.7 7.3 0 3.4-.9 5.9-2.7 7.2z" fill="#FFF"/><g fill="#DAC389"><path d="M149.8 146.4c2-1.6 3.4-4.4 3.4-8.2 0-3.7-.9-6.1-2.9-7.7 1.3 1.6 2 4 2 7.1 0 3.8-1 6.6-3.1 8.1-1.7 1.3-3.6 1.5-5.3 1.5h-6l-1 .9h7.2c2.3 0 4-.4 5.7-1.7z"/><path d="M150.8 127c-1.6-1-3.4-1.3-6.9-1.3h-9.4c.1.6.2 1.1.2 1.8v20.1c0 .7-.1 1.2-.2 1.8l1.1-.9v-20.1c0-.7-.1-1.2-.2-1.8h9.4c3.6 0 5.3.3 6.9 1.3.4.3.9.6 1.2.9-.6-.7-1.3-1.3-2.1-1.8z"/></g><path d="M178.6 145.5H169V140h6.5c1.8 0 2.7.3 3.6.7v-6H169v-5.1h9.5c1.5 0 2.4.3 3.8.9l-1.1-6.5h-19.9c.5.9 1.1 1.7 1.1 3.5v20.1c0 1.5-.6 2.4-1.1 3.4h20.1l1.1-6.5c-1.3.7-2.4 1-3.9 1z" fill="#BF9A27"/><path d="M181.8 145.5c-1 .5-2.2.6-3 .6h-10.3v-6.7h6.8c1.2 0 2.4 0 3.2.4v-4.6h-10.1V129h10.3c1 0 1.8.2 2.8.6l-.8-4.9h-18.4c.5.9.7 1.7.7 2.8v20.1c0 1.1-.2 1.9-.7 2.8H181l.8-4.9z" fill="#FFF"/><g fill="#DAC389"><path d="M177.4 136.4h-9.8l-1 .8h9.9zm1.3 10.7h-11.1l-1.1.9h12.9l1.1-1c-.7.1-1.3.1-1.8.1z"/><path d="M179.1 126.6l.8-.9H164c.1.6.2 1.1.2 1.8v20.1c0 .7-.1 1.2-.2 1.8l1.1-.9v-20.1c0-.7-.1-1.2-.2-1.8h14.2z"/></g><path d="M110.5 106.5S95.1 87.2 94.9 86.9l-.4 1 15.6 19.5.4-.9z" fill="#DAC389"/><path d="M202.8 126.4c2.2-5.2 5.1-11.9 8.3-19.3.9-2.1 1-2.3 2.4-3.1l-.8-.4c-2.8-1.3-5.3-2.5-7.9-3.5l-.5-.2s.5 3.3.1 4.4c-1.1 2.9-2.6 6.4-3.7 8.9-.9-4-3.8-16.3-3.8-16.3-2.4-.8-7.9-2.9-10-3.6l-1-.3c.2 1.6.8 2.6 0 4.9-1.4 4-2.8 8.1-4.2 12-.8 2.4-1.4 4.5-2.2 7-.4 1.2-.8 1.6-2 2.5-.6.5-1.4 1-1.4 1 3.3 1.1 7.8 2.6 11 3.8l-.3-1.5c-.3-1.3-.2-2.2.1-3.2.9-2.5 2.3-6.4 3.3-9.2 1 4.5 3.6 16.6 3.6 16.6 3 1.3 6 2.6 8.4 3.8 0 0-.2-.9-.2-1.7.1-1 .3-1.6.8-2.6z" fill="#1D1D1B"/><path d="M201.4 122.7c2.2-5.3 4.9-11.4 8.1-18.9.5-1.1 1-1.7 2.1-2.4l1.4-.8-1.5-.7c-2.8-1.3-5.6-2.5-8.2-3.5l-1.6-.7s.2.8.4 1.7c.3 1.3.3 2-.1 3.1-1 2.4-2.6 6.3-3.7 8.8-.9-4-2.7-11.4-3.7-16l-.1-.5-.5-.2c-2.4-.8-6.3-2.1-8.3-2.8l-1.6-.5s.3.9.5 1.6c.4 1.2.4 1.9 0 3.1-1.4 4-2.8 8.1-4.2 12-.8 2.4-1.7 4.9-2.5 7.3-.4 1.2-.8 1.6-2 2.5-.6.5-1.4 1-1.4 1l1.7.5c2.3.7 4.9 1.6 7.9 2.6l1.5.5-.3-1.5c-.3-1.3-.2-2.2.1-3.2.9-2.5 2.4-6.7 3.4-9.5 1 4.5 2.8 12.8 3.6 16.4l.1.4.4.2c2.3 1 4.8 2 6.8 3l1.5.7s-.1-.8-.2-1.7c-.1-.6 0-1.5.4-2.5z" fill="#EE3124"/><path d="M208.7 103.5c.5-1.2 1-1.9 2.4-2.7-2.7-1.3-5.5-2.5-8.1-3.5.4 1.7.3 2.5-.2 3.7l-4.8 11.4s-2.9-12.2-4.4-18.7c-2.3-.8-6.2-2.1-8.3-2.7.5 1.6.5 2.5.1 3.7-2.2 6.5-4.4 12.8-6.7 19.3-.4 1.2-.9 1.9-2.3 2.9 2.6.8 5.3 1.7 8 2.7-.3-1.4-.3-2.4.2-3.6 1.4-4.1 4.5-12.4 4.5-12.4s3.1 14.3 4.3 19.4c2.2.9 4.6 2 6.8 3-.2-1.6-.1-2.4.4-3.5 2.6-6.2 5.4-12.8 8.1-19z" fill="#BF9A27"/><path d="M193.9 122.5c1.9.8 3.8 1.6 5.6 2.5-.1-1 .1-1.9.5-2.9 2.6-6.1 5.4-12.6 8.1-18.9.4-1 .9-1.7 1.8-2.4-2.1-.9-4.1-1.8-6.1-2.7.2 1.1 0 2-.4 3-1.8 4.3-5.5 13.3-5.5 13.3s-3-13-4.8-20.4l-6.9-2.3c.2 1.1.1 1.9-.2 3-3.3 9.7-3.4 9.8-6.7 19.3-.4 1.1-.8 1.8-1.6 2.5 2 .6 4.1 1.3 6.1 2-.1-1.1 0-1.9.3-3 1.6-4.6 5.2-14.5 5.2-14.5s3.4 16.2 4.6 21.5z" fill="#FFF"/><path d="M204.9 99.8c-.1.6-.2 1.1-.5 1.8-1.8 4.3-5.5 13.3-5.5 13.3l-1.3 3-.2 2.9 2.1-4.8s3.7-8.9 5.5-13.2c.3-.6.4-1.2.5-1.8.5.2.9.4 1.4.6l1.3-.3c-1.2-.6-2.2-1-3.3-1.5zm-17.5-6.5c0 .6-.2 1.2-.4 1.8-2.2 6.4-2.9 8.6-4.2 12.1-.6 1.8-1.4 3.9-2.5 7.2-.2.6-.5 1.1-.8 1.6l1.3-.5c1.1-3.2 1.9-5.4 2.5-7.2 1.3-3.6 2-5.7 4.2-12.1.2-.6.4-1.2.4-1.8 1.3.4 2.2.7 3.4 1.2l.8-.7c-1.3-.5-3.1-1.1-4.7-1.6z" fill="#DAC389"/><path d="M195.6 121.2s-5.2-24.1-5.3-24.5l-.8.7 5.3 24.4.8-.6z" fill="#DAC389"/></g><path d="M139.7 200.8l-1.1.2c-5.4 1.1-9.6 2.1-12.5 3 1.7.6 2.6 1.3 2.6 2.1s-.9 1.4-2.1 1.7c.4.4.5.8.4 1.1 0 2.2-3.3 2.8-4.8 2.8s-4.8-.6-4.8-2.8c0-.4.1-.8.5-1.1-1.2-.3-2.1-.8-2.1-1.7 0-.8.8-1.4 2.6-2.1-3-1-7.1-2-12.5-3.1l-1.1-.2 1.8.2 1.9.3c4.4.9 7.9 1.7 10.5 2.6.7-.2 1.5-.5 2.5-.7-2.1-.6-5-1.3-8.9-2.1l-1.3-.3 1.9.2 5.3 1c1.4.3 2.7.6 3.8.9 1.1-.3 2.4-.6 3.8-.9l5.5-1.1 1.7-.2-1.3.4c-4 .8-7 1.5-9 2 .9.2 1.8.5 2.4.7 2.7-.8 6.2-1.6 10.6-2.5l1.8-.3 1.9-.1zm-21.6 6.6h.1c.5-.7 1.7-1.4 3.4-2.2-.7-.3-1.5-.6-2.4-.9-1.9.7-2.2 1.3-2.2 1.8 0 .6.4 1 1.1 1.3zm4.1 4c.7 0 3.6-.5 3.6-2.4 0-.3-.1-.7-.3-1-1.1.2-2.3.2-3.3.2s-2.2 0-3.3-.2c-.3.3-.4.7-.4 1 0 1.9 3 2.4 3.7 2.4zm3.1-3.7c-.4-.7-1.5-1.4-3.1-2.2-1.6.7-2.6 1.4-3.1 2.2.9.2 2 .3 3.1.3s2.2-.1 3.1-.3zm-3.1-2.8c.7-.3 1.6-.6 2.4-.9-.7-.2-1.4-.5-2.4-.8-1 .3-1.8.5-2.4.8.9.4 1.7.6 2.4.9zm3-.6c-.9.3-1.7.6-2.4.9 1.7.8 2.9 1.5 3.4 2.2.8-.3 1.2-.7 1.2-1.3 0-.5-.3-1.1-2.2-1.8z" fill="#9C9B9B" fill-rule="nonzero"/><path d="M95.6 189.9c0-1.5 0-1.7-.2-1.7v-.1h1.4c.4 0 .7.1 1 .2.4.2.7.6.7 1.2 0 .3-.1.5-.2.7-.1.2-.3.4-.5.5-.2.1-.4.2-.6.2-.2 0-.5.1-.7.1v.2c0 1.1 0 1.2.3 1.3v.1h-1.4v-.1c.2 0 .2-.2.2-1.9v-.7zm2-.4c0-.3-.1-.5-.3-.6-.1-.1-.3-.1-.5-.1h-.2v1.6h.2c.2 0 .3 0 .4-.1l.3-.3c0-.1.1-.3.1-.5zm3.2.4c0-1.5 0-1.7-.2-1.7v-.1h1.3c.3 0 .6 0 .9.1.4.1.8.5.8 1.2 0 .5-.3.9-.5 1-.1.1-.3.2-.4.2.2.3.4.5 1.1 1.4.2.2.3.4.5.4v.1h-.9c-.1 0-.2 0-.3-.1-.4-.5-.8-1.1-1.2-1.7h-.2v.3c0 1.2 0 1.4.2 1.4v.1h-1.4v-.1c.2 0 .2-.2.2-1.9l.1-.6zm1.8-.4c0-.4-.3-.7-.7-.7h-.3v1.4h.2c.2 0 .4 0 .5-.1.1-.1.3-.3.3-.6zm3.6.4c0-1.5 0-1.7-.2-1.8v-.1h2.7v1h-.1c0-.2-.3-.3-.7-.3h-.8v1.2h.7c.4 0 .5 0 .6-.1h.1v1h-.1c0-.1-.2-.2-.6-.2h-.7v1.1c0 .1 0 .2.1.2h.9c.3 0 .5-.1.5-.3h.1v1H106v-.1c.2 0 .2-.2.2-1.9v-.7zm5.3-1.9h.1c1.4 2.4 1.6 2.7 1.8 3.1.2-.4.4-.7 1.8-3.1h.1l.4 2.7c.2 1.6.3 1.8.5 1.9v.1h-1.4v-.1c.3 0 .2-.3.1-1.2-.1-.5-.1-.9-.1-1.2-.2.4-.3.7-.6 1.1-.2.3-.4.7-.8 1.3h-.1c-.4-.6-.6-1-.8-1.3-.2-.4-.4-.7-.5-1.1 0 .4-.1.7-.1 1.2-.1.9-.1 1.2.1 1.2v.1h-1.3v-.1c.2 0 .3-.2.5-1.9l.3-2.7zm7.8 2.7c0 1.6 0 1.8.3 1.9v.1h-1.4v-.1c.3 0 .3-.2.3-1.9v-.8c0-1.5 0-1.7-.3-1.7v-.1h1.4v.1c-.3 0-.3.2-.3 1.7v.8zm2.6-.8c0-1.5 0-1.7-.2-1.8v-.1h1.4v.1c-.3 0-.3.2-.3 1.8v.7c0 .4.1.7.2.9.2.2.5.4.8.4.3 0 .6-.1.8-.4.2-.2.2-.5.2-.9v-.7c0-1.5 0-1.7-.3-1.8v-.1h1.4v.1c-.2 0-.2.2-.2 1.8v.7c0 .7-.1 1.1-.4 1.5-.2.3-.8.7-1.5.7-.8 0-1.3-.3-1.7-.8-.2-.3-.3-.7-.3-1.3l.1-.8zm6.6-1.9h.1c1.4 2.4 1.6 2.7 1.8 3.1.2-.4.4-.7 1.8-3.1h.1l.4 2.7c.2 1.6.3 1.8.5 1.9v.1h-1.4v-.1c.3 0 .2-.3.1-1.2-.1-.5-.1-.9-.1-1.2-.2.4-.3.7-.6 1.1-.2.3-.4.7-.8 1.3h-.1c-.4-.6-.6-1-.8-1.3-.2-.4-.4-.7-.6-1.1 0 .4-.1.7-.1 1.2-.1.9-.1 1.2.1 1.2v.1h-1.3v-.1c.2 0 .3-.2.5-1.9l.4-2.7zm9.1 3.7c-.3.6-.3.8-.1.8v.1h-1.4v-.1c.2 0 .3-.2 1-1.9l1.2-2.7h.1l1.1 2.7c.7 1.6.8 1.8 1 1.9v.1H139v-.1c.2 0 .2-.2-.1-.8h-1.3zm1.3-.7c-.3-.9-.4-1.1-.5-1.3 0 .1-.1.4-.5 1.3h1zm3.6-1.1c0-1.5 0-1.7-.3-1.7v-.1h1.4v.1c-.3 0-.3.2-.3 1.7v1.9c0 .1 0 .1.1.1h.9c.2 0 .3 0 .4-.1.1 0 .1-.1.2-.2h.1v1h-2.7v-.1c.3 0 .3-.2.3-1.9l-.1-.7zm4.6 0c0-1.5 0-1.7-.2-1.8v-.1h2.7v1h-.1c0-.2-.3-.3-.7-.3h-.8v1.2h.7c.4 0 .5 0 .6-.1h.1v1h-.1c0-.1-.2-.2-.6-.2h-.7v1.1c0 .1 0 .2.1.2h.9c.3 0 .5-.1.5-.3h.1v1h-2.7v-.1c.2 0 .2-.2.2-1.9v-.7z" fill-rule="nonzero" fill="#FFF"/><g fill-rule="nonzero" fill="#9C9B9B"><path d="M94.8 165.3c0-2.1-1.4-2.9-3.3-2.9-4 0-9.4 4.4-9.4 7.3 0 1.7 1.8 2.4 3.3 2.4 2.6 0 3.7-1 4.8-1.8.1-.1-.1-.3-.2-.2-1 .8-2.1 1.3-3.6 1.3-1.4 0-2.9-1-2.9-2.2 0-3 4-5.9 7.2-5.9 1.4 0 2.5.6 2.5 2.8 0 4.6-6.5 11.9-12.3 11.9-3 0-4.3-1.3-4.3-3.3 0-3.5 4.9-8.9 9.3-10.4.2-.1.1-.3-.1-.3-4.4 1-11.5 6.3-11.5 11.4 0 2.5 1.8 3.9 4.9 3.9 8.4-.2 15.6-9.9 15.6-14zm15.3 7.1s.1-.1-.1-.1h-1.4s-2.2 2.2-3 3.1c-1 1-2.7 2.5-4 3-.2.1-.3.1-.5.1-.4 0-.5-.1-.5-.4 0-.5 1-1.6 1.4-2l3-3.4h1.2c.3 0 .4-.4.1-.4h-1l1-1.1c1.1-1.2.9-1.5.2-1.5h-1.3c-.1 0-.2.1-.1.2.1.2 0 .6-.5 1.1l-1.2 1.4H102c-.3 0-.3.4-.1.4h1.1l-2.2 2.5c-.7.7-3.4 3.3-4.8 3.3-.4 0-.5-.1-.5-.4 0-.5 1-1.6 1.4-2l2-2.2c1.1-1.2.9-1.5.2-1.5h-1.3c-.1 0-.2.1-.1.2.1.2-.1.6-.5 1.1l-1.8 2.1c-.7.8-2.8 2.8-3.9 2.8-.3 0-.5-.1-.5-.4 0-.6 1.4-2 1.9-2.7l1.4-1.6c1.1-1.2.9-1.5.2-1.5h-1.3c-.1 0-.2.1-.1.2.1.2 0 .6-.5 1.1l-1.4 1.7c-.9 1-1.8 2.2-1.8 2.9 0 .6.4 1 1.2 1 1.3 0 3-1.3 4.1-2.4-.2.3-.6.8-.6 1.4 0 .6.5 1 1.2 1 1.3 0 3.2-1.3 4.5-2.4-.3.5-.6 1-.6 1.5 0 .6.5 1 1.1 1 2.1 0 5.6-3.3 6.1-4 .9-.9 1.9-2 1.9-2l-.5 1.4c-.6 1.8-1 4.2-2.8 4.2-.5 0-.8-.5-.7-.9.1-.5-.8-.1-.8.4s.5.8 1.5.8c3.4 0 3.6-2.4 4.3-4.4l.3-1c-.1-.8.1-1.1.5-1.6zm41.6-2.8c.5 0 .9-.3 1.1-.7.1-.4-.1-.7-.6-.7s-.9.3-1.1.7c-.2.4.1.7.6.7z"/><path d="M170.1 172.2h-1.4c-.2 0-.2 0-.3.1l-.6.7c0-.5-.4-.9-1.1-.9-1.9 0-5 1.7-6.5 3.5-1.1 1-3.1 2.7-4.2 2.7-.4 0-.5-.1-.5-.4 0-.5 1-1.6 1.4-2l.9-.9c.7-.8 1.4-1.4 1.4-2 0-.6-.6-.9-1.2-.9-1.2 0-2.6.7-3.9 1.7l.2-.3c1.1-1.2.8-1.4.1-1.4H153c-.1 0-.2.1-.1.2.1.2 0 .6-.4 1.1l-2.2 2.4c-1.1 1-2.9 2.5-4 2.5-.4 0-.5-.1-.5-.4 0-.5 1-1.6 1.4-2l1.9-2.2c1.1-1.2.9-1.5.2-1.5H148c-.1 0-.2.1-.1.2.1.2 0 .6-.5 1.1l-1.7 2c-1 1-3.2 3-4.4 3-.4 0-.5-.1-.5-.4 0-.5.9-1.6 1.4-2l6.2-7.1c1.1-1.2.9-1.5.2-1.5h-1.2c-.1 0-.2.1-.1.2.1.2 0 .6-.5 1.1l-3.7 4.2c-.2-.4-.4-.7-1.2-.7-1.9 0-4.3 1.3-5.8 2.9-.5.6-3.4 3.4-4.8 3.4-.4 0-.5-.1-.5-.4 0-.5 1-1.6 1.4-2l.9-.9c.7-.8 1.4-1.4 1.4-2 0-.6-.6-.9-1.2-.9-1.2 0-2.6.7-3.9 1.7l.2-.3c1.1-1.2.8-1.4.1-1.4h-1.3c-.1 0-.2.1-.1.2.1.2 0 .6-.4 1.1l-2.2 2.5c-1.1 1-2.8 2.4-3.9 2.4-.4 0-.5-.1-.5-.4 0-.5 1-1.6 1.4-2.1l3-3.4c.2-.2.2-.3 0-.3h-1.4c-.2 0-.2 0-.3.1l-1 .5c0-.5-.5-.9-1.1-.9-1.9 0-5 1.7-6.5 3.5-1.1 1-3.1 2.7-4.2 2.7-.4 0-.5-.1-.5-.4 0-.5 1-1.6 1.4-2l3-3.4h1.2c.3 0 .4-.4.1-.4h-1l1-1.1c1.1-1.2.9-1.5.2-1.5h-1.3c-.1 0-.2.1-.1.2.1.2 0 .6-.5 1.1l-1.2 1.4h-1.4c-.3 0-.3.4-.1.4h1.1l-2.5 2.8c-.7.8-1.6 1.9-1.6 2.7 0 .6.5 1 1.2 1 1.4 0 3.3-1.4 4.6-2.6-.2.4-.3.8-.3 1.2 0 .9.7 1.4 1.5 1.4 1.3 0 2.6-.9 3.5-1.7-.1.3-.2.5-.2.8 0 .6.6 1 1.2 1 1.1 0 2.3-.7 3.4-1.6l-1 1.1c-.2.3-.2.3.2.3h1.4l2-2.3c1.6-1.8 3.9-4 5.5-4 .3 0 .5.1.5.3 0 .5-1.2 1.6-1.6 1.9l-.4.4c-.9.9-1.6 1.9-1.6 2.7 0 .6.5 1 1.2 1 1.5 0 3.5-1.5 4.8-2.7-.2.4-.4.9-.4 1.3 0 1 .6 1.4 1.8 1.4 1.2 0 2.4-.9 3.1-1.8-.1.2-.2.5-.2.8 0 .6.5 1 1.1 1 1.3 0 3.1-1.2 4.4-2.3-.3.5-.5 1-.5 1.4 0 .6.5 1 1.2 1 1.1 0 2.5-.9 3.7-1.8l-1.2 1.3c-.3.3-.2.3.2.3h1.4l2-2.3c1.6-1.8 3.9-4 5.5-4 .3 0 .5.1.5.3 0 .5-1.2 1.6-1.6 1.9l-.4.4c-.9.9-1.6 1.9-1.6 2.7 0 .6.5 1 1.2 1 1.4 0 3.3-1.4 4.6-2.6-.2.4-.3.8-.3 1.2 0 .9.5 1.4 1.3 1.4 1.2 0 2.4-.8 2.9-1.2l-1.5 1.6c-1.1 1.2-2.8 3.3-5.2 3.3-1 0-1.6-.3-1.6-.7 0-.2.3-.3.3-.5s-.3-.4-.7-.4c-.5 0-.9.4-.9.8 0 1 1.5 1.2 2.5 1.2 3.2 0 5.9-1.8 7.4-3.6l6.3-7.1c.1 0 .2-.1-.1-.1zm-49.6 3.7c-.7.8-2.4 2.6-3.5 2.6-.4 0-1-.2-1-.8 0-1.3 4-5.3 5.9-5.3.5 0 .8.3.8.6 0 .5-1 1.6-1.8 2.4l-.4.5zm16.5 2.5c-.6 0-1-.2-1-.6 0-1.7 4.1-5.3 6-5.3.5 0 .6.3.6.6 0 .7-1 1.4-1.6 2.2l-.5.5c-.7.8-2.3 2.6-3.5 2.6zm28.7-3l-.4.5c-.5.5-2.5 2.6-3.6 2.6-.4 0-.9-.2-.9-.8 0-1.3 4-5.3 5.9-5.3.5 0 .8.3.8.6 0 .5-1.1 1.6-1.8 2.4z"/></g><g fill-rule="nonzero" fill="#BF9A27"><path d="M94.6 164.9c0-2.1-1.4-2.9-3.3-2.9-4 0-9.4 4.4-9.4 7.3 0 1.7 1.8 2.3 3.3 2.3 2.6 0 3.7-1 4.8-1.8.1-.1-.1-.3-.2-.2-1 .8-2.1 1.3-3.6 1.3-1.3 0-2.9-1-2.9-2.2 0-3 4-5.9 7.2-5.9 1.4 0 2.5.6 2.5 2.8 0 4.6-6.5 11.9-12.3 11.9-3 0-4.3-1.3-4.3-3.3 0-3.5 4.9-8.9 9.3-10.4.2-.1.1-.3-.1-.3-4.4 1-11.5 6.3-11.5 11.4 0 2.5 1.8 3.9 4.9 3.9 8.4-.1 15.6-9.8 15.6-13.9zm15.3 7s.1-.1-.1-.1h-1.4s-2.2 2.2-3 3.1l-1 1c-.9.8-2.1 1.7-3 2-.2.1-.3.1-.5.1-.4 0-.5-.1-.5-.4 0-.5 1-1.6 1.4-2l3-3.4h1.2c.3 0 .4-.4.1-.4h-1l1-1.1c1.1-1.2.9-1.5.2-1.5H105c-.1 0-.2.1-.1.2.1.2 0 .6-.5 1.1l-1.2 1.4h-1.4c-.3 0-.3.4-.1.4h1.1l-2.3 2.6c-.8.8-3.4 3.3-4.7 3.3-.4 0-.5-.1-.5-.4 0-.5 1-1.6 1.4-2l2-2.2c1.1-1.2.9-1.5.2-1.5h-1.3c-.1 0-.2.1-.1.2.1.2 0 .6-.5 1.1l-1.8 2.1c-.7.8-2.8 2.8-3.9 2.8-.3 0-.5-.1-.5-.4 0-.6 1.4-2 1.9-2.7l1.4-1.6c1.1-1.2.9-1.5.2-1.5H93c-.1 0-.2.1-.1.2.1.2 0 .6-.5 1.1l-1.4 1.7c-.9 1-1.8 2.1-1.8 2.9 0 .6.4 1 1.2 1 1.3 0 3-1.3 4.1-2.4-.2.3-.6.8-.6 1.4 0 .6.5 1 1.2 1 1.3 0 3.2-1.3 4.5-2.4-.3.5-.6 1-.6 1.5 0 .6.5 1 1.1 1 2.1 0 5.6-3.3 6.1-4 .9-.9 1.9-2 1.9-2l-.5 1.4c-.6 1.8-1 4.2-2.8 4.2-.5 0-.8-.5-.7-.9.1-.5-.8-.1-.8.4s.5.8 1.5.8c3.4 0 3.6-2.4 4.3-4.4l.3-1c-.1-.9.1-1.2.5-1.7zm41.6-2.7c.5 0 .9-.3 1.1-.7.1-.4-.1-.7-.6-.7s-.9.3-1.1.7c-.2.4.1.7.6.7z"/><path d="M169.9 171.8h-1.4c-.2 0-.2 0-.3.1l-.6.6c0-.5-.5-.9-1.2-.9-1.9 0-5 1.7-6.5 3.5-1.1 1-3.1 2.7-4.2 2.7-.4 0-.5-.1-.5-.4 0-.5 1-1.6 1.4-2l.9-.9c.7-.8 1.4-1.4 1.4-2 0-.6-.6-.9-1.2-.9-1.2 0-2.6.7-3.9 1.7l.2-.3c1.1-1.2.8-1.4.1-1.4h-1.3c-.1 0-.2.1-.1.2.1.2-.1.6-.5 1.1l-2.2 2.4c-1.1 1-2.9 2.5-4 2.5-.4 0-.5-.1-.5-.4 0-.5 1-1.6 1.4-2l1.9-2.2c1.1-1.2.9-1.5.2-1.5h-1.3c-.1 0-.2.1-.1.2.1.2 0 .6-.5 1.1l-1.7 2c-1 1-3.2 3-4.4 3-.4 0-.5-.1-.5-.4 0-.5.9-1.6 1.4-2l6.2-7.1c1.1-1.2.9-1.5.2-1.5h-1.2c-.1 0-.2.1-.1.2.1.2 0 .6-.5 1.1l-3.7 4.2c-.2-.4-.4-.7-1.2-.7-1.9 0-4.3 1.3-5.8 2.9-.5.6-3.4 3.4-4.8 3.4-.4 0-.5-.1-.5-.4 0-.5 1-1.6 1.4-2l.9-.9c.7-.8 1.4-1.4 1.4-2 0-.6-.6-.9-1.2-.9-1.2 0-2.6.7-3.9 1.7l.2-.3c1.1-1.2.8-1.4.1-1.4h-1.3c-.1 0-.2.1-.1.2.1.2 0 .6-.5 1.1l-2.2 2.5c-1.1 1-2.8 2.4-3.9 2.4-.4 0-.5-.1-.5-.4 0-.5 1-1.6 1.4-2.1l3-3.4c.2-.2.2-.3 0-.3h-1.4c-.3 0-.3 0-.3.1l-.6.6c0-.5-.5-.9-1.1-.9-1.9 0-5 1.7-6.5 3.5-1.1 1-3.1 2.7-4.2 2.7-.4 0-.5-.1-.5-.4 0-.5 1-1.6 1.4-2l3-3.4h1.2c.3 0 .4-.4.1-.4h-1l1-1.1c1.1-1.2.9-1.5.2-1.5h-1.3c-.1 0-.2.1-.1.2.1.2 0 .6-.5 1.1l-1.2 1.4h-1.4c-.3 0-.3.4-.1.4h1.1l-2.5 2.8c-.7.8-1.6 1.9-1.6 2.7 0 .6.5 1 1.2 1 1.4 0 3.3-1.4 4.6-2.6-.2.4-.3.8-.3 1.2 0 .9.7 1.4 1.5 1.4 1.3 0 2.6-.9 3.5-1.7-.1.3-.2.5-.2.8 0 .6.6 1 1.2 1 1.1 0 2.3-.7 3.4-1.6l-1 1.1c-.2.3-.2.3.2.3h1.4l2-2.3c1.6-1.8 3.9-4 5.5-4 .3 0 .5.1.5.3 0 .5-1.2 1.6-1.6 1.9l-.4.4c-.9.9-1.6 1.9-1.6 2.7 0 .6.5 1 1.2 1 1.5 0 3.5-1.5 4.8-2.7-.2.4-.4.9-.4 1.3 0 1 .6 1.4 1.8 1.4 1.2 0 2.4-.9 3.1-1.7-.1.2-.2.5-.2.8 0 .6.5 1 1.1 1 1.3 0 3.1-1.2 4.4-2.3-.3.5-.5 1-.5 1.4 0 .6.5 1 1.2 1 1.1 0 2.5-.9 3.7-1.8l-1.2 1.3c-.2.3-.2.3.2.3h1.4l2-2.3c1.6-1.8 3.9-4 5.5-4 .3 0 .5.1.5.3 0 .5-1.2 1.6-1.6 1.9l-.4.4c-.9.9-1.6 1.9-1.6 2.7 0 .6.5 1 1.2 1 1.4 0 3.3-1.4 4.6-2.6-.2.4-.3.8-.3 1.2 0 .9.5 1.4 1.3 1.4 1.2 0 2.4-.8 2.9-1.2l-1.5 1.6c-1.1 1.2-2.8 3.3-5.2 3.3-1 0-1.6-.3-1.6-.7 0-.2.3-.3.3-.5s-.3-.4-.7-.4c-.5 0-.9.4-.9.8 0 1 1.5 1.2 2.5 1.2 3.2 0 5.9-1.8 7.4-3.6l6.3-7.1c0-.1 0-.2-.3-.2zm-49.6 3.7c-.7.8-2.4 2.6-3.5 2.6-.4 0-1-.1-1-.8 0-1.3 4-5.3 5.9-5.3.5 0 .8.3.8.6 0 .5-1 1.6-1.8 2.4l-.4.5zm16.5 2.4c-.6 0-1-.2-1-.6 0-1.8 4.1-5.3 6-5.3.5 0 .6.3.6.6 0 .7-1 1.4-1.6 2.2l-.5.5c-.7.8-2.3 2.6-3.5 2.6zm28.7-2.9l-.4.5c-.5.5-2.5 2.6-3.6 2.6-.4 0-.9-.1-.9-.8 0-1.3 4-5.3 5.9-5.3.5 0 .8.3.8.6 0 .5-1.1 1.5-1.8 2.4z"/></g><path d="M168.5 66.4c0 .7-20.8 1.3-46.4 1.3-25.6 0-46.4-.6-46.4-1.3h92.8z" fill="#BF9A27" fill-rule="nonzero"/><path d="M99.9 41.6c2.6-.9 5.4-1.7 8.4-2.3l.7 2.2c4.1-.8 8.5-1.2 13.2-1.2 4.7 0 9.1.4 13.2 1.2l.7-2.2c3 .6 5.8 1.4 8.4 2.3l-2.1 5.8c-.7-.3-1.5-.5-2.3-.7l-.7 2.2c-4.7-1.6-10.7-2.5-17.2-2.5s-12.5 1-17.2 2.5l-.7-2.2c-.8.2-1.5.5-2.3.7l-2.1-5.8z" fill="#CFB263" fill-rule="nonzero"/><path d="M102.3 46.6c.6-.2 1.1-.4 1.7-.5l-1-3.1 2.8-2.5c-1.8.4-3.6.9-5.2 1.5l1.7 4.6z" fill="#BF9A27" fill-rule="nonzero"/><path d="M108.4 41.6c-1.4.3-2.8.6-4.1 1l3.5-2.9.6 1.9zm33.5 5c-.6-.2-1.1-.4-1.7-.5l1-3.1-2.8-2.5c1.8.4 3.5.9 5.2 1.5l-1.7 4.6z" fill="#BF9A27" fill-rule="nonzero"/><path d="M135.8 41.6c1.4.3 2.8.6 4.1 1l-3.5-2.9-.6-.5-.7 2.3.7.1zm-13.6 4.1c-6.3 0-12.1.9-16.8 2.4l-1.5-4.7c5.3-1.6 11.6-2.5 18.3-2.5 6.7 0 12.9.9 18.2 2.5l-1.5 4.7c-4.7-1.5-10.5-2.4-16.7-2.4" fill="#BF9A27" fill-rule="nonzero"/><path d="M123.2 42.5c.1.1.1.3-.1.5-.1.1-.2.1-.3 0v-.6c.1-.1.1 0 .2 0s.2.1.2.1zm0 .9c.1.1.1.3.1.5 0 .1-.1.2-.1.2h-.3v-.7c0-.1.2 0 .2 0h.1zm-13.9.5c.1.1.1.3 0 .4-.1.1-.2.1-.3.1v-.1l-.1-.6c.1-.1.2-.1.3-.1 0 .2 0 .3.1.3zm26.1.1c.1.1 0 .3-.1.4-.1.1-.2.1-.3.1h-.1c0-.2.1-.4.1-.7h.1c.2.1.3.1.3.2z" stroke="#1D1D1B" stroke-width=".011"/><path d="M129.2 9.1v1.2h.1c.3-.3.6-.6.8-1 0 1-.2 2-.4 2.9.3-.2.5-.4.6-.7 0 .9-.1 1.8-.3 2.7h.1c.6-.4 1.2-.7 1.8-1.1 1.2-.9 2.3-1.8 3.4-2.8.5-.4.8-.9 1.2-1.4-.2 1.1-.6 2.1-1.1 3.1h.1c.4-.2.7-.5 1.1-.8 0 .4-.2.9-.3 1.3-.3.8-.8 1.6-1.4 2.3.3-.1.5-.3.8-.5v.1c-.2.7-.5 1.4-1 2.1.1 0 .1 0 .2-.1s.2-.1.3-.2c-.4 1.1-1 2.2-1.9 3.1.1.1.2 0 .3 0-.4.9-1 1.8-1.8 2.5h.2l-.3.6c-.3.5-.8 1.1-1.3 1.5h.3c-.4.6-.6 1.2-1 1.8.1.1.2 0 .2 0 1.4-.2 2.9 0 3.9.8.9.6 2 1.7 3.2 1 .6-.4.8-1.1.7-1.8-.2-.8-.9-1.4-1.6-1.9-1.2-.8-3.1-1.8-2.6-3.5.2-.8 1.1-1.3 1.9-1.4 1.3-.2 2.6.3 3.9.2.7-.1 1.3-.6 1.6-1.2.1-.2.1-.5.1-.8.3.5.4 1.1.3 1.7.1 0 .1-.1.2-.1.4-.5.6-1 .6-1.6.6 1 .9 2.4.2 3.4-.5.9-1.5 1.3-2.5 1.2-.7-.1-1.4-.5-1.8-1.1-.3-.1-.6-.1-.9-.2-.6 0-1.3-.1-1.6.4-.1.2 0 .4.1.6.2.3.5.5.8.7 1.2.9 2.8 1.8 3.3 3.3.2.7.2 1.4-.1 2.1-.4 1.2-1.6 2.2-2.9 2.3-.8.1-1.6-.1-2.3-.3.1.7.1 1.4.1 2 0 .7.3 1.5 1 1.8.5.3 1.1.3 1.6.2l.6-.1c-.1.2-.2.3-.2.4-.1.3-.2.5-.3.8.8.8 1.3 2 1 3.1-.1-.1-.2-.3-.3-.5 0 .6.1 1.2 0 1.8-.2-.2-.3-.4-.5-.6h-.1c.1.5.1 1 .1 1.6-.2-.2-.3-.6-.6-.6.1.2.1.4.1.6l-.1.5-.4-.4c-.2-.1-.4-.4-.7-.3-.3.4-.5.9-.7 1.3.1.1-.2.1-.2.1l-.3.1c-1.7-.3-2.3-.4-4-.6l-.1-.2-.1-.2c0-.6.3-1.2.7-1.5.5-.3 1.1-.3 1.7-.3h1.4c.1 0 .2 0 .3-.1.4-.3.5-.8.7-1.2.1-.3.1-.8-.2-1-.4-.3-1-.2-1.5-.3-.7-.1-1.7.1-2.1-.7-.1-.2-.1-.3-.2-.5h-.1c-.1.1-.2.4-.4.4 0 .5-.1 1.1-.3 1.5-.1.1-.1.2-.2.2-.1-.1-.1-.2-.1-.3-.1-.1-.1-.2-.2-.3v.1c-.1.6-.2 1.1-.3 1.7l-.3-.3c-.1 0-.1.1-.1.1-.1.5-.2.9-.3 1.4-.2-.2-.4-.5-.6-.6h-.1c-.3.3-.5.6-.8.9l-.3-.3c-.1 0-.1 0-.2.1-.1.2-.1.4-.3.6l-.1.1c.1 0-.3.2-.2.2l-.3.1c-4.4-.3-7.1-.3-11.4.3h-.7l-.2-.2c-.1-.1-.1-.2-.1-.4 0-.4.1-.7.5-1 .1-.1.2-.1.4-.2.1-.2.3-.3.5-.4.6-.1 1.3 0 1.9-.3.3-.2.4-.6.5-.9.2-.7.5-1.4.7-2.2l-.7.3c.2-.9 0-1.9-.5-2.6-.5-.3-1-.6-1.4-1-.1 0-.1.2-.2.3-.1 0-.1-.1-.1-.1-.4.1-.7.2-1 .4 0-.3.1-.5.1-.8 0-.1.1-.1 0-.2-.2 0-.5.1-.7.1 0-.1 0-.2.1-.4-.1-.1-.1 0-.2 0-.2.1-.4.1-.6.3 0 .1.1.2.2.3.3.2.9.5.9.9s-.1.7-.4.9h-.1c-.2.3-.5.4-.8.5v.2c.3.9.5 1.9.6 2.9 0 1.1-.1 2.3-.4 3.3l-.1.3-2.5.4c-.9.2-1.8.3-2.6.6-.9-1.5-2.1-3.3-2.3-5.5-.1-1.1 0-2.1.2-3.1l.2-.7.1-.1.8-.2.1-.1c-.1-.4 0-.9.4-1.1 0-.1 0-.3.1-.4.3-.4 1-.3 1.5-.3 1.2.2 2.3-.1 3.3-.6-.3-.2-.6-.4-.8-.8.1 0 .3.1.4.1.6.1 1.1-.1 1.6-.5 0 0 0-.1-.1-.1-.1.1-.3.2-.4.3v-.3c0-1-.4-1.8-.3-2.8-.2.1-.4.2-.7.2 0-.1.1-.2.1-.3.3-.7.3-1.6.5-2.4-.1 0-.2 0-.3-.1.1-.1.2-.2.3-.4.4-.6.7-1.3 1.2-1.8-.1-.1-.2 0-.3-.1-.1 0-.2-.1-.2-.1.7-.1 1.1-.6 1.8-.8.4-.1.8-.1 1.2-.3-.1-.1-.2 0-.3-.1-.2 0-.4-.1-.5-.2-.3.1-.5.4-.8.3-.3-.1-.4-.5-.6-.8-.1-.3-.2-.5-.2-.8 0-.1.1-.2.1-.2.4 0 .8.1 1.2.1v-.1l-.1-.3c-.2 0-.4 0-.5-.1-.1-.1-.2-.3-.2-.4-.4-.1-.8 0-1.2.2l-.3.2c-.1-.4 0-.9.1-1.2.1-.3.3-.6.6-.8l.4-.2c.1-.2.3-.2.5-.3.4-.1.8-.1 1.2-.2.1-.1.2-.3.3-.3.5-.1 1-.2 1.5-.2v-.3c.1-.8 1-1.3 1.3-2 .2-.4.3-.9.3-1.3.1.4.2.9.3 1.3.1.4.3.8.3 1.3.7-.2 1.4-.5 1.7-1.3 0-.2.1-.4.1-.6h.1c.4 1 .6 2.2.1 3.2-.2.5-.5 1-.8 1.5.5.7.7 1.6.8 2.4-.1 0-.2-.1-.3-.1.3.9.3 1.9.4 2.8l-.3-.3v.1c-.1.5-.1 1 .1 1.5-.1 0-.1-.1-.2-.1v.1c0 .3-.1.6.1.9.1 0 .1 0 .2-.1s.1-.3.2-.4l.3-2.1c.2-1.3.3-2.6 1.1-3.7l.7-.9 1.5-1.8c1.4-1.6 2.4-3.3 3.1-5.2.2-.7.4-1.5.5-2.3.2 1.4.4 2 .4 2.6zm-4.3 24c-.9.3-1.8.4-2.7.5-.2.6-.5 1.1-.7 1.6-.1.4-.1.8-.1 1.2-.2-.2-.3-.3-.4-.5l-.3-.6c-.3.3-.6.7-.9 1-.1-.1-.1-.2-.2-.2s-.1.1-.1.1c-.2.5-.4 1-.6 1.6 0 .3-.2.6.1.8.4.2.8-.1 1.2-.1.2 0 .4.2.4.3.3 0 .4.3.6.5.1-.2.1-.3.2-.5.3-.6.9-.7 1.5-.9l2.4-.5c.3 0 .6-.2.7-.5l.7-1.5c.1-.2.2-.3.1-.5l-.7-.5c-.5-.3-.9-.8-1.2-1.3z" fill="#1D1D1B" fill-rule="nonzero"/><path d="M129.2 9.1v1.2h.1c.3-.3.6-.6.8-1 0 1-.2 2-.4 2.9.3-.2.5-.4.6-.7 0 .9-.1 1.8-.3 2.7h.1c.6-.4 1.2-.7 1.8-1.1 1.2-.9 2.3-1.8 3.4-2.8.5-.4.8-.9 1.2-1.4-.2 1.1-.6 2.1-1.1 3.1h.1c.4-.2.7-.5 1.1-.8 0 .4-.2.9-.3 1.3-.3.8-.8 1.6-1.4 2.3.3-.1.5-.3.8-.5v.1c-.2.7-.5 1.4-1 2.1.1 0 .1 0 .2-.1s.2-.1.3-.2c-.4 1.1-1 2.2-1.9 3.1.1.1.2 0 .3 0-.4.9-1 1.8-1.8 2.5h.2l-.3.6c-.3.5-.8 1.1-1.3 1.5h.3c-.4.6-.6 1.2-1 1.8.1.1.2 0 .2 0 1.4-.2 2.9 0 3.9.8.9.6 2 1.7 3.2 1 .6-.4.8-1.1.7-1.8-.2-.8-.9-1.4-1.6-1.9-1.2-.8-3.1-1.8-2.6-3.5.2-.8 1.1-1.3 1.9-1.4 1.3-.2 2.6.3 3.9.2.7-.1 1.3-.6 1.6-1.2.1-.2.1-.5.1-.8.3.5.4 1.1.3 1.7.1 0 .1-.1.2-.1.4-.5.6-1 .6-1.6.6 1 .9 2.4.2 3.4-.5.9-1.5 1.3-2.5 1.2-.7-.1-1.4-.5-1.8-1.1-.3-.1-.6-.1-.9-.2-.6 0-1.3-.1-1.6.4-.1.2 0 .4.1.6.2.3.5.5.8.7 1.2.9 2.8 1.8 3.3 3.3.2.7.2 1.4-.1 2.1-.4 1.2-1.6 2.2-2.9 2.3-.8.1-1.6-.1-2.3-.3.1.7.1 1.4.1 2 0 .7.3 1.5 1 1.8.5.3 1.1.3 1.6.2l.6-.1c-.1.2-.2.3-.2.4-.1.3-.2.5-.3.8.8.8 1.3 2 1 3.1-.1-.1-.2-.3-.3-.5 0 .6.1 1.2 0 1.8-.2-.2-.3-.4-.5-.6h-.1c.1.5.1 1 .1 1.6-.2-.2-.3-.6-.6-.6.1.2.1.4.1.6l-.1.5-.4-.4c-.2-.1-.4-.4-.7-.3-.3.4-.5.9-.7 1.3.1.1-.2.1-.2.1l-.3.1c-1.7-.3-2.3-.4-4-.6l-.1-.2-.1-.2c0-.6.3-1.2.7-1.5.5-.3 1.1-.3 1.7-.3h1.4c.1 0 .2 0 .3-.1.4-.3.5-.8.7-1.2.1-.3.1-.8-.2-1-.4-.3-1-.2-1.5-.3-.7-.1-1.7.1-2.1-.7-.1-.2-.1-.3-.2-.5h-.1c-.1.1-.2.4-.4.4 0 .5-.1 1.1-.3 1.5-.1.1-.1.2-.2.2-.1-.1-.1-.2-.1-.3-.1-.1-.1-.2-.2-.3v.1c-.1.6-.2 1.1-.3 1.7l-.3-.3c-.1 0-.1.1-.1.1-.1.5-.2.9-.3 1.4-.2-.2-.4-.5-.6-.6h-.1c-.3.3-.5.6-.8.9l-.3-.3c-.1 0-.1 0-.2.1-.1.2-.1.4-.3.6l-.1.1c.1 0-.3.2-.2.2l-.3.1c-4.4-.3-7.1-.3-11.4.3h-.7l-.2-.2c-.1-.1-.1-.2-.1-.4 0-.4.1-.7.5-1 .1-.1.2-.1.4-.2.1-.2.3-.3.5-.4.6-.1 1.3 0 1.9-.3.3-.2.4-.6.5-.9.2-.7.5-1.4.7-2.2l-.7.3c.2-.9 0-1.9-.5-2.6-.5-.3-1-.6-1.4-1-.1 0-.1.2-.2.3-.1 0-.1-.1-.1-.1-.4.1-.7.2-1 .4 0-.3.1-.5.1-.8 0-.1.1-.1 0-.2-.2 0-.5.1-.7.1 0-.1 0-.2.1-.4-.1-.1-.1 0-.2 0-.2.1-.4.1-.6.3 0 .1.1.2.2.3.3.2.9.5.9.9s-.1.7-.4.9h-.1c-.2.3-.5.4-.8.5v.2c.3.9.5 1.9.6 2.9 0 1.1-.1 2.3-.4 3.3l-.1.3-2.5.4c-.9.2-1.8.3-2.6.6-.9-1.5-2.1-3.3-2.3-5.5-.1-1.1 0-2.1.2-3.1l.2-.7.1-.1.8-.2.1-.1c-.1-.4 0-.9.4-1.1 0-.1 0-.3.1-.4.3-.4 1-.3 1.5-.3 1.2.2 2.3-.1 3.3-.6-.3-.2-.6-.4-.8-.8.1 0 .3.1.4.1.6.1 1.1-.1 1.6-.5 0 0 0-.1-.1-.1-.1.1-.3.2-.4.3v-.3c0-1-.4-1.8-.3-2.8-.2.1-.4.2-.7.2 0-.1.1-.2.1-.3.3-.7.3-1.6.5-2.4-.1 0-.2 0-.3-.1.1-.1.2-.2.3-.4.4-.6.7-1.3 1.2-1.8-.1-.1-.2 0-.3-.1-.1 0-.2-.1-.2-.1.7-.1 1.1-.6 1.8-.8.4-.1.8-.1 1.2-.3-.1-.1-.2 0-.3-.1-.2 0-.4-.1-.5-.2-.3.1-.5.4-.8.3-.3-.1-.4-.5-.6-.8-.1-.3-.2-.5-.2-.8 0-.1.1-.2.1-.2.4 0 .8.1 1.2.1v-.1l-.1-.3c-.2 0-.4 0-.5-.1-.1-.1-.2-.3-.2-.4-.4-.1-.8 0-1.2.2l-.3.2c-.1-.4 0-.9.1-1.2.1-.3.3-.6.6-.8l.4-.2c.1-.2.3-.2.5-.3.4-.1.8-.1 1.2-.2.1-.1.2-.3.3-.3.5-.1 1-.2 1.5-.2v-.3c.1-.8 1-1.3 1.3-2 .2-.4.3-.9.3-1.3.1.4.2.9.3 1.3.1.4.3.8.3 1.3.7-.2 1.4-.5 1.7-1.3 0-.2.1-.4.1-.6h.1c.4 1 .6 2.2.1 3.2-.2.5-.5 1-.8 1.5.5.7.7 1.6.8 2.4-.1 0-.2-.1-.3-.1.3.9.3 1.9.4 2.8l-.3-.3v.1c-.1.5-.1 1 .1 1.5-.1 0-.1-.1-.2-.1v.1c0 .3-.1.6.1.9.1 0 .1 0 .2-.1s.1-.3.2-.4l.3-2.1c.2-1.3.3-2.6 1.1-3.7l.7-.9 1.5-1.8c1.4-1.6 2.4-3.3 3.1-5.2.2-.7.4-1.5.5-2.3.2 1.4.4 2 .4 2.6zm-4.3 24c-.9.3-1.8.4-2.7.5-.2.6-.5 1.1-.7 1.6-.1.4-.1.8-.1 1.2-.2-.2-.3-.3-.4-.5l-.3-.6c-.3.3-.6.7-.9 1-.1-.1-.1-.2-.2-.2s-.1.1-.1.1c-.2.5-.4 1-.6 1.6 0 .3-.2.6.1.8.4.2.8-.1 1.2-.1.2 0 .4.2.4.3.3 0 .4.3.6.5.1-.2.1-.3.2-.5.3-.6.9-.7 1.5-.9l2.4-.5c.3 0 .6-.2.7-.5l.7-1.5c.1-.2.2-.3.1-.5l-.7-.5c-.5-.3-.9-.8-1.2-1.3z" stroke="#1D1D1B" stroke-width=".011"/><g fill-rule="nonzero" fill="#BF9A27"><path d="M128.7 10.2c-.1.9-.4 1.8-.7 2.6-.6 1.2-1.1 2.5-2 3.6-.5.4-.9.7-1.4 1.1-1.4 1.5-1.6 3.5-2.1 5.5-.2.7-.2 1.5-.6 2.1-.2.2-.4.4-.7.3-.4 0-.6-.4-.8-.7-.1-.1-.1-.2-.1-.3-.2.4 0 .8.2 1.2.3.3.7.4 1 .3.5-.1.8-.7 1-1.2.6-2 .9-4.2 2-6.1.6-1.1 1.7-1.7 2.7-2.2.4-.2.9-.4 1.3-.7 2.2-1.2 4.3-2.5 6.3-4.3 0 0 .1-.1.1 0-.5 1.3-1.6 2.5-2.8 3.5-1.2.9-2.5 1.9-3.9 2.4-.4.1-.9.2-1.4.1-.1.2-.1.3-.2.5l-.2.5h.2c.2-.3.5-.4.8-.4h.1c-.5.7-1.2 1.2-1.9 1.7.3.1.6 0 1-.1l.3-.1v.1c-.4.7-1.1 1.3-1.7 1.7h.1c.3 0 .7 0 1-.1v.1c-.5.8-1.2 1.5-1.9 2.2.4 0 .7-.1 1.1-.2 0 .1-.1.2-.1.2-.6.6-1.2 1.1-1.9 1.6h.5c-.3.6-.9 1.2-1.5 1.5 0 .1.1.2.1.2.2-.1.5-.3.7-.2.1 0 .1.1 0 .2-.4.3-.8.7-.9 1.2-.1.2-.1.4-.1.6.2-.4.5-.7.8-1 .2-.2.6-.4.7-.7l.1-.2c.6-.2 1.3-.4 1.9-.7.6-.3 1.1-.6 1.6-.9-.5 1-1.5 1.6-2.4 2-.7.3-1.6.4-2.2 1 1.3-.4 2.8-.1 4-.5.6-.2 1.2-.4 1.8-.8l.5-.4c.4-.2.9-.2 1.4-.2 1-.1 2 0 2.9.5.8.4 1.5 1.2 2.3 1.5.8.2 1.6 0 2.1-.7.4-.6.6-1.4.4-2.1-.2-.5-.5-1-1-1.4-.8-.7-1.8-1.2-2.6-1.9-.5-.4-.8-1.1-.6-1.7.2-.6.8-1 1.4-1.1 1.3-.2 2.6.2 4 .2.4 0 .7-.1 1.1-.4-.1.3-.4.5-.6.7.4.1.7 0 1-.1.5-.2.9-.7 1.2-1.2.1.8-.1 1.6-.8 2.1-.6.4-1.5.5-2.1.1-.3-.2-.5-.4-.7-.7-.6-.2-1.3-.3-1.9-.3-.6 0-1.2.2-1.5.8-.1.2-.1.2 0 .5.1.5.7 1 1.1 1.3 1.3 1 3.4 2 3.2 3.9-.1 1.1-.8 2.3-1.9 2.7-1.1.5-2.3.1-3.2-.5-.9-.6-1.7-1.4-2.8-1.1 1 0 1.9.8 2.3 1.7.3.8.1 1.7.2 2.5 0 .9.2 1.8 1.1 2.3.4.2.8.3 1.2.3.1 0 .2.1.2.2.1.2 0 .3-.1.4 0 .1.1 0 .2.1.6.1 1.1.7 1.2 1.3v.1c-.2-.1-.5-.2-.8-.3.3.4.6 1 .6 1.5h-.1c-.3-.1-.6-.3-1-.3.3.5.6 1 .6 1.6-.2-.2-.4-.3-.7-.4.1.2.1.5.1.8-.2 0-.3-.1-.5 0-.3.1-.3.4-.4.6-.1.3-.3.6-.5.8-.2.2-.6.1-.9.1l-1.8-.3c-.1-.3.1-.5.3-.7.2-.2.5-.3.8-.4-.1-.1-.2-.1-.2-.1-.6-.1-1.1.1-1.4.6-.1.1-.1.3-.3.4l-.5-.1c-.1-.1 0-.3 0-.4.1-.3.4-.6.7-.7 1-.2 1.9.2 2.9 0 .3 0 .4-.3.5-.5.2-.3.4-.7.6-1.1.1-.5.3-1.2-.2-1.6-.4-.3-.8-.4-1.3-.4-.7-.1-1.4 0-2-.3-.6-.4-.4-1.1-.5-1.7-.1-1 0-2.1-1-2.7-.9-.4-2-.1-2.9.2-1.3.4-2.6 1-3.9 1.3-.4.1-.9.2-1.4.2.1-.4.1-.9.1-1.4h.1c1.2.3 2.7.2 3.8-.2.4-.1.7-.2 1-.4-.3 0-.6.1-.9 0-.2-.1-.4-.1-.6-.2.7-.4 1.4-.8 2.2-1.1.6-.2 1.3-.5 2-.3.1.1.2.1.4.2-.5-.6-1.4-.4-2.1-.3-.8.2-1.6.7-2.4 1-.7.4-1.7.3-2.4 0 .2.2.4.3.6.4.1.1.1.1.2.1.3.1.6.3.9.5-.2.1-.4.1-.5.1-.8 0-1.5-.1-2.2-.4l-.1-.1c-.3-.5-.7-1.1-1.2-1.5.5.8.8 1.7.8 2.7-.1.9-.4 1.7-.8 2.5h-.1c-.1-.1-.1-.3-.2-.5-.3.4-.5.9-.9 1.3-.1-.1-.1-.2-.1-.4v-.4l.3-.3c.1.1.1.2.2.3.1 0 .2-.1.2-.2.3-.4.5-.8.5-1.3-.1.1-.1.3-.2.4-.1.1-.1.2-.3.3-.1-.3-.2-.5-.2-.8-.1.1-.1.3-.2.4-.2.4-.5.8-.9 1.1-.1 0-.2.1-.2.1-.1-.1-.1-.2-.2-.3-.3-.7-.3-1.4-.2-2.2l.1-.1c0 .1 0 .3.1.4 0 .3.1.6.2.9h.1c.7-.4 1-1.2 1.4-1.8l.3-.3c-.4 0-.6.5-.8.8-.1.2-.4.5-.6.6-.1 0-.1-.1-.1-.2-.2-.6-.1-1.2 0-1.8-.3.5-.8.9-1.2 1.3l-.2.3c-.1-.4-.2-.7-.1-1.1-.1.1-.1.2-.2.3-.2.7 0 1.5.3 2.2v-.3c0-.2.1-.5.3-.6 0 .4.1.9.2 1.3 0 .2.1.3.1.5-.1.2-.4.4-.6.5 0 0-.1 0-.1-.1-.1-.8-.4-1.5-.8-2.2l-.2-.3c0-.5 0-1 .1-1.5-.4.4-.5 1-.5 1.5-.1 0-.1 0-.2-.1-.3-.3-.6-.6-.8-1 0-.2.1-.4.1-.6 0 0 .1 0 .1.1.1.3.3.5.5.8.1-.1.2-.3.4-.4 0 0 0-.1.1-.1.3-.3.5-.7.7-1 .2.2.3.5.6.7.1-.1.2-.4.3-.5l.1-.4c.1.1.2.2.4.2-.2-.2-.3-.5-.4-.8-.1.2-.2.5-.4.7-.2-.3-.3-.6-.4-.9.1-.2.3-.4.4-.5.1.2.2.4.4.6.2-.2.3-.4.5-.6.1.2.2.4.3.5.1.2.2.4.4.5.1 0 .1-.1.1-.2.2-.5.3-1 .3-1.6v.1c-.1.3-.3.6-.4.9h-.1c-.3-.4-.4-.8-.6-1.2-.1.3-.3.6-.5.8-.1 0-.1-.1-.2-.2-.1-.2-.2-.4-.2-.6-.1.2-.2.4-.4.6-.2.2-.4.5-.6.7-.2-.4-.3-.8-.4-1.2-.1.1-.1.3-.2.4-.2.4-.4.7-.7 1.1-.1 0-.1-.1-.1-.2-.1-.3-.3-.7-.3-1 .3-.5.6-.9.9-1.4 0 .1 0 .1.1.2.1 0 .1-.1.2-.1.1.5.2.9.5 1.3.4-.4.6-.9 1-1.4.1.1.1.3.2.4.1 0 .2-.1.4-.2l.5-.5c.1 0 .1.1.2.1.3-.3.5-.7.6-1.1v-.3c-.2.3-.3.6-.6.8-.1 0-.1-.1-.1-.1 0-.1-.1-.2-.1-.3-.2.3-.3.6-.6.8-.1-.1-.1-.3-.1-.4.3-.4.5-.8.6-1.3-.3.4-.5.9-1 1.2-.1 0-.1-.1-.1-.2-.1-.3-.2-.6-.2-.9l.3-.3c.1.1.1.3.2.4.2-.1.3-.3.4-.4.3-.4.5-.9.7-1.3-.2.3-.4.7-.7.9-.1 0-.1-.1-.1-.2s-.1-.3-.1-.4c-.2.3-.5.8-.9 1-.1 0-.1-.1-.1-.2-.1-.4-.1-.7 0-1.1-.4.6-.7 1.2-1.3 1.6v-.1c0-.5 0-1 .1-1.5l.3-.3c0 .2.1.4.1.5.4-.2.8-.5 1.2-.8 0 .2 0 .4.1.6.3-.2.6-.4.9-.7 0 .3 0 .5.1.7.1 0 .1-.1.2-.1.8-.8 1-1.8 1.1-2.9v-.6l-.1-.4-.1-.4-.2-.5-.2-.3s0 .1 0 0l.2.7.1.6v1.2l-.1.5-.1.6-.2.5c0 .1 0 .1-.1.1v-.2l-.1-.6v-.6h-.1v.1l-.2.5-.2.4-.2.2-.1.1v-1.3h-.1l-.1.1-.3.6-.3.5-.3.3-.2.1v-.9l.1-.6h-.1l-.7.9-.6.6-.1.1v-.8l.1-.5-.1.1-.4.4-1 .8-.3.2v-.1l.2-.3.3-.4.3-.3.3-.3.5-.3.5-.3.6-.2.4-.2.4-.3.2-.3.1-.3c0-.1.1-.1 0-.2l-.8.2-.5.1h-.4l-.3-.1-.2-.1-.1-.1-.1.1-.2.2-.1.1h-.2l-.1-.2-.1-.3v-.1h2.3l.5-.1.5-.2.4-.2.3-.3.2-.3.1-.2h-.1l-.3.1-.3.1h-.3l-.5-.1-.6-.2h-.9l-.5.1h-.2l-.1-.1-.1-.1V16l-.1-.6v-.3l.1-.1.4-.1.5-.1h.4l.5.1.6.2h.5l-.1.2v.1l.1.1.1.1.2.1v.1l-.1.1h-.1l-.3-.1-.2-.2v.2l.1.2.1.1h.3l.2-.1.4-.2.2-.1h.2l.3.1h.2l.4-.2h.1-.1l-.4-.2-1.1-.6-.2-.1h-.2l-.4.1h-.2l-.5-.2-.3-.1.6-.1h.8l.3.1.3.1.3.2-.1-.4h-.2l-.2-.1-.1-.1-.1-.2v-.2l.1-.2.1-.2.3-.3.3-.3h.1l.1.4v.4h-.1l-.3-.3v.2l.2 1.1v.6h.1l.2-.6.2-.3.3-.2.5-.3.5-.3.3-.3.3-.4v.7l-.1.4-.2.6v.1l-.1-.3-.1-.6v.1l-.1.3-.1.5-.3-.5v.8l-.1.7-.1.4-.1.4.4.3.3.3.2.4s0 .1 0 0l-.4-.2h-.1v.1l.3.5.3.7.2.6.1.5v.1l-.7-.7-.1-.1.2.7.2.6.1.7v.3l-.5-.6-.2-.2v.1l.2.7.2.7.1.6v.4l-.3-.5-.2-.3v.4l.1.3.1.4.3.5.3.4.5.4.2.1v-.2h.2l.2-.1.2-.1.1-.2.1-.3.2-1.2.3-2.1.1-.8.2-.8.2-.5.2-.4.6-.8.8-1 .8-.9.7-.9.8-1.1.7-1.1.4-.8.3-.7.3-.8.2-.5v.1l-1.3.8z"/><path d="M129.5 10.8c-.1.5-.2.9-.3 1.4-.3 1-.5 2.1-1 3l-.1.1c-.4.2-.7.4-1.1.5v-.1c.7-1.3 1.2-2.7 1.8-4.1l.7-.8zm6.1 1.9c-.1.2-.2.5-.3.7-.8 1.3-2.1 2.6-3.4 3.4 0-.1.1-.2.1-.3h-.1c-.1.1-.1.1-.2.1l.4-.6c.5-.3.9-.7 1.4-1.1.5-.5 1-1.1 1.5-1.7 0-.2.3-.4.6-.5zm-5.8.2c0 .6-.2 1.2-.4 1.7-.2.1-.4.3-.6.3v-.1c.2-.4.3-.8.4-1.3.2-.1.4-.4.6-.6zm4.8 2.7c-.8 1.4-2.1 2.5-3.4 3.4l-.2.1c0-.1.1-.2.1-.3-.1-.1-.1 0-.2 0-.1.1-.3.2-.4.2.4-.5.8-.9 1.1-1.5.8-.5 1.6-1 2.4-1.7l.2-.1s.2-.1.4-.1zm-20.9.7c.1.2.2.4.1.6-.3 0-.5.1-.8.1h-.1c0-.3.3-.7.6-.9h.1l.1.2zm4.5.1c-.1.1-.2.1-.4.1-.1-.2.2-.1.2-.2.1 0 .2 0 .2.1m12.7.1c0 .2-.1.3-.2.4-.7.9-1.7 1.4-2.7 1.7h-.1c.2-.2.4-.5.5-.7.9-.4 1.7-.9 2.5-1.4zm3.1 1.1c-.1.2-.2.4-.3.5-.9 1.2-2.2 2.2-3.5 2.9h-.1c0-.1.1-.2.1-.3h-.2c.2-.2.3-.4.5-.6 1.1-.7 2.1-1.5 3.1-2.4.2 0 .3-.1.4-.1m-17.2.6c0 .1 0 .1 0 0-.6.4-1.3.2-1.8-.1l-.1-.1c.5-.2 1.2-.3 1.7.1l.2.1zm13.9-.3c-.6 1.2-1.9 1.9-3 2.4-.2.1-.4.2-.7.2v-.1c.3-.3.6-.7.9-1.1l.1-.1c.9-.3 1.8-.8 2.7-1.3-.1-.1-.1-.1 0 0zm-.8 1.9c0 .1-.1.2-.2.4-.7 1-1.7 1.7-2.7 2l-.9.3c.3-.4.7-.8.8-1.3.5-.2 1-.4 1.4-.6.3-.2.7-.4 1-.6.3-.1.4-.2.6-.2m2.5.4c0 .1-.1.3-.2.4-.7 1-1.7 1.7-2.7 2.3-.1.1-.3.2-.5.2 0-.1.1-.2.1-.2 0-.1-.1 0-.1 0 .1-.2.4-.4.5-.7l.2-.2c1-.5 1.8-1.1 2.7-1.8zm-3.1 1.4l-.6.9c-.9 1-2 1.6-3.3 1.9.3-.3.6-.6.8-1 0-.1.1-.2.1-.3 1-.5 2.1-.8 3-1.5m-15 1.1l.1.3c-.2.4-.5.7-.8 1l-.2.2c-.1-.3 0-.7.1-1 .2-.2.5-.4.8-.5 0-.1 0 0 0 0m16.6 0c0 .2-.2.2-.2.4-.6.7-1.4 1.3-2.2 1.7 0-.1.1-.1 0-.2-.1 0-.3.1-.4.2 0-.1.1-.2.2-.3l.3-.4c.8-.5 1.5-.9 2.3-1.4zm-16.1.9v.7c0 .2.1.4-.1.5-.2.3-.5.6-.8.8-.1 0-.1-.2-.1-.2-.1-.3-.1-.6.1-.9l.9-.9zm13.3.3c-.7 1-1.8 1.5-2.8 1.9-.4.2-.8.3-1.2.4.3-.2.5-.5.7-.8l.1-.3c1-.3 1.9-.7 2.8-1.1.1 0 .2-.1.4-.1zm-15.3.2c0 .3.1.6.1 1-.1.1-.2.2-.4.3 0-.4.1-.8.2-1.2-.1-.1.1-.3.1-.1m3.5.4c.1.2.1.4.2.7.1 0 .1 0 .2-.1 0 0 .1-.1.1 0-.1.2-.3.4-.5.6l-.1.1c-.1-.3-.2-.6-.1-1 0-.1.1-.2.2-.3m13.3.2c-.6 1-1.4 2.1-2.5 2.5-.4.1-.8.3-1.2.3.2-.2.4-.3.7-.4.6-.4 1.1-.9 1.5-1.4.5-.3.9-.6 1.4-.9l.1-.1zm-14 1.2c-.2.5-.5.9-.9 1.3-.2-.4-.3-.8-.3-1.2.1-.2.3-.3.5-.5.1.1 0 .2.1.3.1-.1.3-.2.4-.3l.2.4zm-2.5-.3c.1.4.2.7.3 1.1.1 0 .2-.1.3-.2.1 0 .1.1 0 .1-.2.4-.4.7-.7 1-.1-.5-.2-.9-.2-1.4 0-.2.1-.4.2-.6h.1m4 .6l.1.2c-.1.3-.3.5-.5.7-.1-.3-.2-.6-.1-.9.1-.2.2-.3.4-.5 0 .2 0 .4.1.5m-3 1c.1.3.3.6.4.9-.2.5-.4 1.1-.6 1.7-.2-.4-.3-.8-.5-1.2v-.3c.2-.3.5-.7.7-1.1zm2 1.7c.1.3.2.6.4.8.1 0 .2-.1.2 0-.1.4-.3.7-.6 1-.1 0-.1-.1-.2-.2-.2-.3-.3-.6-.4-.9.2-.3.3-.5.6-.7zm-1.1.6l.1.2c-.1.4-.2.9-.2 1.3-.1 0-.1-.1-.2-.2-.1-.3-.3-.6-.3-.9l.3-.9c.1.1.1.3.3.5m-1.8 0l.3.6c-.3.1-.5 0-.8-.1-.1 0-.3-.1-.4-.2.3 0 .6-.2.9-.3zm.5 1c0 .1.1.1.1.2v.1c-.5.1-.9.3-1.3.5-.1.1-.3.2-.3.4 0 .5.6.7.9 1 .1.1.2.2.1.3 0 .1 0 .1-.1.1-.2 0-.4-.1-.5-.2 0-.3-.3-.4-.5-.6-.3-.2-.8-.6-.9-1h-.2l-2.6.5c-.2-.1-.5-.3-.6-.5 0 0 0-.1.1-.1.6.1 1.3.1 2 0 .9-.1 1.8-.5 2.7-.8.3.1.7.1 1.1.1m.6.7h-.2c0-.1 0-.2.1-.2s.1.1.1.2m-6.7.7c0 .1-.1.1-.1.1-.1 0-.3.1-.4.1-.1 0-.1-.1 0-.2 0-.1.1-.2.2-.2s.2.1.3.2m7-.2c0 .1.1.1.1.2l-.2.1c0-.1 0-.2.1-.3zm16.1.5c.2.4.3.9.3 1.4 0 .2-.2.4-.2.6-.1.2-.2.3-.4.4-.2-.1-.5-.2-.8-.2 0 .1.1.2.2.3.1.3.2.7.1 1.1h-.1c-.3-.2-.5-.4-.8-.5.1.7.1 1.4 0 2 0 0-.1.1-.1 0-.2-.1-.3-.2-.5-.2 0 .4 0 .8-.1 1.1-.1 0-.2-.1-.4-.2-.2.3-.5.6-.8.8h-.1c-.1-.2-.3-.3-.6-.2-.4.2-.3.7-.4 1 0 .1 0 .1-.1.1-.9 0-1.7-.1-2.6-.1h-.1c-.1-.4 0-.7.3-.9.1-.1.2-.1.3-.2-.3.1-.6.1-.9.3-.3.2-.4.5-.4.8h-.1c-.2 0-.4.1-.5-.1-.1-.4.1-.8.5-1 .4-.2.8-.3 1.2-.4.8-.2 1.6-.2 2.4-.5.3-.2.5-.5.6-.8l.8-1.8c0-.2.1-.4 0-.6-.3-.3-.6-.4-.9-.7-.3-.2-.6-.5-.7-.9 0-.1-.1-.1 0-.2h.1c.3.4.5.8.9 1l.6.3c-.1-.2-.2-.3-.2-.5.1.1.3.2.4.3.3.2.7.4 1.1.5-.2-.2-.4-.5-.5-.8.2.1.3.1.5.2-.3-.4-.5-.7-.5-1.2.1 0 .2.1.4.1-.1-.2-.2-.5-.2-.7.6-.2 1.8-.5 2.3.4m-17.8 1.6c-.1.2-.2.2-.4.3v-.4s.1-.1.1 0c.1 0 .2 0 .3.1m5.9 1.5c.1 0 .2-.2.4-.2-.3.9-.7 1.8-.9 2.7-.1.4-.2 1 .1 1.3.4.3.9-.1 1.3-.2h.1v.1c-.1.2-.2.5-.3.7h-.6c-.4-.1-.8-.3-1.3-.2l-.4.2c-.2-.2-.3-.4-.5-.5.2-.1.4-.1.5-.3l.1-.3.8-2.4c.2-.4.3-.8.5-1.3.2.2.2.4.2.4m-3.1 4.1v.2c-.2.1-.4.3-.4.6h-.1c0-.2-.1-.4-.2-.5 0-.1-.1-.1-.1-.2.2-.2.5-.2.8-.1zm5.1.3c-.1.1-.3.1-.4.1-.1 0-.1 0-.2-.1 0-.2.1-.4.3-.5.2.1.2.3.3.5m-6.2.4c0 .1.1.1 0 .2l-.6.1c-.1-.1 0-.1 0-.2s.2-.3.3-.3c.1-.1.2 0 .3.2m2.1-.1c-.2 0-.4.1-.6.1 0-.1 0-.1.1-.2.1 0 .1-.1.2-.1s.2.1.3.2"/><path d="M110.8 32.4c.1.2.3.4.4.7 0 .1-.1 0-.1.1-.2 0-.3.1-.5.1-.1-.2-.2-.5-.4-.7.1-.2.3-.2.6-.2zm-1.1.2c.1.2.2.5.3.7h-.1l-1.1.2-.1-.7c.3-.1.6-.2 1-.2m-1.7.4c0 .2.1.5.1.7-.4.1-.8.2-1.2.2v-.8h.1c.3-.1.6-.1 1-.1zm-1.6.3c0 .3-.1.5-.1.8-.2.1-.4.1-.6.1V34l.2-.6c.2-.1.4-.2.5-.1zm5.1.5c0 .1-.1.1-.2.1l-1.8.4-3.8.8c-.1 0 0-.1 0-.2s0-.2.1-.2l3.1-.6 2.5-.5s0 .1.1.2m.2.5c.3.5.5 1.1.6 1.7.1.7.2 1.4.2 2.1 0 .1 0 .1-.1.1-.2 0-.4.1-.6.1-.1-.2 0-.5-.1-.7-.1-.8-.2-1.5-.4-2.2l-.3-1c.2 0 .4 0 .7-.1m-1.2.4c.4 1.2.7 2.4.7 3.8-.4.1-.9.2-1.3.3v-.1l-.8-3.8c.4-.1.9-.2 1.4-.3v.1zm-2.1.4l.8 3.8c-.5.1-.9.2-1.4.3-.4-1.2-.6-2.6-.7-3.9.1-.1.2-.1.3-.1.3-.1.6-.1 1-.1zm-2 .4c.1 1.3.4 2.6.8 3.8-.2 0-.4.1-.7.1-.6-1.1-.9-2.4-.9-3.8v-.1c.3 0 .5-.1.8 0zm6 3.3v.3h-.1l-5.5 1.1c0-.1-.2-.2-.1-.3l1.9-.4 3.8-.7zm-.1.9c0 .3-.1.5-.1.8-.1.1-.3.1-.4.1v-.8c.1-.2.3-.2.5-.1-.1-.1 0-.1 0 0m-1 .2v.7l-.9.2-.2-.7c.1-.1.2-.1.3-.1l.8-.2v.1m-1.8.3c.1.2.1.5.2.8h-.1l-1 .2c-.1-.2-.2-.5-.3-.7.3-.2.7-.3 1.2-.3zm-1.5 1l-.5.1h-.1c-.1-.2-.3-.4-.4-.7h.1c.2 0 .4-.1.5-.1l.4.7z"/></g><path d="M135.2 42.2c-4-.8-8.5-1.2-13.1-1.2-5.7 0-11.1.7-15.9 1.9l-.1-.6c1.4-.4 2.8-.6 2.8-.6 4.1-.8 8.5-1.2 13.2-1.2 4.7 0 9.1.4 13.2 1.2l-.1.5z" fill="#CFB263" fill-rule="nonzero"/><path d="M119.8 42.2l.1 2.1c-.3-.4-.5-.8-.8-1.2v.1c0 .4.1.7 0 1.1h-.2l-.1-2.1.8 1.2v-1.2h.2zm-2.6.4l.2 1.9h-.2l-.2-2.1h.3l-.1.2zm-1.6 0v.1l-.5.1.1.6h.5c0 .1.1.2 0 .2s-.3 0-.5.1c0 .3.1.6.1 1h-.3l-.3-2.1c.3 0 .5-.1.8-.1l.1.1zm12.6-.1v.2h-.5v.1l-.1.5h.5v.2h-.5v.1l-.1.6c0 .1.1 0 .1.1.1 0 .3 0 .4.1v.2c-.3 0-.6-.1-.8-.1l.2-2.1c.2 0 .5 0 .8.1m-2.7 1c.1 0 .2-.1.3-.2.1-.2.2-.5.1-.7-.2-.4-.6-.3-.9-.3l-.1 1.8v.4h.3c0-.3.1-.6.1-.9.1.3.2.6.4.9.1.1.2.1.3.1l-.3-.8c-.1-.2-.2-.3-.2-.3zm-.3-.3v-.7c.1-.1.1 0 .2 0l.1.1c.1.1.1.3.1.4 0 .1-.1.2-.1.2-.1.1-.2.1-.3 0zm4.5-.5v.6c0 .2 0 .4.1.5 0 0 .1 0 .1-.1l.4-1h.1l.2 1.1h.1l.4-1h.3l-.8 2v-.1l-.2-1.1c-.2.4-.3.8-.5 1.1v-.1l-.2-1.9v-.2.2zm-16.4.1v.2c-.2 0-.3.1-.5.1 0 .2.1.4.1.6l.5-.1v.2c-.1.1-.3.1-.5.1l.1.9h-.3v-.1l-.3-2c.4.1.7.1.9.1zm-2.3.3c.2.7.3 1.4.4 2.1-.1 0-.2 0-.3.1v-.1l-.4-2.1c.1.1.2 0 .3 0m22.4.1v.2c-.2 0-.4-.1-.5-.1-.1 0-.1.1-.1.1 0 .2-.1.3-.1.5.2.1.3.1.5.1v.2c-.2 0-.3-.1-.5-.1-.1.2-.1.5-.1.7h.1c.2 0 .3.1.5.1v.2c-.3-.1-.6-.1-.8-.2l.1-.5.3-1.6.6.4zm-9.8.4c0-.2-.1-.3-.3-.4 0-.1.1-.1.2-.2.1-.2.1-.4 0-.6 0-.1-.1-.2-.2-.2-.2-.1-.5-.1-.8-.1v2.2c.3 0 .6.1.8-.1.2-.1.3-.3.3-.6zm-.8-1.1h.2c.1 0 .1 0 .2.1s0 .4-.1.5c-.1.1-.2.1-.3 0v-.6zm.5 1.4c0 .1-.1.2-.2.2h-.3v-.7c0-.1.2 0 .2 0l.1.1c.2 0 .2.2.2.4zm-13.9.7c.1-.1.2-.2.2-.3.1-.2 0-.5-.1-.7-.2-.3-.6-.1-.9-.1h-.1l.5 2.1c.1 0 .2 0 .3-.1 0-.3-.1-.6-.2-.9.2.3.4.6.6.8.1 0 .2 0 .3-.1-.2-.1-.4-.4-.6-.7zm-.1-.2c-.1.1-.2.1-.3.1l-.1-.6c.1-.1.2-.1.3-.1.1 0 .1.1.2.2-.1.1 0 .3-.1.4zm-2.1-.1c-.1.1-.1.2-.2.2-.1-.1-.2-.3-.4-.2-.1 0-.1 0-.2.1-.2.3-.1.7 0 1 .1.2.2.6.5.7.1 0 .2 0 .2-.1.2-.2.1-.5.1-.7-.1 0-.2.1-.3.1 0-.1-.1-.1-.1-.2.2-.1.4-.1.6-.2.1 0 0 .1.1.1.1.4.1.8-.1 1.1-.2.2-.4.2-.6.1-.4-.2-.5-.7-.6-1.1-.1-.4-.1-.8.3-1 .2-.1.4-.1.5 0 .1 0 .2.1.2.1m28.3.3c.2-.2.2-.4.2-.7-.1-.4-.6-.4-.9-.4v.2l-.4 1.9v.1c.1 0 .2.1.3.1.1-.3.1-.6.2-.9.1.3.1.7.2 1 .1 0 .2 0 .3.1-.1-.3-.2-.7-.2-1 .2-.2.3-.3.3-.4zm-.5-.1c0-.3 0-.5.1-.7h.1c.1 0 .1.1.2.1.1.1 0 .3-.1.4 0 .2-.2.3-.3.2zm2.4-.4v.9c.2-.2.3-.5.5-.7.1 0 .2 0 .2.1v.1l-.7 1.1c-.1.3-.2.6-.2.8-.1 0-.2 0-.3-.1.1-.3.1-.6.2-.9l-.1-1.3c.2-.1.3 0 .4 0" fill-rule="nonzero" fill="#1D1D1B"/><path fill="url(#a)" fill-rule="nonzero" d="M31.3 58.1h31.5v5.7H31.3z" transform="translate(75 6)"/><path fill="#CFB263" fill-rule="nonzero" d="M106.3 64.1h31.5v5.7h-31.5z"/><path fill="#BF9A27" fill-rule="nonzero" d="M107.1 64.8h30.1v4.3h-30.1z"/><path d="M126.9 65.7h1V68h-1zm4 .1c-.2-.1-.4-.2-.6-.2-.7 0-1.2.6-1.2 1.2 0 .7.6 1.2 1.2 1.2.2 0 .5-.1.6-.2v-.4c-.2.1-.4.2-.6.2-.5 0-.9-.3-.9-.9 0-.6.4-.9.9-.9.2 0 .4.1.6.2v-.2zm2.3 1l1.1-1.1h-.4l-.9.9v-.9h-.4v2.4h.4V67l1 1.1h.4zm-12.6-.8c-.1.1-.1.2-.2.2-.2-.2-.4-.3-.6-.2-.1 0-.2.1-.2.2v.3c.3.4.9.3 1.1.8 0 .3 0 .5-.2.7-.2.2-.7.2-.9.1-.1-.1-.2-.1-.3-.3l.2-.2c.2.2.5.4.8.2.1-.1.2-.2.2-.4 0-.4-.5-.4-.8-.6-.2-.1-.3-.3-.3-.5s.1-.5.4-.6c.2-.1.6 0 .8.3m-3.5-.3h1V68h-1zm-2.2 0h.3v2.4h-.3V67h-1.1v1.1h-.3v-2.4h.3v.9h1.1zm9.7 2.4l1-2.4h-.3l-.7 1.7-.7-1.7-.7 1.7-.7-1.7h-.3l1 2.4.7-1.6zm-12.7-2.3c-.2-.1-.4-.2-.6-.2-.7 0-1.2.6-1.2 1.2 0 .7.6 1.2 1.2 1.2.2 0 .5-.1.6-.2v-.4c-.2.1-.4.2-.6.2-.5 0-.9-.3-.9-.9 0-.6.4-.9.9-.9.2 0 .4.1.6.2v-.2z" fill-rule="nonzero" fill="#1D1D1B"/><g fill-rule="nonzero"><path d="M152.6 50.7l.5.5c.7-.2 1.5-.6 1.9-1.2.4-.6.1-1.4-.2-1.9l-.1-.1c-.2-.4-.6-.5-1-.5-.3 0-.5.1-.7.3-.3.3-.4.7-.3 1.1 0 .3.4.6.7.7 0 .2-.1.5-.2.7 0 0 0 .1-.1.1-.2.1-.4.2-.5.3" fill="#1D1D1B"/><path d="M153.7 47.5c-.3 0-.5.1-.7.3-.3.3-.4.7-.3 1.1 0 .3.4.6.7.7 0 .2-.1.5-.2.7 0 0 0 .1-.1.1-.2.2-.4.3-.5.4 0 0 2.8-.4 2.3-2.5-.1-.1-.3-.9-1.2-.8z" fill="#BF9A27"/><path d="M154.5 63.4c-.4 0-1-.2-1.5-.4-1.3-.5-3-3.1-3-3.1-.3-.7-.7-1.9-.9-3 1.7-.5 2.1-1.8 2.1-2.9 0-2.9-2.1-3.3-3.2-3.4h-4.6.1c.2.2.3.4.3.5v8.7s0 1-.2 1.6c-.1.2-.3.5-.5.5l.5.5h3.3l-.1-.1-.1-.1c-.3-.3-.3-.7-.4-.9v-4.2h.5c.7 2 1.5 3.8 3.4 5.3.8.7 1.8 1.6 3.2 1.5.5 0 1-.1 1.4-.4 0 .2-.1.1-.3-.1zm-6.1-8.8c-.3.5-1.1.5-1.6.5h-.4v-2h2.1c.2.4.2.9-.1 1.5z" fill="#1D1D1B"/><path d="M153.1 63.1c-1.3-.5-3-3.1-3-3.1-.2-.3-.5-1-.6-1.2-.2-.6-.6-1.4-.7-2.2 1.7-.5 2.1-1.9 2.1-3 0-2.4-1.7-2.7-2.8-2.8h-4.6.1c.2.2.3.4.3.5V60s0 1-.2 1.6c-.1.2-.3.5-.5.5h3c-.1-.2-.2-.5-.3-.8v-4.5h.8l.2.5c.7 2 1.5 3.8 3.4 5.3.1.1.5.3.5.3.7.4 1.3.7 2.2.7.5 0 .8 0 1.3-.2l.3-.1c-.4.1-1.1 0-1.5-.2zm-4.7-8.5c-.3.5-1.1.5-1.6.5h-1v-2.7h1.9c.2 0 .6.2.7.5.3.5.3 1.1 0 1.7z" fill="#BF9A27"/><path d="M163.3 59v-.3c-.4-.9-1.5-1.3-2.3-1.8-1.2-.6-2.9-1.6-2.7-4 .1-.9.6-1.8 1.4-2.3.4-.3 1.1-.4 1.6-.4.8 0 1.9.4 2.8.4.2 0 .6-.1.7-.3l.5.5v2.7c-1.1-.6-2.4-1.5-3.8-1.2-.3.1-1.1.4-.9 1.4 0 .2.1.3.1.3 1.2.8 2.5 1.2 3.6 2.2l.3.3c.2.2.3.4.5.6.6.8.8 2.1.4 3.1l-.2.4v.1c-.7 1.1-1.9 1.9-3.2 2-.9.1-1.8-.3-2.5-.5-.3-.1-.8 0-1.1.3v.1l-.4-.4V59c.6.5 1.3.8 2.1 1.1.7.3 1.8.5 2.5 0 .4-.2.6-.6.6-1.1m-76.2-5.9l.4.5s-.7 1.8-1 2.6c-.2-.2-.6-.5-.8-.5h-3.1v5.4c0 .5.2 1 .8 1.5h-3.5l-.6-.5c.1-.1.2-.1.2-.2.2-.2.3-.4.3-.6V49.2c0-.4-.1-.7-.4-1.1 0 0-.1 0-.1-.1h8.4l.5.4c-.3.9-.7 1.9-1 2.8-.3-.4-.7-.6-1-.6h-3.6v2.5h4.5zm43 9.5h7.1c.3-.8.6-1.7.9-2.4l-.4-.4c-.4.3-.8.5-1.3.5h-3.3v-3h1c.5 0 1.2-.1 1.5.3 0 0 .7-2 .8-2.2-.1-.1-.3-.2-.4-.4h-2.9v-2h3.8c.1.1.2.2.3.2.2-.6.6-1.5.8-2.2l-.4-.4h-7.7c.3.2.5.6.5.8v9.1c0 .3 0 .6-.2.9-.2.3-.3.4-.6.5l.5.7zm-29-11.9h-3c.3.2.4.4.5.7v7.8c0 .3-.3 1.4-1.9 1.4-.4 0-.8-.1-1-.2-.3-.3-.4-.6-.4-.8v-7c0-.4-.1-.8.1-1.2.1-.1.2-.3.4-.4l-.6-.4h-3 .1c.2.3.4.4.4.7V59s-.1 1 .6 1.9c.6.8 1.7 1.9 3.5 1.9 4.2 0 4.4-3.1 4.4-3.7V52c0-.3 0-.5.2-.8.1-.1.1-.3.3-.3l-.6-.2z" fill="#1D1D1B"/><path d="M95.1 50.7l-.4.4c-.2.4-.1.7-.1 1.2v7c0 .3.4 1.4 2 1.4s1.9-1.1 1.9-1.4v-7.8c-.1-.3-.2-.6-.5-.7h3c-.2 0-.2.2-.3.3-.2.3-.2.5-.2.8v7.4s.2 3.2-4 3.2c-4.1 0-4-3.2-4-3.2v-7.7c-.1-.3-.2-.5-.4-.7H92l3.1-.2z" fill="#BF9A27"/><path d="M96.6 62.1c-1.3 0-2.3-.3-2.9-1-.8-.8-.7-1.8-.7-1.8v-7.8c0-.2-.1-.3-.1-.4h1.5c-.1.3-.1.6-.1.8v7.4c0 .5.6 1.7 2.3 1.7 1.7 0 2.3-1.2 2.3-1.7v-7.8c0-.1-.1-.2-.1-.4h1.6c-.1.2-.1.4-.1.6v7.6s0 1.1-.7 1.9c-.7.6-1.6.9-3 .9z" fill="#FFF"/><path d="M82.1 53.1h5c-.2.6-.7 1.8-.9 2.4-.1-.1-.2-.2-.4-.3-.5-.1-1.3-.1-1.3-.1h-2.4v5.8c.1.4.2.9.6 1.2h-3.3c.1-.1.2-.1.2-.2.2-.2.3-.4.3-.6V49.2c0-.4-.1-.7-.4-1.1 0 0-.1 0-.1-.1h8.4c-.3.8-.7 1.8-.9 2.6l-.2-.2c-.4-.4-.8-.3-1.2-.3h-3.4v3zm54.7 9c.2-.7.6-1.6.8-2.2-.4.2-.8.5-1.3.5h-3.8v-3.6h1.3c.5 0 1 0 1.3.3l.8-2h-3.4v-2.7h3.6c.3 0 .5.2.7.3l.8-2h-7.7c.3.2.5.6.5.8v9.1c0 .3 0 .6-.2.9-.2.3-.3.4-.6.5l7.2.1zm21.2.2v-3.2c.6.5 1.3.8 2.1 1.1.7.3 1.8.5 2.5 0 .4-.4.6-.7.7-1.2v-.4s-.1-.3-.1-.4c-.3-.7-1.1-1.1-1.7-1.4l-1.2-.6c-.3-.2-2.3-1.1-2-3.3.1-1 .6-1.8 1.4-2.3.4-.3 1.1-.4 1.6-.4.8 0 1.9.4 2.8.4.2 0 .6-.1.7-.3V53c-.2-.2-.6-.4-.9-.5-.9-.5-2-.8-3.1-.4-.3.1-.6.5-.6.8-.1.3 0 .7.3 1l.2.2c1.2.8 2.5 1.2 3.6 2.2l.3.3s.2.3.3.5c.6 1.3.5 2.8-.4 3.9-.6.6-1.1 1-1.9 1.2-1.1.3-2.2-.2-3.3-.4-.4-.2-.9 0-1.3.5z" fill="#BF9A27"/><path d="M80.3 61.7c.2-.2.1-.8.1-1.1V49.1c0-.1-.1-.4-.2-.6h7.1l-.6 1.5-.1-.1c-.3-.2-.7-.2-.9-.2h-4v3.9h4.7c-.2.5-.3.9-.5 1.4-.1-.1-.3-.2-.4-.2h-3.8v5.3c0 .3 0 1.4.2 1.7l-1.6-.1z" fill="#FFF"/><path d="M121.4 60.4h2.6c.5 0 1-.2 1.4-.6l.5.4c-.2.6-.6 1.7-.9 2.4h-6.4l-.5-.5c.5-.3.6-1 .6-1.4v-9c0-.4-.2-.6-.4-.9h3c.1.1.3.2.4.3-.1.1-.1.2-.2.3 0 .1-.1.1-.1.2s-.1.2-.1.3c.1.1.1 8.5.1 8.5" fill="#1D1D1B"/><path d="M125.4 59.8c-.3.6-.6 1.7-.8 2.3h-6.5c.5-.3.6-1 .6-1.4v-9c0-.4-.2-.6-.4-.9h2.9c-.3.2-.5.6-.5 1.1v8.6h3.2c.6-.1 1.1-.3 1.5-.7" fill="#BF9A27"/><path d="M119 61.7c.3-.6.2-2.1.2-2.1v-8.2c0-.1-.2-.3-.2-.3h1.6c-.2.5-.1 1-.2 1.5v8.2h3.7c.1 0 .3-.1.4-.1.1 0 .1 0 .1-.1-.2.4-.3.7-.5 1.1H119z" fill="#FFF"/><path d="M109.9 60.4h2.6c.5 0 1-.2 1.4-.6l.5.4c-.2.6-.6 1.7-.9 2.4H107l-.5-.5c.5-.3.6-1 .6-1.4v-9c0-.4-.2-.6-.4-.9h3c.1.1.3.2.4.3-.1.1-.1.2-.2.3 0 .1-.1.1-.1.2s-.1.2-.1.3c.1.1.2 8.5.2 8.5" fill="#1D1D1B"/><path d="M113.9 59.8c-.3.6-.6 1.7-.8 2.3h-6.5c.5-.3.6-1 .6-1.4v-9c0-.4-.2-.6-.4-.9h2.9c-.3.2-.5.6-.5 1.1v8.6h3.2c.6-.1 1.1-.3 1.5-.7" fill="#BF9A27"/><path d="M107.4 61.7c.3-.6.2-2.1.2-2.1v-8.2c0-.1-.2-.3-.2-.3h1.6c-.2.5-.1 1-.2 1.5v8.2h3.7c.1 0 .3-.1.4-.1.1 0 .1 0 .1-.1-.2.4-.3.7-.5 1.1h-5.1zm23.3-10.6h6.4l-.5 1.2c-.1-.1-.4-.2-.6-.2h-3.9v3.4h3.3c-.1.3-.3.7-.4 1.1-.1-.1-.5-.1-.6-.1h-2.2v4.3h4.3c.1 0 .5-.1.5-.1-.1.3-.3.7-.4 1.1h-5.9l.1-.1s.1-.1.1-.5v-9.7c-.1-.3-.2-.4-.2-.4m23.1-1.8c-.3 0-.6-.3-.7-.5-.1-.2 0-.5.1-.7.1-.1.3-.2.5-.2s.4.1.6.3c.4.5 0 1.7-.7 1.9 0 0 .3-.6.2-.8m-1.1 14c-.8-.5-1.6-1.2-2.2-2-1.1-1.4-1.8-3.1-2.2-5 1.4-.2 1.9-1.1 2.1-1.7.1-.3.1-.7.1-1 0-2.5-2-2.5-2.3-2.5H144c.2.2.1.6.1.8v9.4c0 .1-.1.3-.2.4h1.5s-.1-.2-.1-.3v-4.9h1.6c.3 1.6.9 2.9 1.7 4.1 1 1.3 2.3 2.5 3.7 2.7h.4zm-5.8-7.9h-1.4v-3.3h2.3c.5 0 .9.3 1.1.7.3.5.3 1.2.1 1.7-.1.1-.1.2-.1.3-.2.3-.4.4-.7.5-.5.1-.9.1-1.3.1zm17.5-4.4v1.4c-1.2-.6-2.8-1.2-4.1-.3-.8.6-.4 1.7-.1 2 .6.6 1.3.8 2 1.2.9.4 2.2 1.2 2.6 2.3.3.8.3 1.8-.1 2.6-.6 1-1.6 1.8-2.8 1.8-.7.1-1.7-.4-2.5-.6-.3-.1-.8 0-.9.1v-1.7c1.2.7 3 1.7 4.4.7.7-.5.9-1.3.7-2-.5-1.4-2.1-1.8-3.1-2.4-.6-.3-1.3-.8-1.5-1.3-.3-.4-.9-1.8.1-3.1.4-.5.8-.7 1.4-.9.3-.1.6-.1.8-.1.7 0 1.6.3 2.5.5.2-.2.3-.1.6-.2" fill="#FFF"/></g></g></svg>