<?xml version="1.0" encoding="utf-8"?>
<!-- Generator: Adobe Illustrator 16.0.0, SVG Export Plug-In . SVG Version: 6.00 Build 0)  -->
<!DOCTYPE svg PUBLIC "-//W3C//DTD SVG 1.1//EN" "http://www.w3.org/Graphics/SVG/1.1/DTD/svg11.dtd">
<svg version="1.1" id="Layer_1" xmlns="http://www.w3.org/2000/svg" xmlns:xlink="http://www.w3.org/1999/xlink" x="0px" y="0px"
	 width="139px" height="136px" viewBox="-41.692 -43.393 139 136" enable-background="new -41.692 -43.393 139 136"
	 xml:space="preserve">
<g>
	<g>
		<path fill="#E6D4C3" d="M64.363-20.023c0.195,0.204,0.357,0.531,0.592,0.596c15.682,4.35,16.629,5.781,14.531,21.733
			c-2.776,21.112-5.544,42.225-8.287,63.342c-1.165,8.96-5.292,12.713-14.414,12.737c-18.343,0.05-36.684-0.041-55.027,0.04
			c-8.033,0.036-12.807-3.741-13.772-11.666c-2.375-19.476-4.539-38.978-6.76-58.473c-0.248-2.185,0.413-4.589-1.71-6.25
			c0-5.09,0-10.181,0-15.272c1.126-4.016,3.802-5.786,7.943-5.96c3.008-0.126,6.164,0.961,9.025-0.826
			C19.111-20.023,41.738-20.023,64.363-20.023z"/>
		<path fill="#FCF7EA" d="M32.598-16.607c10.415,0.958,23.364-1.232,36.327,1.299c5.806,1.133,7.943,3.25,7.349,8.738
			c-1.967,18.114-3.688,36.262-6.05,54.325c-0.833,6.386-0.76,12.832-2.223,19.221c-1.225,5.343-3.413,8.04-8.874,8.034
			c-19.768-0.026-39.536-0.017-59.302-0.005c-5.01,0.001-7.866-2.257-8.449-7.415c-2.208-19.493-4.513-38.98-6.76-58.472
			c-0.225-1.954-0.203-3.942-0.49-5.887c-2.762-18.676-3.011-17.974,16.345-19.685C10.279-17.324,20.227-16.607,32.598-16.607z"/>
		<path fill="#FE612E" d="M32.146,64.736c-7.357,0-14.717,0.003-22.077,0.003c-2.258-3.476,0.459-5.314,2.651-6.789
			c5.55-3.744,10.604-8.277,16.87-10.915c4.917,0.364,7.104-3.228,9.782-6.429c2.995-3.582,4.574-8.191,8.327-11.18
			c1.116,0.021,2.23,0.056,3.347,0.056c17.492,0.01,18.081,0.819,13.4,18.51c-3.394-2.559-6.2-0.935-9.242,0.974
			C47.308,53.924,40.066,59.825,32.146,64.736z"/>
		<path fill="#F8472D" d="M32.146,64.736c6.824-9.735,17.887-13.983,27.037-20.681c4.419-3.233,4.98,0.62,5.264,3.938
			c0.002,21.179-1.801,16.822-17.073,17.069C42.301,65.144,37.221,64.855,32.146,64.736z"/>
		<path fill="#FE7A2E" d="M29.916,47.906c-4.929,3.612-9.81,7.29-14.808,10.799c-2.262,1.591-5.091,2.565-5.039,6.034
			C-4.15,65.705-5.099,65.071-4.94,54.671c4.813-5.739,11.012-8.906,18.381-9.909c3.669-0.762,7.42-0.961,11.115-1.597
			c0.861-0.042,1.7,0.069,2.528,0.305C28.667,44.538,31.349,44.914,29.916,47.906z"/>
		<path fill="#E6D3C2" d="M-10.32-10.171c26.572-4.072,53.146-3.995,79.723-0.036C42.83-7.341,16.254-7.546-10.32-10.171z"/>
		<path fill="#FDCAA7" d="M29.916,47.906c-0.955-1.189-1.91-2.376-2.867-3.565c-3.455-5.04-3.482-10.048,0.132-15.026
			c6.84,0.037,13.678,0.074,20.519,0.112c-1.101,7.674-7.15,12.292-11.343,18.015C34.833,49.521,32.25,50.375,29.916,47.906z"/>
		<path fill="#FDD4A8" d="M25.35,44.226c-3.686,2.425-8.011,1.487-12.007,2.286C2.123,47.442-0.393,43.864,1.347,29.438
			c6.238-0.041,12.477-0.083,18.713-0.123C17.996,35.643,24.149,39.055,25.35,44.226z"/>
		<path fill="#FE9730" d="M1.347,29.437c2.003,2.258,2.049,5.057,1.969,7.804c-0.207,7.002,2.985,10.183,10.028,9.268
			C6.173,46.821,1.739,53.26-4.938,54.673c-0.66-5.501-1.067-11.048-2.044-16.493C-8.241,31.178-5.722,28.263,1.347,29.437z"/>
		<path fill="#FCE9D1" d="M25.35,44.226c-3.456-4.371-12.969-6.598-5.287-14.913c2.37,0,4.742,0,7.115,0.002
			c-0.042,5.009-0.087,10.018-0.13,15.026C26.482,44.302,25.915,44.265,25.35,44.226z"/>
	</g>
</g>
</svg>
