<?xml version="1.0" encoding="utf-8"?>
<!-- Generator: Adobe Illustrator 16.0.0, SVG Export Plug-In . SVG Version: 6.00 Build 0)  -->
<!DOCTYPE svg PUBLIC "-//W3C//DTD SVG 1.1//EN" "http://www.w3.org/Graphics/SVG/1.1/DTD/svg11.dtd">
<svg version="1.1" id="Layer_1" xmlns="http://www.w3.org/2000/svg" xmlns:xlink="http://www.w3.org/1999/xlink" x="0px" y="0px"
	 width="168.136px" height="166px" viewBox="555.365 300.946 168.136 166" enable-background="new 555.365 300.946 168.136 166"
	 xml:space="preserve">
<g>
	<g>
		<path fill="#5A76CC" d="M577,424c0-3.667,0-7.333,0-11c1.18-5.095,3.055-9.798,7.176-13.329c2.064-1.769,1.93-4.01,1.221-6.416
			c-1.129-3.825-2.561-7.623-2.664-11.651c-0.096-3.572,1.605-4.792,4.652-3.021c13.203,7.679,28,8.404,42.541,9.363
			c15.939,1.052,31.947,0.538,47.811-2.033c7.434-1.205,14.66-2.967,21.529-6.158c4.678-2.173,5.385-1.461,4.945,3.666
			c-1.172,13.697-6.904,25.563-14.51,36.688c-4.484,6.56-9.736,12.62-11.918,20.563c-0.697,2.54-2.742,4.518-4.697,6.353
			c-5.75,4.439-12.467,6.23-19.537,6.614c-6.307,0.345-12.643,0.196-18.963,0.038c-5.941-0.146-11.459-1.937-16.59-4.881
			c-3.238-1.855-6.219-4.202-7.346-7.854c-2.312-7.5-6.883-13.62-11.463-19.744c-3.076-4.115-5.504-8.653-8.422-12.97
			c-4.057,5.015-3.562,12.686,1.076,18.352c2.803,3.422,6.395,5.763,10.52,7.347c1.484,0.57,3.727,0.802,3.598,2.854
			c-0.133,2.09-2.266,2.649-4.039,3.183C590.135,443.491,580.004,436.999,577,424z"/>
		<path fill="#5A76CC" d="M705,369c-3.035,4.896-8.045,6.617-13.154,8.16c-20.582,6.219-41.709,6.168-62.881,5.307
			c-11.336-0.462-22.555-1.899-33.408-5.403c-2.521-0.814-5.057-1.741-7.381-2.994c-2.598-1.401-5.844-3.01-5.027-6.595
			c0.803-3.521,3.955-4.938,7.801-5.65c-1.529,4.919,1.354,6.896,4.869,8.46c9.602,4.271,19.871,5.424,30.172,6.163
			c20.006,1.437,39.953,1.247,59.588-3.538c3.203-0.78,6.297-2.117,9.326-3.455c2.969-1.312,4.633-3.559,3.537-7.289
			c3.314,0.958,5.02,3.305,6.561,5.837C705,368.333,705,368.667,705,369z"/>
		<path fill="#5A76CC" d="M659.946,370.449c-3.656-0.068-6.693-0.073-9.404-1.602c-1.607-0.905-3.506-2.105-1.891-4.235
			c1.209-1.594,2.83-2.653,4.986-0.615c3.48,3.286,7.688,2.42,11.768,1.326c1.605-0.432,3.447-1.068,3.225-3.169
			c-0.205-1.932-2.041-2.575-3.648-2.926c-4.125-0.897-8.266-0.616-12.383,0.239c-5.295,1.104-9.953,3.681-14.666,6.165
			c-6.438,3.396-13.203,4.383-20.307,2.503c-2.477-0.655-4.74-1.771-6.215-3.91c-1.574-2.284-1.793-4.646,0.551-6.695
			c2.607-2.281,11.332-3.208,14.438-1.547c0.916,0.489,1.85,1.06,1.338,2.262c-0.385,0.897-1.33,0.869-2.156,0.636
			c-2.605-0.736-5.242-1.136-7.879-0.364c-1.508,0.44-3.723,0.574-3.449,2.831c0.23,1.903,2.137,2.47,3.809,2.658
			c5.516,0.627,10.588-0.671,15.156-3.835c9.559-6.615,20.102-8.527,31.396-6.364c7.047,1.352,11.137,4.959,10.902,9.152
			c-0.217,3.941-4.404,6.538-11.732,7.239C662.293,370.341,660.795,370.396,659.946,370.449z"/>
	</g>
</g>
</svg>
