<?xml version="1.0" encoding="utf-8"?>
<!-- Generator: Adobe Illustrator 16.0.0, SVG Export Plug-In . SVG Version: 6.00 Build 0)  -->
<!DOCTYPE svg PUBLIC "-//W3C//DTD SVG 1.1//EN" "http://www.w3.org/Graphics/SVG/1.1/DTD/svg11.dtd">
<svg version="1.1" id="Layer_1" xmlns="http://www.w3.org/2000/svg" xmlns:xlink="http://www.w3.org/1999/xlink" x="0px" y="0px"
	 width="246.636px" height="281.113px" viewBox="-30 17.387 246.636 281.113" enable-background="new -30 17.387 246.636 281.113"
	 xml:space="preserve">
<g>
	<g>
		<path fill="#0170BA" d="M0,57c0-1.333,0-2.667,0-4c1.792-1.624,4.022-1.4,6.169-1.4c58.636-0.021,117.272-0.033,175.909,0.007
			c6.148,0.005,6.339,0.295,6.406,6.509c-0.146,18.793-2.127,37.473-3.619,56.188c-1.043,13.092-2.023,26.215-3.594,39.229
			c-2.371,19.643-2.657,39.436-5.154,59.051c-1.154,9.066-1.689,18.206-2.484,27.311c-0.416,4.771-2.393,7.143-6.893,8.326
			c-21.719,5.723-43.141,12.519-64.942,17.942c-0.653,0.163-1.241,0.467-1.798,0.838c-2.666,0-5.334,0-8,0
			c-23.458-4.821-46.051-12.837-69.227-18.692c-4.606-1.162-7.039-3.36-7.52-8.399c-0.476-4.985-0.583-9.944-0.687-14.925
			c-0.076-4.334,0.232-8.65,0.777-11.732c-0.266-1.895-1.102-1.045-0.479-1.284c0.267-0.104,0.383-0.017,0.436,0.242
			c0.222,1.106,0.548,2.229-0.699,2.995c-3.609-3.053-1.517-7.197-2.108-10.828c-0.018-3.708,0.867-7.495-0.999-11.041
			c-1.497-11.301-3.048-22.6-3.008-34.034c-0.178-4.868,1.235-9.878-1.305-14.536c-2.136-10.64-2.17-21.492-3.249-32.238
			C2.521,98.466,0.82,84.417,1.004,70.254c0.06-1.6-0.354-3.333,0.389-4.786C3.052,62.226,2.078,59.555,0,57z"/>
		<path fill="#63B3E0" d="M189,59l-0.396,0.177l-0.436-0.02c0.79-5.304-1.626-6.429-6.686-6.413
			C123.154,52.929,64.825,52.86,6.496,52.868C4.331,52.868,2.165,52.954,0,53c0-0.333,0-0.667,0-1
			c14.294-0.059,28.588-0.162,42.881-0.169c47.213-0.021,94.426-0.009,141.639,0c1.494,0,2.986,0.11,4.479,0.169
			C189,54.333,189,56.667,189,59z"/>
		<path fill="#126CA6" d="M1.907,69.378C0.555,68.23,2.11,65.816,0,65c0-2.667,0-5.333,0-8c4.018,1.621,5.284,4.305,2.842,8.094
			C1.94,66.493,2.169,67.944,1.907,69.378z"/>
		<path fill="#2BA7E0" d="M95,88.96c-0.016-5.326,0.184-10.665-0.12-15.975c-0.221-3.87,0.931-5.156,4.983-5.118
			c21.473,0.199,42.947,0.096,64.42,0.099c6.959,0.001,7.218,0.023,6.671,6.701c-1.442,17.635-2.679,35.287-4.754,52.871
			c-1.124,9.528-1.392,19.153-2.235,28.72c-1.176,13.344-2.582,26.668-3.788,40.01c-0.819,9.068-1.686,18.145-2.122,27.233
			c-0.449,9.317-0.311,9.312-9.211,11.731c-15.82,4.3-31.621,8.684-47.408,13.104c-6.515,1.823-6.477,1.907-6.496-4.818
			c-0.019-5.826-0.075-11.648-0.115-17.475c0.245-0.893,0.819-1.5,1.627-1.911c13.231-3.944,26.594-7.423,39.983-10.792
			c8.726-2.195,9.105-2.089,9.797-11.021c1.485-19.223,3.72-38.385,4.629-57.658c0.195-4.152-1.984-4.232-4.862-4.232
			c-11.651,0-23.306,0.057-34.956-0.041c-2.538-0.021-6.37,0.961-7.07-1.959c-0.851-3.535,3.312-3.961,5.721-4.975
			c13.043-5.485,25.845-11.516,38.834-17.113c3.272-1.41,4.949-3.41,5.354-7c0.652-5.784,1.101-11.554,0.819-17.363
			c-0.258-0.5-0.605-0.902-1.1-1.188c-10.578-0.879-21.15-0.193-31.715-0.358c-7.107-0.111-14.216,0.018-21.322-0.047
			C98.617,90.363,96.538,90.662,95,88.96z"/>
		<path fill="#CDCECF" d="M155.775,90.047c0.045,0.248,0.056,0.497,0.033,0.748c-2.07,2.325-4.888,1.767-7.467,1.779
			c-14.781,0.075-29.564,0.022-44.35,0.04c-7.348,0.009-7.371,0.032-7.379,7.587c-0.02,17.771,0.017,35.546-0.027,53.318
			c-0.006,2.625,0.35,5.354-1.344,7.709c-1.391,1.135-3.07,1.125-4.724,1.157c-16.719,0.337-33.427-0.63-50.146-0.417
			c-1.172,0.016-2.321-0.107-3.284-0.889c-1.546-6.338-0.942-12.909-2.081-19.29c-0.528-2.96,0.77-4.447,3.491-5.61
			c16.64-7.123,33.208-14.412,49.797-21.652c0.578-0.252,1.127-0.568,1.713-1.791c-2.662,0-5.325,0.063-7.984-0.012
			c-11.78-0.332-23.581,0.575-35.345-0.606c10.463-1.443,20.926-0.099,31.113-0.688c-0.312-0.588-1.459,0.098-2.296,0.094
			c-12.436-0.057-24.872-0.037-37.308-0.041c-2.139,0-4.36,0.312-6.062-1.485c-0.331-1.129-0.661-2.258-0.991-3.386
			c-1.757-4.75-3.171-9.531-1.367-14.614c0.838-2.918,3.263-1.726,5.004-1.737c19.752-0.129,39.504-0.148,59.257-0.196
			c0.854-0.721,1.887-0.541,2.872-0.542c18.664-0.009,37.33-0.009,55.996,0C153.881,89.522,154.914,89.343,155.775,90.047z"/>
		<path fill="#CECECF" d="M95.891,225.077c-0.354,0.321-0.709,0.646-1.062,0.966c-15.735-3.661-31.406-7.562-46.919-12.078
			c-2.601-0.882-4.354-2.796-5.958-4.893c-2.226-9.92-2.571-20.034-3.153-30.127c-0.126-2.188,0.908-2.932,2.974-2.898
			c3.992,0.064,7.988-0.085,11.978,0.025c9.83,0.271,7.707-1.83,8.974,8.535c1.339,10.945,0.981,11.268,11.713,13.121
			c6.807,1.178,13.433,3.838,20.54,3.024c0.21,0.224,0.423,0.442,0.641,0.665C97.146,209.288,96.796,217.18,95.891,225.077z"/>
		<path fill="#2AA8DF" d="M94.975,200.755c-0.076-11.938-0.15-23.874-0.227-35.812c0.213-0.191,0.426-0.385,0.637-0.579
			c4.361-1.534,9.041,0.118,13.283-1.019c3.938-1.058,7.439,0.129,11.121,0.436c2.018,0.168,3.922,0.828,4.85,2.945
			c0.242,0.881,0.18,1.744-0.137,2.594c-1.827,3.096-0.893,6.51-1.109,9.787c-0.295,4.466,0.604,8.988-0.625,13.412
			c-0.248,0.426-0.467,0.945-0.916,1.143c-8.625,3.751-17.49,6.686-26.879,7.797C94.995,201.225,94.996,200.989,94.975,200.755z"/>
		<path fill="#106AA7" d="M94.748,164.943c-8.864,0.019-17.729-0.025-26.591,0.1c-2.124,0.03-3.844-0.395-5.181-2.064
			c-0.308-0.707-0.093-1.174,0.643-1.399c10.365-0.063,20.73-0.181,31.096,0.06c1.236,1.021,1.1,2.151,0.262,3.338L94.748,164.943z"
			/>
		<path fill="#9DD7FB" d="M94.881,162.205c-10.639-0.034-21.277-0.068-31.916-0.104c-8.636,0.597-17.27,0.717-25.9-0.084
			c-0.071-0.314-0.063-0.627,0.025-0.938c19.297-0.056,38.594-0.108,57.891-0.164c1.332-1.16,2.958-1.435,4.635-1.459
			c6.614-0.101,13.231-0.199,19.844,0.062c1.817,0.071,4.183-0.228,4.601,2.596c-1.009,0.974-2.305,1.468-3.604,1.293
			c-7.31-0.979-14.603,0.49-21.901,0.052C97.197,163.378,95.982,162.979,94.881,162.205z"/>
		<path fill="#3F93BA" d="M155.775,90.047c-20.582,0.005-41.164,0.011-61.746,0.017c0.322-0.367,0.646-0.735,0.969-1.103
			c18.575,0.012,37.149-0.002,55.728,0.078C152.415,89.046,154.413,88.153,155.775,90.047z"/>
		<path fill="#C3D9E8" d="M32.128,109.997c3.017,1.129,6.159,1.008,9.304,1.001c12.408-0.027,24.817-0.012,37.239,1.12
			c-10.662,0-21.325,0-31.989,0.001c-3.921,0.025-7.84,0.076-11.76,0.066C33.477,112.182,31.771,112.368,32.128,109.997z"/>
		<path fill="#156F9F" d="M29.77,91.997c0.456,4.873,0.911,9.745,1.367,14.616c-0.177,0.525-0.645,1.623-0.803,1.283
			c-2.372-5.096-2.906-10.554-2.248-16.05C28.346,89.663,29.179,91.947,29.77,91.997z"/>
		<path fill="#2A6892" d="M37.065,162.018c8.634,0.028,17.268,0.059,25.901,0.086c0.02,0.291,0.023,0.584,0.01,0.875
			c-7.092,0.016-14.183,0.062-21.274,0.017C40.124,162.982,38.356,163.531,37.065,162.018z"/>
		<path fill="#2E6289" d="M9.85,159.143c-1.362-4.592-0.899-9.373-1.46-14.047c3.011,1.151,1.359,3.711,1.531,5.598
			C10.175,153.482,9.899,156.323,9.85,159.143z"/>
		<path fill="#B2D5EF" d="M41.949,209.072c2.799,0.641,3.954,3.285,5.958,4.893C45.108,213.324,41.245,213.979,41.949,209.072z"/>
		<path fill="#176494" d="M15.944,225.527c-1.625-3.235-1.002-6.713-1.083-10.112c0.122-1.425,0.245-2.851,0.367-4.276
			c0.239,0.006,0.478,0.012,0.716,0.02C15.944,215.945,15.944,220.736,15.944,225.527z"/>
		<path fill="#2F6387" d="M13.826,204.229c-1.193-3.59-0.874-7.312-0.969-10.996C15.191,196.723,13.594,200.557,13.826,204.229z"/>
		<path fill="#FEFEFE" d="M124.062,161.848c-5.142-1.842-10.449-0.486-15.672-0.791c-4.457-0.259-8.938-0.106-13.412-0.14
			c-0.01-21.644,0.066-43.286-0.106-64.928c-0.031-3.878,1-5.121,5.021-5.089c18.64,0.147,37.278-0.036,55.918-0.104
			c1.582,5.191-0.441,10.36-0.106,15.542c0.417,6.428-2.306,9.913-8.576,12.377c-14.479,5.69-28.569,12.372-43.369,18.895
			c2.474,1.697,4.778,1.144,6.882,1.146c12.646,0.025,25.289-0.038,37.935-0.131c2.571-0.02,4.479,0.02,4.146,3.652
			c-1.972,21.668-3.828,43.347-5.539,65.035c-0.276,3.502-1.379,5.097-5.002,5.989c-14.017,3.462-27.921,7.378-41.877,11.078
			c-1.431,0.382-2.938,0.472-4.412,0.695c-1.999-5.63-0.496-11.438-0.873-17.154c-0.142-2.146-0.038-4.312-0.046-6.464
			c9.001-2.883,18.003-5.768,27.005-8.648c1.067-6.007,0.996-12.076,1.047-18.145c0.019-1.936-0.465-4.001,1.023-5.688
			c0.026-0.576,0.055-1.151,0.081-1.729C124.566,165.443,123.301,163.658,124.062,161.848z"/>
		<path fill="#38A3D1" d="M124.062,161.848c1.301,1.784,0.854,3.592,0.064,5.402c-4.011-3.171-8.646-2.729-13.334-2.498
			c-5.266,0.26-10.545,0.163-15.818,0.223c-0.031-0.925-0.063-1.848-0.096-2.771C104.607,162.086,114.335,161.967,124.062,161.848z"
			/>
		<path fill="#38A3D1" d="M124.048,168.979c0.37,7.498-0.624,14.934-1.015,22.396c-0.037,0.711-0.287,1.266-1.057,1.438
			c0.01-6.496-0.021-12.99,0.053-19.485C122.049,171.645,121.271,169.439,124.048,168.979z"/>
	</g>
</g>
</svg>
