<?xml version="1.0" encoding="utf-8"?>
<!-- Generator: Adobe Illustrator 16.0.0, SVG Export Plug-In . SVG Version: 6.00 Build 0)  -->
<!DOCTYPE svg PUBLIC "-//W3C//DTD SVG 1.1//EN" "http://www.w3.org/Graphics/SVG/1.1/DTD/svg11.dtd">
<svg version="1.1" id="Layer_1" xmlns="http://www.w3.org/2000/svg" xmlns:xlink="http://www.w3.org/1999/xlink" x="0px" y="0px"
	 width="192px" height="221px" viewBox="-25.406 11.535 192 221" enable-background="new -25.406 11.535 192 221"
	 xml:space="preserve">
<g>
	<g>
		<path fill="#E34D26" d="M69.09,204c-16.781-6.104-34.207-10.017-51.355-14.854c-3.637-1.024-5.144-2.506-5.454-6.188
			C9.263,147.47,6.133,111.99,3.021,76.507C2.077,65.733,1.181,54.95,0.068,44.193c-0.339-3.272,0.537-4.249,3.935-4.24
			c45.329,0.113,90.658,0.146,135.984-0.023c4.36-0.017,4.393,1.788,4.094,5.049c-2.869,31.331-5.651,62.67-8.451,94.009
			c-1.215,13.595-2.479,27.187-3.582,40.786c-0.646,7.977-0.543,7.928-8.379,10.067c-15.229,4.168-30.442,8.395-45.646,12.652
			c-1.027,0.286-2.434,0.092-2.931,1.508C73.09,204,71.09,204,69.09,204z"/>
		<path fill="#F06529" d="M72.089,68.981c0.001-4.166,0.103-8.336-0.028-12.496c-0.101-3.158,1.122-4.529,4.377-4.518
			c16.997,0.075,33.994,0.059,50.991,0.011c2.726-0.008,3.726,0.619,3.367,3.78c-1.111,9.854-1.68,19.771-2.583,29.653
			c-1.581,17.291-3.671,34.554-4.728,51.859c-0.688,11.247-2.938,22.405-2.338,33.709c0.263,4.878-1.854,7.377-6.325,8.647
			c-13.138,3.732-26.264,7.508-39.335,11.457c-2.901,0.877-3.487,0.022-3.431-2.645c0.112-5.163,0.024-10.331,0.021-15.497
			c0.604-1.062,1.594-1.643,2.664-2.12c8.805-3.046,17.931-4.979,26.834-7.695c5.976-1.824,6.654-2.744,7.084-9.06
			c0.885-13.092,2.083-26.157,3.461-39.207c0.604-5.711,0.18-6.346-5.657-6.385c-11.639-0.076-23.277,0.025-34.923-0.033
			c-6.075,0.263-12.146,0.175-18.215,0.05c-2.021-0.041-4.414,0.309-5.425-2.312c1.581-1.938,3.841-1.624,5.935-1.688
			c3.622-0.111,7.248,0.012,10.871-0.052c5.424-0.096,5.685-0.434,5.855-6.029c0.093-2.921-0.526-5.97,1.279-8.647
			c2.051-1.545,4.455-1.104,6.752-1.157c11.146-0.258,22.305,0.449,33.425-0.399c0.446-0.283,0.869-0.613,1.225-1.013
			c2.276-5.18,2.939-10.557,1.989-16.11c-1.488-1.176-3.22-0.662-4.825-0.669c-10.447-0.044-20.896-0.003-31.343-0.039
			c-2.134-0.008-4.33,0.312-6.348-0.768C72.509,69.405,72.299,69.193,72.089,68.981z"/>
		<path fill="#EAEAEA" d="M48.513,106.038c5.296,1.897,10.769,0.355,16.14,0.805c2.479,0.207,4.978,0.154,7.467,0.221
			c2.556,5.881,2.041,11.825,0.381,17.798c-2.73,1.215-5.546,0.569-8.342,0.361c-9.143-0.05-18.291-0.354-27.421-0.038
			c-4.251,0.146-5.599-0.936-5.89-5.327c-1.01-15.24-2.538-30.45-3.906-45.671c-0.116-1.31-0.506-2.596-0.77-3.894
			c0.368-0.296,0.592-0.746,1.201-0.741c14.84,0.109,29.685-0.413,44.52,0.278c2.449,2.426,1.687,5.562,1.739,8.455
			c0.157,8.117,0.096,8.125,8.387,8.139c8.604,0.014,17.205-0.049,25.809,0.037c2.264,0.021,4.697-0.322,6.48,1.683
			c-0.091,0.255-0.167,0.514-0.229,0.774c-4.233,1.189-8.561,0.476-12.836,0.531c-9.48,0.123-18.968,0.032-28.441,0.042
			c-6.199,1.885-12.562,0.744-18.854,0.938c-5.163,0.16-5.64,0.579-5.225,5.834C48.979,99.525,50.38,102.819,48.513,106.038z"/>
		<path fill="#FDFDFD" d="M72.107,124.856c0.004-5.934,0.008-11.862,0.012-17.795c12.962-0.075,25.926-0.057,38.884-0.288
			c3.581-0.062,3.115,2.063,2.923,4.188c-1.151,12.728-2.295,25.455-3.551,38.174c-1.309,13.244-1.346,13.302-14.178,16.966
			c-7.335,2.094-14.736,3.944-22.108,5.907c-1.624,0.979-2.872,0.002-2.954-1.315c-0.348-5.611-2.019-11.349,0.979-16.771
			c0.33-0.301,0.66-0.604,0.99-0.905c3.682-2.91,8.33-3.177,12.579-4.45c3.736-1.122,5.589-3.28,5.834-7.071
			c0.247-3.818,0.033-7.66,0.689-11.461c0.474-2.742-1.251-3.49-3.55-3.558c-3.662-0.104-7.327,0.025-10.989-0.073
			C75.707,126.345,73.607,126.635,72.107,124.856z"/>
		<path fill="#EAEAEA" d="M72.111,153.92c-0.771,4.926,0.54,9.892-0.341,14.849c-0.226,1.271,0.231,3.104,2.315,3.239
			c-0.67,0.313-1.339,0.627-2.008,0.938c-11.622-3.245-23.242-6.503-34.867-9.733c-1.816-0.506-2.753-1.537-2.896-3.508
			c-0.552-7.621-1.17-15.236-1.86-22.847c-0.191-2.114,0.371-3.19,2.656-2.946c0.822,0.088,1.662,0.004,2.493,0.018
			c3.981,0.062,8.649-1.146,11.771,0.527c3.619,1.941,1.577,7.256,2.264,11.047c0.443,2.449,1.458,3.244,3.676,3.789
			C60.951,150.68,66.518,152.358,72.111,153.92z"/>
		<path fill="#F06529" d="M72.107,124.856c6.146,0.062,12.295,0.229,18.438,0.142c2.843-0.039,3.77,0.748,3.353,3.762
			c-0.772,5.584-1.094,11.232-1.577,16.857c-0.137,1.574-0.413,2.979-2.317,3.316c-5.713,1.024-11.049,3.61-16.896,4.079
			c-2.153-3.51-0.566-7.359-0.979-11.03c-0.2-1.787-0.021-3.613-0.038-5.425c-0.027-2.957,0.546-6.1-0.265-8.826
			c-1.127-3.796-5.493-0.317-7.667-2.512C66.806,125.1,69.457,124.979,72.107,124.856z"/>
		<path fill="#DD4208" d="M72.146,70.164c-15.324,0.043-30.648,0.086-45.976,0.129c1.218-2.103,3.271-1.25,4.961-1.26
			c13.652-0.074,27.305-0.048,40.956-0.052c0-0.001,0.008,0.023,0.008,0.023c0.126,0.188,0.252,0.375,0.377,0.562
			C72.363,69.768,72.255,69.966,72.146,70.164z"/>
		<path fill="#FEFDFD" d="M114.307,88.143c-12.407-0.063-24.814-0.269-37.221-0.11c-3.823,0.048-5.407-0.906-5.072-4.969
			c0.354-4.272,0.112-8.598,0.133-12.897l-0.104-0.312c15.007-0.444,30.014-0.784,45.016,0.165
			c0.646,5.674-1.006,11.204-1.036,16.839C116.017,87.914,115.211,88.154,114.307,88.143z"/>
		<path fill="#E34D26" d="M48.513,106.038c-0.533-4.938-1.104-9.872-1.575-14.815c-0.146-1.531-0.121-2.888,2.271-2.796
			c7.622,0.293,15.253,0.352,22.881,0.499c0.347,0.238,0.464,0.479,0.353,0.721c-0.11,0.244-0.226,0.366-0.34,0.366
			c-0.004,3.959-0.188,7.93,0.042,11.874c0.193,3.349-1.188,4.252-4.331,4.168C61.384,105.879,54.947,106.024,48.513,106.038z"/>
		<path fill="#EA5B07" d="M117.059,70.02c-15.006-0.055-30.011-0.108-45.017-0.165c0.021-0.281,0.038-0.563,0.054-0.848
			c14.649-0.004,29.3-0.008,43.948-0.003c0.312,0.001,0.696,0.024,0.908,0.203C117.107,69.337,117.031,69.74,117.059,70.02z"/>
		<path fill="#F05A0F" d="M72.102,90.012c-0.004-0.361-0.009-0.725-0.013-1.086c13.995-0.003,27.991-0.006,41.986-0.009
			c-1.406,1.764-3.382,1.039-5.111,1.048C96.678,90.03,84.389,90.007,72.102,90.012z"/>
	</g>
</g>
</svg>
