<?xml version="1.0" encoding="utf-8"?>
<!-- Generator: Adobe Illustrator 16.0.0, SVG Export Plug-In . SVG Version: 6.00 Build 0)  -->
<!DOCTYPE svg PUBLIC "-//W3C//DTD SVG 1.1//EN" "http://www.w3.org/Graphics/SVG/1.1/DTD/svg11.dtd">
<svg version="1.1" id="Layer_1" xmlns="http://www.w3.org/2000/svg" xmlns:xlink="http://www.w3.org/1999/xlink" x="0px" y="0px"
	 width="229px" height="229px" viewBox="0 0 229 229" enable-background="new 0 0 229 229" xml:space="preserve">
<g>
	<path fill="#EFDA4F" d="M47.661,190.072c0-45.964,0-91.931,0-137.894c45.608,0,91.217,0,136.825,0c0.423,0,0.846,0.01,1.269,0.017
		c0.01,0.422,0.028,0.844,0.028,1.266c0.002,45.112,0.002,90.224,0,135.336c0,0.422-0.013,0.845-0.02,1.267
		c-0.538,0.004-1.076,0.009-1.614,0.009C138.652,190.072,93.157,190.072,47.661,190.072z M152.666,179.332
		c4.229,0.012,7.699-0.504,11.062-1.74c14.561-5.363,13.647-23.645,5.413-30.185c-2.671-2.122-5.536-3.871-8.615-5.288
		c-2.79-1.283-5.625-2.472-8.419-3.747c-1.435-0.653-2.825-1.408-3.942-2.56c-1.595-1.645-1.947-3.629-1.381-5.768
		c0.554-2.095,2.068-3.263,4.107-3.782c0.858-0.22,1.741-0.256,2.632-0.203c3.279,0.193,5.452,2.032,7.071,4.704
		c0.293,0.486,0.475,0.895,1.191,0.419c2.882-1.91,5.8-3.767,8.722-5.612c0.549-0.346,0.616-0.626,0.28-1.185
		c-2.979-4.923-7.144-8.178-12.888-9.214c-2.583-0.466-5.182-0.544-7.804-0.305c-11.495,1.046-18.402,10.551-15.855,21.817
		c1.24,5.491,4.738,9.166,9.412,11.938c2.753,1.633,5.715,2.815,8.636,4.091c2.32,1.015,4.68,1.959,6.786,3.402
		c2.105,1.445,3.214,3.41,2.897,5.991c-0.314,2.568-1.98,4.075-4.279,4.964c-2.362,0.913-4.811,0.938-7.268,0.526
		c-4.247-0.712-7.168-3.306-9.443-6.776c-0.34-0.518-0.557-0.904-1.316-0.448c-2.996,1.801-6.028,3.539-9.07,5.261
		c-0.633,0.356-0.661,0.663-0.324,1.256c1.596,2.811,3.628,5.237,6.204,7.194C141.457,177.868,147.185,179.276,152.666,179.332z
		 M122.818,139.056c0-7.453-0.023-14.905,0.025-22.357c0.008-1.05-0.306-1.278-1.296-1.262c-3.417,0.06-6.838,0.07-10.256-0.004
		c-1.138-0.025-1.479,0.236-1.477,1.439c0.049,13.944,0.036,27.89,0.023,41.835c-0.001,1.15-0.034,2.312-0.191,3.448
		c-0.297,2.137-1.043,4.087-3.224,4.968c-2.604,1.052-6.691,1.182-9.329-2.113c-0.795-0.994-1.511-2.04-2.099-3.163
		c-0.336-0.646-0.636-0.688-1.237-0.316c-2.972,1.837-5.959,3.655-8.972,5.425c-0.709,0.417-0.731,0.771-0.371,1.442
		c3,5.576,7.521,9.121,13.755,10.417c3.312,0.687,6.646,0.713,9.967,0.137c6.28-1.091,10.934-4.312,13.254-10.441
		c1.074-2.839,1.425-5.807,1.425-8.824C122.816,152.809,122.816,145.932,122.818,139.056z"/>
	<path fill-rule="evenodd" clip-rule="evenodd" fill="#F7EDA9" d="M185.755,52.195c-0.423-0.007-0.846-0.017-1.269-0.017
		c-45.608,0-91.217,0-136.825,0c0.049-0.071-0.117-0.241,0.114-0.233c0.308,0.01,0.615,0.003,0.923,0.003
		c45.426,0,90.854-0.002,136.279,0.014c0.337,0,0.782-0.267,1.038,0.217C185.928,52.183,185.841,52.189,185.755,52.195z"/>
	<path fill-rule="evenodd" clip-rule="evenodd" fill="#F5EA9B" d="M185.755,52.195c0.086-0.006,0.173-0.013,0.261-0.017
		c0,45.694,0,91.391-0.015,137.087c0,0.337,0.266,0.782-0.216,1.037c-0.008-0.08-0.015-0.16-0.021-0.239
		c0.007-0.422,0.02-0.845,0.02-1.267c0.002-45.112,0.002-90.224,0-135.336C185.783,53.039,185.765,52.617,185.755,52.195z"/>
	<path fill-rule="evenodd" clip-rule="evenodd" fill="#F1DE64" d="M185.764,190.063c0.007,0.079,0.014,0.159,0.021,0.239
		c-45.695,0-91.393,0.002-137.088-0.015c-0.338,0-0.782,0.267-1.036-0.216c45.496,0,90.991,0,136.488,0
		C184.688,190.072,185.226,190.067,185.764,190.063z"/>
	<path fill-rule="evenodd" clip-rule="evenodd" fill="#333430" d="M152.666,179.332c-5.481-0.056-11.209-1.464-16.191-5.248
		c-2.576-1.957-4.608-4.384-6.204-7.194c-0.337-0.593-0.309-0.899,0.324-1.256c3.042-1.722,6.074-3.46,9.07-5.261
		c0.76-0.456,0.977-0.069,1.316,0.448c2.275,3.471,5.196,6.064,9.443,6.776c2.457,0.411,4.905,0.387,7.268-0.526
		c2.299-0.889,3.965-2.396,4.279-4.964c0.316-2.581-0.792-4.546-2.897-5.991c-2.106-1.443-4.466-2.388-6.786-3.402
		c-2.921-1.275-5.883-2.458-8.636-4.091c-4.674-2.772-8.172-6.447-9.412-11.938c-2.547-11.267,4.36-20.771,15.855-21.817
		c2.622-0.239,5.221-0.161,7.804,0.305c5.744,1.036,9.909,4.291,12.888,9.214c0.336,0.559,0.269,0.839-0.28,1.185
		c-2.922,1.846-5.84,3.702-8.722,5.612c-0.717,0.476-0.898,0.067-1.191-0.419c-1.619-2.672-3.792-4.511-7.071-4.704
		c-0.891-0.053-1.773-0.017-2.632,0.203c-2.039,0.52-3.554,1.688-4.107,3.782c-0.566,2.139-0.214,4.123,1.381,5.768
		c1.117,1.151,2.508,1.906,3.942,2.56c2.794,1.275,5.629,2.464,8.419,3.747c3.079,1.417,5.944,3.166,8.615,5.288
		c8.234,6.54,9.147,24.821-5.413,30.185C160.365,178.828,156.895,179.344,152.666,179.332z"/>
	<path fill-rule="evenodd" clip-rule="evenodd" fill="#333430" d="M122.816,139.056c0,6.876,0,13.753,0,20.63
		c0,3.018-0.351,5.985-1.425,8.824c-2.32,6.13-6.974,9.351-13.254,10.441c-3.32,0.576-6.655,0.55-9.967-0.137
		c-6.233-1.296-10.755-4.841-13.755-10.417c-0.36-0.672-0.338-1.025,0.371-1.442c3.013-1.77,6-3.588,8.972-5.425
		c0.602-0.372,0.901-0.329,1.237,0.316c0.588,1.123,1.304,2.169,2.099,3.163c2.638,3.295,6.726,3.165,9.329,2.113
		c2.181-0.881,2.927-2.831,3.224-4.968c0.157-1.137,0.19-2.298,0.191-3.448c0.013-13.945,0.025-27.891-0.023-41.835
		c-0.003-1.203,0.339-1.465,1.477-1.439c3.418,0.074,6.839,0.063,10.256,0.004c0.99-0.017,1.304,0.212,1.296,1.262
		C122.795,124.15,122.818,131.603,122.816,139.056z"/>
</g>
</svg>
