<?xml version="1.0" encoding="utf-8"?>
<!-- Generator: Adobe Illustrator 16.0.0, SVG Export Plug-In . SVG Version: 6.00 Build 0)  -->
<!DOCTYPE svg PUBLIC "-//W3C//DTD SVG 1.1//EN" "http://www.w3.org/Graphics/SVG/1.1/DTD/svg11.dtd">
<svg version="1.1" id="Layer_1" xmlns="http://www.w3.org/2000/svg" xmlns:xlink="http://www.w3.org/1999/xlink" x="0px" y="0px"
	 width="177px" height="219px" viewBox="-22 -10.207 177 219" enable-background="new -22 -10.207 177 219" xml:space="preserve">
<g>
	<g>
		<path fill="#2D699E" d="M29.076,158.858c-8.95-0.557-17.964-0.723-26.417-4.318c4.044-4.113,9.066-3.293,14.028-2.783
			c27.731,4.725,55.47,3.834,83.202,0.029c3.774-0.519,7.491-1.326,11.069-2.716c2.31-0.896,4.019-2.207,4.069-4.96
			c1.787,0.039,1.927,1.6,2.656,2.551c-3.541,5.979-9.965,6.946-15.759,8.391c-10.879,2.711-22.054,3.516-33.248,4.453
			C55.386,160.616,42.27,159.206,29.076,158.858z"/>
		<path fill="#42A5DC" d="M37.134,139.875c-2.938-0.549-5.042-2.351-5.031-5.244c0.008-2.346,2.454-3.336,4.474-4.197
			c0.449-0.191,1.16-0.559,1.384-0.38c11.198,8.886,23.866,4.381,35.911,3.448c4.837-0.373,8.729,0.299,12.664,2.539
			c0.498,0.283,0.743,1.014,1.104,1.535c-4.822,3.635-10.701,4.293-16.306,5.008C59.821,144.047,48.28,143.967,37.134,139.875z"/>
		<path fill="#2D5D8F" d="M27.085,164.081c32.87,1.367,65.731,2.819,96.942-10.396c0.369,2.432-0.131,3.521-3.452,5.65
			c-4.554,2.92-9.665,4.465-14.905,5.479c-23.73,4.588-47.591,4.773-71.51,1.746C31.764,166.254,29.275,165.954,27.085,164.081z"/>
		<path fill="#5EA0CF" d="M15.069,102.846c-3.109-2.301-0.88-3.754,1.017-4.691c6.814-3.363,13.888-5.98,21.617-6.242
			c-0.615,2.951-3.471,2.442-5.348,3.418c-1.899,0.986-4.618,0.812-5.05,3.76c2.454,2.929,5.983,2.513,9.15,2.609
			c17.638,0.547,35.244,0.203,52.709-2.746c1.462-0.246,2.984-0.129,4.479-0.182c-0.145,3.135-2.748,3.459-4.877,3.938
			c-16.707,3.754-33.653,4.619-50.709,3.861c-4.613-0.203-9.215-0.648-13.789-1.295C21.132,104.732,18.09,103.827,15.069,102.846z"
			/>
		<path fill="#53B6EB" d="M68.684,117.715c5.015-0.854,10.008-1.84,15.045-2.514c2.896-0.388,4.629,2.096,6.778,3.485
			c-2.786,3.812-7.422,2.591-11.094,4c-1.157,0.442-2.573,0.353-3.834,0.739c-13.486,1.869-26.945,2.037-40.363-0.574
			c-0.603-0.188-1.192-0.464-1.809-0.548c-3.256-0.445-6.093-2.628-6.209-5.31c-0.139-3.197,3.423-4.365,6.379-5.121
			c1.484,0.989,0.453,3.224,2.052,4.153c2.609,0.562,5.219,1.124,7.827,1.688C51.867,118.704,60.276,118.706,68.684,117.715z"/>
		<path fill="#EF6A56" d="M73.727,64.131c2.203,4.633,6.28,8.141,7.881,13.137c1.235,8.004-4.006,16.42-10.981,17.631
			c3.918-6.012,3.041-11.264-1.59-16.755c-4.406-5.225-8.005-11.168-5.591-18.658c0.767,0.403,1.019,1.252,1.572,1.823
			c2.418,2.493,4.043,2.132,5.234-1.108c0.917-2.493,0.918-2.493,2.777-2.967C73.393,59.525,72.387,61.946,73.727,64.131z"/>
		<path fill="#EF6A56" d="M46.592,47.802c3.512-4.71,8.409-7.875,12.922-11.441c5.323-4.207,10.386-8.673,15.015-13.629
			c2.516-0.944,4.4-0.418,5.357,2.286c0.137,1.729-0.898,2.699-2.246,3.466c-5.869,8.467-13.705,14.808-22.145,20.515
			C52.457,49.123,49.319,49.988,46.592,47.802z"/>
		<path fill="#EF6A56" d="M46.592,47.802c3.375-0.022,6.749-0.046,10.123-0.069c0.431,2.005-1.383,2.908-2.281,4.099
			c-2.935,3.886-5.212,7.943-5.404,12.932c-0.035,0.908-0.492,1.531-1.317,1.907c-2.271,0.762-4.431,0.606-6.44-0.772
			C38.598,58.558,41.389,52.826,46.592,47.802z"/>
		<path fill="#377AAE" d="M16.687,151.754c-4.677,0.928-9.353,1.854-14.027,2.783c-3.38-1.664-3.449-4.146-0.715-6.086
			c7.145-5.074,15.135-7.443,24.206-5.578c-3.019,0.963-6.066,1.844-9.043,2.92c-1.816,0.656-4.482,1.054-4.602,3.197
			C12.388,151.114,15.526,150.377,16.687,151.754z"/>
		<path fill="#5E9CCA" d="M117.209,104.738c0.609-7.497-2.564-10.952-10.225-11.192c-1.188-0.037-3.018,0.832-3.236-1.123
			c-0.207-1.824,1.754-1.689,2.904-2.028c6.818-2.011,13.781,0.929,17.709,7.38c-0.479,3.139,2.674,6.969-1.785,9.352
			C120.768,106.375,118.652,106.312,117.209,104.738z"/>
		<path fill="#EF6A56" d="M41.272,65.897c2.409-0.04,4.819-0.079,7.229-0.119c1.709,1.392,1.185,3.693,2.193,5.37
			c3.189,6.701,8.123,12.363,11.238,19.187C53.71,83.297,45.298,76.472,41.272,65.897z"/>
		<path fill="#EF6A56" d="M72.417,56.766c-0.806,0.748-0.927,1.735-0.844,2.732c0.233,2.782-0.32,5.172-3.683,5.094
			c-3.072-0.071-4.808-1.799-4.445-5.106c0.563-5.036,3.781-8.406,7.281-11.6c2.277-1.153,4.612-1.822,7.141-0.841
			c1.867,1.204,0.656,2.319-0.276,3.14C75.443,52.071,74.172,54.601,72.417,56.766z"/>
		<path fill="#EA5C44" d="M79.887,25.018c-1.552-1.309-3.375-1.986-5.355-2.286c5.439-9.154,5.586-9.78,5.193-22.732
			c2.764,1.359,3.476,3.711,3.896,6.253c0.775,4.097,0.843,8.14-0.906,12.047C82.913,21.018,81.453,23.041,79.887,25.018z"/>
		<path fill="#57A9DC" d="M117.209,104.738c1.854,0.568,4.623-1.229,5.408,2.095c0.775,3.482-2.141,4.901-3.967,6.824
			c-4.338,4.566-10.141,6.59-15.877,8.654c-0.979,0.354-1.949,0.305-2.602-0.717c4.334-3.176,9.168-5.688,12.791-9.812
			C114.816,109.678,116.188,107.323,117.209,104.738z"/>
		<path fill="#E86553" d="M78.609,47.687c-2.627,0.066-5.256,0.133-7.883,0.199c5.924-5.781,13.264-9.064,20.896-11.828
			c0.967,0.334,1.53,0.896,1.134,2.001c-0.947,0.947-2.092,1.658-3.091,2.547C85.691,42.519,83.02,46.462,78.609,47.687z"/>
		<path fill="#CA5A4C" d="M92.502,37.625c-0.293-0.522-0.587-1.044-0.881-1.566c2.289-0.833,4.469-2.031,7.341-2.185
			c-0.149,1.615-0.938,2.32-2.308,2.558C95.002,35.897,94.337,38.795,92.502,37.625z"/>
	</g>
</g>
</svg>
