<?xml version="1.0" encoding="utf-8"?>
<!-- Generator: Adobe Illustrator 16.0.0, SVG Export Plug-In . SVG Version: 6.00 Build 0)  -->
<!DOCTYPE svg PUBLIC "-//W3C//DTD SVG 1.1//EN" "http://www.w3.org/Graphics/SVG/1.1/DTD/svg11.dtd">
<svg version="1.1" id="Layer_1" xmlns="http://www.w3.org/2000/svg" xmlns:xlink="http://www.w3.org/1999/xlink" x="0px" y="0px"
	 width="190.852px" height="218px" viewBox="-27.864 -30.827 190.852 218" enable-background="new -27.864 -30.827 190.852 218"
	 xml:space="preserve">
<path opacity="0.1" fill="#68CEFE" enable-background="new    " d="M135.402,23.241c0.382-0.896,0.598-1.81,0.598-2.741
	C136,9.005,106.131,0,68,0S0,9.005,0,20.5c0,0.932,0.216,1.845,0.597,2.741l26.639,119.76c0.149,6.929,17.998,12.345,40.764,12.345
	c22.766,0,40.613-5.416,40.764-12.345L135.402,23.241z"/>
<path opacity="0.5" fill="#68CEFE" enable-background="new    " d="M109.277,79.02c0-7.024-18.133-12.526-41.282-12.526
	c-23.149,0-41.283,5.502-41.283,12.526c0,0.026,0.006,0.054,0.007,0.08l-0.05,0.011l0.079,0.358
	c0.035,0.315,0.101,0.627,0.208,0.936l11.709,52.637l0.115-0.025c0.111,4.989,12.901,8.887,29.214,8.887
	c16.312,0,29.104-3.897,29.215-8.887l0.115,0.025l11.709-52.638c0.107-0.308,0.172-0.619,0.208-0.935l0.026-0.119l-0.017-0.004
	C109.262,79.237,109.277,79.129,109.277,79.02z"/>
</svg>
