<?xml version="1.0" encoding="utf-8"?>
<!-- Generator: Adobe Illustrator 16.0.0, SVG Export Plug-In . SVG Version: 6.00 Build 0)  -->
<!DOCTYPE svg PUBLIC "-//W3C//DTD SVG 1.1//EN" "http://www.w3.org/Graphics/SVG/1.1/DTD/svg11.dtd">
<svg version="1.1" id="Layer_1" xmlns="http://www.w3.org/2000/svg" xmlns:xlink="http://www.w3.org/1999/xlink" x="0px" y="0px"
	 width="187.078px" height="188.912px" viewBox="122.5 57.147 187.078 188.912"
	 enable-background="new 122.5 57.147 187.078 188.912" xml:space="preserve">
<g>
	<g>
		<path fill="#E7F0EE" d="M292,180c-2.161,3.728-1.213,8.487-3.991,12.01c-1.802-2.561-2.836-5.5-4.067-8.346
			c0.729-7.172,0.605-14.272-1.805-21.178c-0.203-2.518-2.636-4.688-1.191-7.466c4.767,0.133,7.361,2.828,8.664,7.188
			c0.686,2.297,1.587,4.528,2.391,6.789C292,172.667,292,176.333,292,180z"/>
		<path fill="#ECF1EF" d="M143.986,187.004C143.324,186.002,142.662,185,142,184c0-6.334,0-12.668,0-19
			c1.428-1.086,1.714-2.738,2.229-4.311c1.5-4.584,4.304-7.393,9.535-6.71c1.045,1.481,0.217,2.86-0.354,4.157
			c-3.027,6.869-4.249,14.074-4.165,21.539C148.225,182.641,147.758,186.01,143.986,187.004z"/>
		<path fill="#FDF327" d="M179.08,111.012c6.195-13.299,16.869-20.926,31.096-22.928c16.727-2.354,30.397,3.629,40.482,17.315
			c1.262,1.713,2.089,3.744,3.117,5.628c-19.283,13.307-39.748,16.562-61.582,6.98C187.667,116.023,183.135,113.934,179.08,111.012z
			"/>
		<path fill="#DA0270" d="M148.068,179.833c-0.385-9.121,1.41-17.76,5.693-25.853c0.805-0.983,1.61-1.967,2.415-2.95
			c2.292-1.492,4.449-0.023,6.646,0.323c6.621,1.046,12.921,4.054,19.846,3.226c0.852-0.09,1.76,0.021,2.314,0.616
			c5.084,5.468,11.416,9.229,17.685,13.104c0.257,0.49,0.429,1.005,0.537,1.547c0.321,5.376,0.321,10.76,0.548,16.139
			c-1.363,3.256-4.334,3.133-7.141,3.438c-10.567,1.15-21.211,1.586-31.682,3.68c-3.623,0.725-7.084,1.747-10.459,3.174
			c-3.445-1.645-6.838-8.512-6.431-13.145C148.139,182.025,148.861,180.943,148.068,179.833z"/>
		<path fill="#FDF20F" d="M179.08,111.012c1.876-0.141,3.428,0.424,5.105,1.427c18.432,11.019,37.582,12.918,57.488,4.194
			c4.074-1.784,7.485-4.998,12.102-5.604c3.549,7.646,5.39,15.563,3.89,24.025c-2.008,1.547-4.187,0.585-6.185,0.188
			c-11.513-2.295-21.877,0.404-31.446,6.868c-0.822,0.556-1.667,1.063-2.634,1.337c-0.523,0.12-1.049,0.113-1.572-0.003
			c-9.663-6.657-20.271-9.458-32.012-8.176c-2.787,0.306-5.399,1.758-8.293,1.179c-0.205-0.158-0.409-0.318-0.613-0.48
			C174.406,127.333,174.404,118.782,179.08,111.012z"/>
		<path fill="#00A93A" d="M217.034,142.967c11.073-9.506,23.774-11.75,37.719-8.475c0.961,0.228,1.94,0.377,2.911,0.562
			c0.148,0.251,0.268,0.515,0.357,0.792c0.406,8.361-3.879,14.82-8.729,20.955c-2.146,2.718-4.684,5.158-7.544,7.193
			c-3.485,1.771-6.341,5.156-10.871,4.276c-1.507-1.644-1.847-3.81-2.519-5.81c-1.857-5.525-4.68-10.433-8.752-14.647
			C218.337,146.499,216.305,145.415,217.034,142.967z"/>
		<path fill="#00B0EA" d="M241.034,163.225c8.989-7.062,14.474-16.299,16.989-27.379c10.502,2.97,17.216,10.472,22.922,19.176
			c0.766,2.305,1.531,4.609,2.299,6.914c-1.057,1.285-2.587,1.4-4.061,1.6c-10.539,1.412-21.078,2.864-31.675,3.709
			C244.797,167.459,240.668,168.577,241.034,163.225z"/>
		<path fill="#E51D7B" d="M183.016,154.977c-0.766,1.673-1.863,1.797-3.642,1.357c-7.701-1.896-15.459-3.558-23.197-5.305
			c4.438-7.271,11.372-11.432,18.732-15.064c0.165,0.09,0.317,0.193,0.461,0.313c2.294,2.351,1.95,5.771,3.446,8.445
			C179.613,148.388,183.486,150.797,183.016,154.977z"/>
		<path fill="#D4DBD5" d="M269.014,215.027c-15.494,9.97-31.546,10.261-47.613,1.923c-3.963-2.058-6.582-1.373-10.03,0.329
			c-16.71,8.252-32.905,7.415-48.392-3.255c-1.318-2.186-1.89-4.499-1.197-7.025c1.546-1.121,2.85-0.252,4.083,0.586
			c16.903,11.473,33.53,10.602,49.93-1.082c0.782-0.262,1.565-0.266,2.353-0.023c5.168,3.376,10.432,6.463,16.599,7.826
			c10.596,2.342,20.457,0.568,29.851-4.637c1.781-0.987,3.444-2.846,5.854-1.416C271.707,210.881,271.559,213.209,269.014,215.027z"
			/>
		<path fill="#E1E7E3" d="M162.139,206.674c0.957,2.373,0.944,4.855,0.84,7.351c-9.979-6.442-16.494-15.319-18.992-27.021
			c1.744-2.172,3.293-4.455,4.082-7.172c1.652,5.512,2.271,11.399,5.923,16.181C157.389,199.045,160.282,202.463,162.139,206.674z"
			/>
		<path fill="#DFE7E3" d="M269.014,215.027c1.354-2.315,0.996-4.833,0.86-7.323c1.621-4.768,5.744-7.744,8.399-11.772
			c1.94-2.521,2.99-5.455,4.064-8.397c0.518-1.418,0.323-3.459,2.596-3.684c1.633,2.49,3.577,4.865,3.073,8.16
			C284.325,201.868,278.76,210.172,269.014,215.027z"/>
		<path fill="#00A7DD" d="M284.936,183.85c-1.976,4.275-2.389,9.277-5.951,12.816c-10.697-4.648-22.15-5.304-33.533-6.18
			c-3.479-0.268-6.934-0.556-10.354-1.212c-2.369-0.455-4.506-1.263-5.195-3.952c-0.236-5.295,1.145-10.555,0.361-15.867
			c0.15-0.576,0.483-1.019,0.991-1.328c3.586-0.982,6.573-3.16,9.778-4.902c1.626,4.753,5.439,2.66,8.371,2.422
			c11.312-0.92,22.473-3.247,33.839-3.711C286.33,169.045,285.828,176.433,284.936,183.85z"/>
		<path fill="#CD0068" d="M162.139,206.674c-3.176-3.202-6.525-6.272-8.147-10.661c2.049-3.136,5.472-3.372,8.651-3.987
			c11.931-2.306,24.006-3.367,36.123-4.043c1.711-0.095,3.215-0.664,4.286-2.094c1.269-0.143,1.815,0.783,2.128,1.695
			c2.238,6.551,6.072,12.099,10.629,17.213c0.56,0.627,0.871,1.4,0.772,2.281c-14.036,12.353-35.419,13.256-50.774,2.15
			C164.6,208.356,163.361,207.525,162.139,206.674z"/>
		<path fill="#2C2E76" d="M216.581,207.079c-6.299-5.92-10.647-13.086-13.529-21.189c-1.436-5.582-1.352-11.217-0.586-16.873
			c1.442-1.293,3.128-0.84,4.691-0.49c6.372,1.418,12.706,1.359,19.06-0.102c1.596-0.366,3.258-0.651,4.721,0.513
			c2.045,5.327,0.24,10.66,0.028,15.991c-0.271,7.89-4.514,13.906-9.323,19.63c-1.055,1.255-2.242,2.485-4.103,2.515l-0.479,0.08
			L216.581,207.079z"/>
		<path fill="#373819" d="M230.938,168.937c-9.483,2.66-18.975,2.755-28.473,0.079c-0.164-0.27-0.294-0.555-0.391-0.854
			c-0.93-6.781,2.918-11.914,5.966-17.326c2.608-2.711,4.028-6.668,8.137-7.821c0.284-0.039,0.57-0.056,0.857-0.048
			c7.021,7.097,12.454,15.093,14.22,25.16C231.161,168.401,231.055,168.672,230.938,168.937z"/>
		<path fill="#E52A04" d="M209.042,151.114c-3.187,5.329-5.422,11.047-6.969,17.047c-8.153-1.791-13.267-7.979-19.06-13.185
			c-1.51-3.401-4.402-6.104-5.025-9.954c0.561-2.938,2.926-2.346,4.621-1.949c7.55,1.762,15.173,3.033,22.832,4.182
			C207.245,147.524,210.2,147.659,209.042,151.114z"/>
		<path fill="#E73C0A" d="M209.042,151.114c-0.463-3.115-3.462-2.682-5.114-2.812c-7.445-0.59-14.664-2.086-21.822-4.082
			c-1.402-0.391-2.977-0.637-4.116,0.803c-1.86-2.617-2.243-5.68-2.621-8.74c14.825-5.158,28.509-3.408,40.808,6.733
			C213.799,145.715,211.421,148.415,209.042,151.114z"/>
		<path fill="#009FCF" d="M217.54,207.073c6.521-6.143,10.669-13.722,13.426-22.146c2.866,5.13,8.191,3.654,12.345,3.875
			c10.45,0.554,20.685,2.199,30.893,4.236c2.104,0.418,4.32,0.93,4.781,3.627c-2.686,3.969-5.361,7.945-9.109,11.037
			c-15.65,10.963-31.805,12.254-48.486,2.447C219.986,209.327,218.816,208.107,217.54,207.073z"/>
	</g>
</g>
</svg>
