<?xml version="1.0" encoding="utf-8"?>
<!-- Generator: Adobe Illustrator 16.0.0, SVG Export Plug-In . SVG Version: 6.00 Build 0)  -->
<!DOCTYPE svg PUBLIC "-//W3C//DTD SVG 1.1//EN" "http://www.w3.org/Graphics/SVG/1.1/DTD/svg11.dtd">
<svg version="1.1" id="Layer_1" xmlns="http://www.w3.org/2000/svg" xmlns:xlink="http://www.w3.org/1999/xlink" x="0px" y="0px"
	 width="322px" height="417.12px" viewBox="-52.48 -64.097 322 417.12" enable-background="new -52.48 -64.097 322 417.12"
	 xml:space="preserve">
<g>
	<g>
		<g>
			
				<linearGradient id="SVGID_1_" gradientUnits="userSpaceOnUse" x1="357.5195" y1="-369.9995" x2="357.5195" y2="-84.959" gradientTransform="matrix(1 0 0 -1 -247.5 -84.96)">
				<stop  offset="0" style="stop-color:#FF832A"/>
				<stop  offset="1" style="stop-color:#D42300"/>
			</linearGradient>
			<path fill="url(#SVGID_1_)" d="M146.904,281.971c13.937-8.942,24.648-20.434,28.021-37.203
				c4.393-21.854-3.646-39.842-18.203-55.566c-9.481-10.244-21.127-17.742-32.604-25.449c-8.146-5.471-16.565-10.613-23.291-17.922
				c-5.793-6.296-10.22-13.19-8.758-23.862c-7.191,7.602-11.113,15.267-12.207,24.343c-1.204,9.983,2.275,18.692,7.819,26.702
				c2.365,3.415,5.04,6.621,7.646,9.863c3.983,4.953,6.392,10.513,6.563,16.912c0.283,10.57-6.511,18.485-16.328,19.123
				c-9.978,0.647-18.493-7.062-19.427-17.442c-0.315-3.505,0.744-6.878,0.838-11.308c-15.563,12.904-25.754,28.02-26.501,47.854
				c-0.773,20.564,10.45,35.013,26.449,46.484c-1.544,1.179-2.683,0.115-3.814-0.266C16.26,268.473-8.1,224.441,2.426,174.724
				c6.265-29.595,22.096-53.874,41.671-76.218c13.196-15.062,28.452-28.077,41.884-42.884c8.928-9.843,16.257-20.68,19.958-33.625
				c2.476-8.656,2.14-15.362-0.863-21.384c1.388-1.261,2.474-0.334,3.413,0.59c16.381,16.103,26.528,34.985,25.221,58.608
				c-0.526,9.516-4.045,18.504-6.228,27.727c-1.783,7.535-2.793,15.134-0.389,22.692c2.25,7.074,5.994,13.163,13.537,15.567
				c11.357,3.62,25.456-5.225,23.016-19.703c12.397,6.655,22.982,14.993,32.033,25.22c36.547,41.296,31.453,98.315-11.815,132.696
				c-10.498,8.343-21.972,14.976-34.791,19.125C147.88,283.624,146.798,283.904,146.904,281.971z"/>
		</g>
	</g>
</g>
</svg>
