<?xml version="1.0" encoding="utf-8"?>
<!-- Generator: Adobe Illustrator 16.0.0, SVG Export Plug-In . SVG Version: 6.00 Build 0)  -->
<!DOCTYPE svg PUBLIC "-//W3C//DTD SVG 1.1//EN" "http://www.w3.org/Graphics/SVG/1.1/DTD/svg11.dtd">
<svg version="1.1" id="Layer_1" xmlns="http://www.w3.org/2000/svg" xmlns:xlink="http://www.w3.org/1999/xlink" x="0px" y="0px"
	 width="143.5px" height="146.5px" viewBox="-9.531 -50 143.5 146.5" enable-background="new -9.531 -50 143.5 146.5"
	 xml:space="preserve">
<polygon opacity="0.7" fill="#E29898" enable-background="new    " points="92.577,80 0,80 35.362,50 127.938,50 "/>
<polygon opacity="0.7" fill="#84B272" enable-background="new    " points="92.577,70 0,70 35.362,40 127.938,40 "/>
<polygon opacity="0.7" fill="#FFFFFF" enable-background="new    " points="92.577,60 0,60 35.362,30 127.938,30 "/>
<polygon opacity="0.7" fill="#00A9E2" enable-background="new    " points="92.577,53 0,53 35.362,23 127.938,23 "/>
<polygon opacity="0.7" fill="#FDF424" enable-background="new    " points="92.577,45 0,45 35.362,15 127.938,15 "/>
<polygon opacity="0.7" fill="#00AB3C" enable-background="new    " points="92.577,38 0,38 35.362,8 127.938,8 "/>
<polygon opacity="0.7" fill="#2E307B" enable-background="new    " points="92.577,30 0,30 35.362,0 127.938,0 "/>
</svg>
